Dosis-v2031b-Bold.ufo
<glyph name="exclam" format="2">
  <advance width="229"/>
  <unicode hex="0021"/>
  <outline>
    <contour>
      <point x="115" y="240" type="curve" smooth="yes"/>
      <point x="139" y="240"/>
      <point x="173" y="253"/>
      <point x="173" y="284" type="curve" smooth="yes"/>
      <point x="173" y="403"/>
      <point x="187" y="574"/>
      <point x="187" y="693" type="curve" smooth="yes"/>
      <point x="187" y="732"/>
      <point x="154" y="754"/>
      <point x="115" y="754" type="curve" smooth="yes"/>
      <point x="74" y="754"/>
      <point x="42" y="732"/>
      <point x="42" y="693" type="curve" smooth="yes"/>
      <point x="42" y="574"/>
      <point x="56" y="403"/>
      <point x="56" y="284" type="curve" smooth="yes"/>
      <point x="56" y="253"/>
      <point x="83" y="240"/>
    </contour>
    <contour>
      <point x="116" y="-6" type="curve" smooth="yes"/>
      <point x="157" y="-6"/>
      <point x="192" y="30"/>
      <point x="192" y="71" type="curve" smooth="yes"/>
      <point x="192" y="113"/>
      <point x="157" y="148"/>
      <point x="116" y="148" type="curve" smooth="yes"/>
      <point x="72" y="148"/>
      <point x="39" y="113"/>
      <point x="39" y="71" type="curve" smooth="yes"/>
      <point x="39" y="30"/>
      <point x="72" y="-6"/>
    </contour>
  </outline>
</glyph>
<glyph name="quotedbl" format="2">
  <advance width="315"/>
  <unicode hex="0022"/>
  <outline>
    <contour>
      <point x="237" y="529" type="curve" smooth="yes"/>
      <point x="269" y="529"/>
      <point x="282" y="548"/>
      <point x="282" y="567" type="curve"/>
      <point x="292" y="731" type="line"/>
      <point x="292" y="753"/>
      <point x="265" y="768"/>
      <point x="237" y="768" type="curve" smooth="yes"/>
      <point x="209" y="768"/>
      <point x="183" y="753"/>
      <point x="183" y="731" type="curve"/>
      <point x="193" y="567" type="line"/>
      <point x="193" y="548"/>
      <point x="205" y="529"/>
    </contour>
    <contour>
      <point x="77" y="529" type="curve" smooth="yes"/>
      <point x="109" y="529"/>
      <point x="122" y="548"/>
      <point x="122" y="567" type="curve"/>
      <point x="132" y="731" type="line"/>
      <point x="132" y="753"/>
      <point x="105" y="768"/>
      <point x="77" y="768" type="curve" smooth="yes"/>
      <point x="49" y="768"/>
      <point x="23" y="753"/>
      <point x="23" y="731" type="curve"/>
      <point x="33" y="567" type="line"/>
      <point x="33" y="548"/>
      <point x="45" y="529"/>
    </contour>
  </outline>
</glyph>
<glyph name="numbersign" format="2">
  <advance width="717"/>
  <unicode hex="0023"/>
  <outline>
    <contour>
      <point x="187" y="28" type="curve" smooth="yes"/>
      <point x="211" y="28"/>
      <point x="243" y="43"/>
      <point x="247" y="62" type="curve" smooth="yes"/>
      <point x="275" y="207" type="line"/>
      <point x="376" y="207" type="line"/>
      <point x="353" y="85" type="line"/>
      <point x="353" y="47"/>
      <point x="397" y="28"/>
      <point x="430" y="28" type="curve" smooth="yes"/>
      <point x="455" y="28"/>
      <point x="486" y="43"/>
      <point x="490" y="62" type="curve" smooth="yes"/>
      <point x="518" y="207" type="line"/>
      <point x="609" y="207" type="line" smooth="yes"/>
      <point x="631" y="207"/>
      <point x="654" y="230"/>
      <point x="654" y="265" type="curve" smooth="yes"/>
      <point x="654" y="297"/>
      <point x="632" y="322"/>
      <point x="610" y="322" type="curve" smooth="yes"/>
      <point x="540" y="322" type="line"/>
      <point x="562" y="430" type="line"/>
      <point x="652" y="430" type="line" smooth="yes"/>
      <point x="674" y="430"/>
      <point x="696" y="454"/>
      <point x="696" y="488" type="curve" smooth="yes"/>
      <point x="696" y="520"/>
      <point x="675" y="545"/>
      <point x="653" y="545" type="curve" smooth="yes"/>
      <point x="583" y="545" type="line"/>
      <point x="605" y="656" type="line"/>
      <point x="604" y="698"/>
      <point x="569" y="713"/>
      <point x="534" y="713" type="curve" smooth="yes"/>
      <point x="504" y="713"/>
      <point x="473" y="701"/>
      <point x="469" y="681" type="curve" smooth="yes"/>
      <point x="443" y="545" type="line"/>
      <point x="340" y="545" type="line"/>
      <point x="361" y="656" type="line"/>
      <point x="361" y="698"/>
      <point x="326" y="713"/>
      <point x="291" y="713" type="curve" smooth="yes"/>
      <point x="261" y="713"/>
      <point x="230" y="701"/>
      <point x="226" y="681" type="curve" smooth="yes"/>
      <point x="200" y="545" type="line"/>
      <point x="107" y="545" type="line" smooth="yes"/>
      <point x="81" y="545"/>
      <point x="64" y="519"/>
      <point x="64" y="486" type="curve" smooth="yes"/>
      <point x="64" y="452"/>
      <point x="80" y="430"/>
      <point x="106" y="430" type="curve" smooth="yes"/>
      <point x="177" y="430" type="line"/>
      <point x="156" y="322" type="line"/>
      <point x="64" y="322" type="line" smooth="yes"/>
      <point x="39" y="322"/>
      <point x="21" y="296"/>
      <point x="21" y="263" type="curve" smooth="yes"/>
      <point x="21" y="229"/>
      <point x="38" y="207"/>
      <point x="63" y="207" type="curve" smooth="yes"/>
      <point x="133" y="207" type="line"/>
      <point x="111" y="85" type="line"/>
      <point x="111" y="47"/>
      <point x="154" y="28"/>
    </contour>
    <contour>
      <point x="297" y="322" type="line"/>
      <point x="318" y="430" type="line"/>
      <point x="420" y="430" type="line"/>
      <point x="399" y="322" type="line"/>
    </contour>
  </outline>
</glyph>
<glyph name="dollar" format="2">
  <advance width="541"/>
  <unicode hex="0024"/>
  <outline>
    <contour>
      <point x="280" y="-52" type="curve" smooth="yes"/>
      <point x="299" y="-52"/>
      <point x="318" y="-39"/>
      <point x="318" y="-25" type="curve" smooth="yes"/>
      <point x="318" y="4" type="line"/>
      <point x="435" y="23"/>
      <point x="515" y="98"/>
      <point x="515" y="222" type="curve" smooth="yes"/>
      <point x="515" y="357"/>
      <point x="409" y="404"/>
      <point x="318" y="438" type="curve"/>
      <point x="318" y="584" type="line"/>
      <point x="383" y="579"/>
      <point x="402" y="547"/>
      <point x="435" y="547" type="curve" smooth="yes"/>
      <point x="479" y="547"/>
      <point x="497" y="602"/>
      <point x="497" y="629" type="curve" smooth="yes"/>
      <point x="497" y="698"/>
      <point x="380" y="714"/>
      <point x="318" y="716" type="curve"/>
      <point x="318" y="741" type="line" smooth="yes"/>
      <point x="318" y="755"/>
      <point x="299" y="768"/>
      <point x="280" y="768" type="curve" smooth="yes"/>
      <point x="258" y="768"/>
      <point x="242" y="755"/>
      <point x="242" y="741" type="curve" smooth="yes"/>
      <point x="242" y="713" type="line"/>
      <point x="136" y="698"/>
      <point x="42" y="637"/>
      <point x="42" y="510" type="curve" smooth="yes"/>
      <point x="42" y="382"/>
      <point x="150" y="339"/>
      <point x="242" y="304" type="curve"/>
      <point x="242" y="142" type="line"/>
      <point x="168" y="155"/>
      <point x="134" y="214"/>
      <point x="92" y="214" type="curve" smooth="yes"/>
      <point x="54" y="214"/>
      <point x="24" y="164"/>
      <point x="24" y="130" type="curve" smooth="yes"/>
      <point x="24" y="66"/>
      <point x="122" y="4"/>
      <point x="242" y="0" type="curve"/>
      <point x="242" y="-25" type="line" smooth="yes"/>
      <point x="242" y="-39"/>
      <point x="258" y="-52"/>
    </contour>
    <contour>
      <point x="308" y="143" type="curve"/>
      <point x="308" y="277" type="line"/>
      <point x="344" y="260"/>
      <point x="369" y="239"/>
      <point x="369" y="206" type="curve" smooth="yes"/>
      <point x="369" y="170"/>
      <point x="342" y="151"/>
    </contour>
    <contour>
      <point x="252" y="462" type="line"/>
      <point x="214" y="478"/>
      <point x="188" y="496"/>
      <point x="188" y="525" type="curve" smooth="yes"/>
      <point x="188" y="549"/>
      <point x="207" y="572"/>
      <point x="252" y="581" type="curve"/>
    </contour>
  </outline>
</glyph>
<glyph name="ampersand" format="2">
  <advance width="655"/>
  <unicode hex="0026"/>
  <outline>
    <contour>
      <point x="18" y="214" type="curve" smooth="yes"/>
      <point x="18" y="97"/>
      <point x="123" y="-6"/>
      <point x="279" y="-6" type="curve" smooth="yes"/>
      <point x="359.987" y="-6"/>
      <point x="429.604" y="21.44"/>
      <point x="484.427" y="64.573" type="curve"/>
      <point x="537" y="12" type="line" smooth="yes"/>
      <point x="551" y="-2"/>
      <point x="562" y="-6"/>
      <point x="575" y="-6" type="curve" smooth="yes"/>
      <point x="611" y="-6"/>
      <point x="647" y="26"/>
      <point x="647" y="57" type="curve" smooth="yes"/>
      <point x="647" y="65"/>
      <point x="645" y="74"/>
      <point x="638" y="82" type="curve"/>
      <point x="565.321" y="154.91" type="line"/>
      <point x="600.705" y="211.221"/>
      <point x="620" y="275.916"/>
      <point x="620" y="338" type="curve" smooth="yes"/>
      <point x="620" y="381"/>
      <point x="611" y="407"/>
      <point x="553" y="407" type="curve" smooth="yes"/>
      <point x="497" y="407"/>
      <point x="485" y="383"/>
      <point x="485" y="351" type="curve" smooth="yes"/>
      <point x="485" y="326.699"/>
      <point x="480.255" y="290.197"/>
      <point x="466.772" y="253.773" type="curve"/>
      <point x="324" y="397" type="line" smooth="yes"/>
      <point x="282" y="439"/>
      <point x="217" y="492"/>
      <point x="217" y="549" type="curve" smooth="yes"/>
      <point x="217" y="590"/>
      <point x="251" y="613"/>
      <point x="295" y="613" type="curve" smooth="yes"/>
      <point x="371" y="613"/>
      <point x="379" y="541"/>
      <point x="430" y="541" type="curve" smooth="yes"/>
      <point x="466" y="541"/>
      <point x="504" y="577"/>
      <point x="504" y="613" type="curve" smooth="yes"/>
      <point x="504" y="667"/>
      <point x="420" y="736"/>
      <point x="294" y="736" type="curve" smooth="yes"/>
      <point x="171" y="736"/>
      <point x="73" y="670"/>
      <point x="73" y="555" type="curve" smooth="yes"/>
      <point x="73" y="494.336"/>
      <point x="99.664" y="452.337"/>
      <point x="136.106" y="412.709" type="curve"/>
      <point x="71.549" y="373.511"/>
      <point x="18" y="297.642"/>
    </contour>
    <contour>
      <point x="174" y="225" type="curve" smooth="yes"/>
      <point x="174" y="266.13"/>
      <point x="195.443" y="299.602"/>
      <point x="224.925" y="324.075" type="curve"/>
      <point x="393.646" y="155.354" type="line"/>
      <point x="369.024" y="139.145"/>
      <point x="338.251" y="129"/>
      <point x="300" y="129" type="curve" smooth="yes"/>
      <point x="215" y="129"/>
      <point x="174" y="169"/>
    </contour>
  </outline>
</glyph>
<glyph name="parenleft" format="2">
  <advance width="358"/>
  <unicode hex="0028"/>
  <outline>
    <contour>
      <point x="268" y="-80" type="curve" smooth="yes"/>
      <point x="329" y="-80"/>
      <point x="344" y="-49"/>
      <point x="344" y="-4" type="curve" smooth="yes"/>
      <point x="344" y="55"/>
      <point x="318" y="60"/>
      <point x="290" y="65" type="curve" smooth="yes"/>
      <point x="228" y="76"/>
      <point x="199" y="112"/>
      <point x="199" y="177" type="curve" smooth="yes"/>
      <point x="199" y="511" type="line" smooth="yes"/>
      <point x="199" y="576"/>
      <point x="228" y="612"/>
      <point x="290" y="623" type="curve" smooth="yes"/>
      <point x="318" y="628"/>
      <point x="344" y="633"/>
      <point x="344" y="692" type="curve" smooth="yes"/>
      <point x="344" y="737"/>
      <point x="329" y="768"/>
      <point x="268" y="768" type="curve" smooth="yes"/>
      <point x="166" y="768"/>
      <point x="43" y="681"/>
      <point x="43" y="537" type="curve" smooth="yes"/>
      <point x="43" y="151" type="line" smooth="yes"/>
      <point x="43" y="7"/>
      <point x="166" y="-80"/>
    </contour>
  </outline>
</glyph>
<glyph name="parenright" format="2">
  <advance width="358"/>
  <unicode hex="0029"/>
  <outline>
    <contour>
      <point x="90" y="-80" type="curve" smooth="yes"/>
      <point x="192" y="-80"/>
      <point x="315" y="7"/>
      <point x="315" y="151" type="curve" smooth="yes"/>
      <point x="315" y="537" type="line" smooth="yes"/>
      <point x="315" y="681"/>
      <point x="192" y="768"/>
      <point x="90" y="768" type="curve" smooth="yes"/>
      <point x="29" y="768"/>
      <point x="14" y="737"/>
      <point x="14" y="692" type="curve" smooth="yes"/>
      <point x="14" y="633"/>
      <point x="40" y="628"/>
      <point x="68" y="623" type="curve" smooth="yes"/>
      <point x="130" y="612"/>
      <point x="159" y="576"/>
      <point x="159" y="511" type="curve" smooth="yes"/>
      <point x="159" y="177" type="line" smooth="yes"/>
      <point x="159" y="112"/>
      <point x="130" y="76"/>
      <point x="68" y="65" type="curve" smooth="yes"/>
      <point x="40" y="60"/>
      <point x="14" y="55"/>
      <point x="14" y="-4" type="curve" smooth="yes"/>
      <point x="14" y="-49"/>
      <point x="29" y="-80"/>
    </contour>
  </outline>
</glyph>
<glyph name="asterisk" format="2">
  <advance width="491"/>
  <unicode hex="002A"/>
  <outline>
    <contour>
      <point x="145" y="309" type="curve" smooth="yes"/>
      <point x="159" y="309"/>
      <point x="171" y="312"/>
      <point x="180" y="327" type="curve"/>
      <point x="246" y="428" type="line"/>
      <point x="311" y="328" type="line" smooth="yes"/>
      <point x="322" y="311"/>
      <point x="338" y="309"/>
      <point x="349" y="309" type="curve" smooth="yes"/>
      <point x="378" y="309"/>
      <point x="410" y="331"/>
      <point x="410" y="363" type="curve" smooth="yes"/>
      <point x="410" y="374"/>
      <point x="407" y="386"/>
      <point x="402" y="392" type="curve"/>
      <point x="332" y="493" type="line"/>
      <point x="434" y="517" type="line" smooth="yes"/>
      <point x="458" y="523"/>
      <point x="468" y="541"/>
      <point x="468" y="561" type="curve" smooth="yes"/>
      <point x="468" y="590"/>
      <point x="447" y="623"/>
      <point x="416" y="623" type="curve" smooth="yes"/>
      <point x="411" y="623"/>
      <point x="406" y="622"/>
      <point x="401" y="620" type="curve"/>
      <point x="295" y="584" type="line"/>
      <point x="299" y="688" type="line"/>
      <point x="298" y="721"/>
      <point x="274" y="736"/>
      <point x="246" y="736" type="curve" smooth="yes"/>
      <point x="218" y="736"/>
      <point x="193" y="721"/>
      <point x="192" y="688" type="curve"/>
      <point x="197" y="586" type="line"/>
      <point x="92" y="620" type="line"/>
      <point x="85" y="623"/>
      <point x="80" y="623"/>
      <point x="77" y="623" type="curve" smooth="yes"/>
      <point x="45" y="623"/>
      <point x="22" y="594"/>
      <point x="22" y="568" type="curve" smooth="yes"/>
      <point x="22" y="542"/>
      <point x="33" y="522"/>
      <point x="56" y="517" type="curve"/>
      <point x="160" y="487" type="line"/>
      <point x="94" y="393" type="line"/>
      <point x="87" y="385"/>
      <point x="82" y="374"/>
      <point x="82" y="361" type="curve" smooth="yes"/>
      <point x="82" y="328"/>
      <point x="121" y="309"/>
    </contour>
  </outline>
</glyph>
<glyph name="plus" format="2">
  <advance width="455"/>
  <unicode hex="002B"/>
  <outline>
    <contour>
      <point x="228" y="33" type="curve" smooth="yes"/>
      <point x="266" y="33"/>
      <point x="291" y="52"/>
      <point x="291" y="80" type="curve" smooth="yes"/>
      <point x="291" y="177" type="line"/>
      <point x="387" y="177" type="line" smooth="yes"/>
      <point x="411" y="177"/>
      <point x="435" y="202"/>
      <point x="435" y="240" type="curve" smooth="yes"/>
      <point x="435" y="276"/>
      <point x="411" y="304"/>
      <point x="387" y="304" type="curve" smooth="yes"/>
      <point x="291" y="304" type="line"/>
      <point x="291" y="400" type="line" smooth="yes"/>
      <point x="291" y="424"/>
      <point x="266" y="448"/>
      <point x="228" y="448" type="curve" smooth="yes"/>
      <point x="192" y="448"/>
      <point x="164" y="424"/>
      <point x="164" y="400" type="curve" smooth="yes"/>
      <point x="164" y="304" type="line"/>
      <point x="67" y="304" type="line" smooth="yes"/>
      <point x="39" y="304"/>
      <point x="20" y="276"/>
      <point x="20" y="240" type="curve" smooth="yes"/>
      <point x="20" y="202"/>
      <point x="39" y="177"/>
      <point x="67" y="177" type="curve" smooth="yes"/>
      <point x="164" y="177" type="line"/>
      <point x="164" y="80" type="line" smooth="yes"/>
      <point x="164" y="52"/>
      <point x="192" y="33"/>
    </contour>
  </outline>
</glyph>
<glyph name="comma" format="2">
  <advance width="202"/>
  <unicode hex="002C"/>
  <outline>
    <contour>
      <point x="74" y="-144" type="curve" smooth="yes"/>
      <point x="149" y="-67"/>
      <point x="180" y="4"/>
      <point x="180" y="63" type="curve" smooth="yes"/>
      <point x="180" y="127"/>
      <point x="143" y="147"/>
      <point x="105" y="147" type="curve" smooth="yes"/>
      <point x="41" y="147"/>
      <point x="27" y="105"/>
      <point x="27" y="70" type="curve" smooth="yes"/>
      <point x="27" y="37"/>
      <point x="62" y="26"/>
      <point x="62" y="-14" type="curve" smooth="yes"/>
      <point x="62" y="-63"/>
      <point x="10" y="-88"/>
      <point x="10" y="-121" type="curve" smooth="yes"/>
      <point x="10" y="-141"/>
      <point x="26" y="-158"/>
      <point x="45" y="-158" type="curve" smooth="yes"/>
      <point x="55" y="-158"/>
      <point x="65" y="-154"/>
    </contour>
  </outline>
</glyph>
<glyph name="hyphen" format="2">
  <advance width="490"/>
  <unicode hex="002D"/>
  <outline>
    <contour>
      <point x="97" y="177" type="curve" smooth="yes"/>
      <point x="392" y="177" type="line" smooth="yes"/>
      <point x="416" y="177"/>
      <point x="440" y="202"/>
      <point x="440" y="240" type="curve" smooth="yes"/>
      <point x="440" y="276"/>
      <point x="416" y="304"/>
      <point x="392" y="304" type="curve" smooth="yes"/>
      <point x="97" y="304" type="line" smooth="yes"/>
      <point x="69" y="304"/>
      <point x="50" y="276"/>
      <point x="50" y="240" type="curve" smooth="yes"/>
      <point x="50" y="202"/>
      <point x="69" y="177"/>
    </contour>
  </outline>
</glyph>
<glyph name="period" format="2">
  <advance width="199"/>
  <unicode hex="002E"/>
  <outline>
    <contour>
      <point x="100" y="-6" type="curve" smooth="yes"/>
      <point x="141" y="-6"/>
      <point x="176" y="30"/>
      <point x="176" y="71" type="curve" smooth="yes"/>
      <point x="176" y="113"/>
      <point x="141" y="148"/>
      <point x="100" y="148" type="curve" smooth="yes"/>
      <point x="56" y="148"/>
      <point x="23" y="113"/>
      <point x="23" y="71" type="curve" smooth="yes"/>
      <point x="23" y="30"/>
      <point x="56" y="-6"/>
    </contour>
  </outline>
</glyph>
<glyph name="slash" format="2">
  <advance width="491"/>
  <unicode hex="002F"/>
  <outline>
    <contour>
      <point x="73" y="-46" type="curve" smooth="yes"/>
      <point x="92" y="-46"/>
      <point x="111" y="-36"/>
      <point x="118" y="-21" type="curve" smooth="yes"/>
      <point x="470" y="700" type="line" smooth="yes"/>
      <point x="473" y="706"/>
      <point x="474" y="713"/>
      <point x="474" y="719" type="curve" smooth="yes"/>
      <point x="474" y="751"/>
      <point x="443" y="772"/>
      <point x="415" y="772" type="curve" smooth="yes"/>
      <point x="397" y="772"/>
      <point x="381" y="764"/>
      <point x="373" y="747" type="curve" smooth="yes"/>
      <point x="22" y="26" type="line" smooth="yes"/>
      <point x="19" y="20"/>
      <point x="17" y="13"/>
      <point x="17" y="7" type="curve" smooth="yes"/>
      <point x="17" y="-18"/>
      <point x="39" y="-46"/>
    </contour>
  </outline>
</glyph>
<glyph name="zero" format="2">
  <advance width="569"/>
  <unicode hex="0030"/>
  <outline>
    <contour>
      <point x="284" y="-6" type="curve" smooth="yes"/>
      <point x="422" y="-6"/>
      <point x="530" y="58"/>
      <point x="530" y="230" type="curve" smooth="yes"/>
      <point x="530" y="500" type="line" smooth="yes"/>
      <point x="530" y="672"/>
      <point x="422" y="736"/>
      <point x="284" y="736" type="curve" smooth="yes"/>
      <point x="146" y="736"/>
      <point x="39" y="672"/>
      <point x="39" y="500" type="curve" smooth="yes"/>
      <point x="39" y="230" type="line" smooth="yes"/>
      <point x="39" y="58"/>
      <point x="146" y="-6"/>
    </contour>
    <contour>
      <point x="284" y="130" type="curve" smooth="yes"/>
      <point x="228" y="130"/>
      <point x="195" y="161"/>
      <point x="195" y="230" type="curve" smooth="yes"/>
      <point x="195" y="500" type="line" smooth="yes"/>
      <point x="195" y="569"/>
      <point x="228" y="600"/>
      <point x="284" y="600" type="curve" smooth="yes"/>
      <point x="340" y="600"/>
      <point x="374" y="569"/>
      <point x="374" y="500" type="curve" smooth="yes"/>
      <point x="374" y="230" type="line" smooth="yes"/>
      <point x="374" y="161"/>
      <point x="340" y="130"/>
    </contour>
    <contour>
      <point x="285" y="314" type="curve" smooth="yes"/>
      <point x="316" y="314"/>
      <point x="335" y="335"/>
      <point x="335" y="365" type="curve" smooth="yes"/>
      <point x="335" y="396"/>
      <point x="316" y="415"/>
      <point x="285" y="415" type="curve" smooth="yes"/>
      <point x="253" y="415"/>
      <point x="234" y="396"/>
      <point x="234" y="365" type="curve" smooth="yes"/>
      <point x="234" y="335"/>
      <point x="253" y="314"/>
    </contour>
  </outline>
</glyph>
<glyph name="one" format="2">
  <advance width="336"/>
  <unicode hex="0031"/>
  <outline>
    <contour>
      <point x="202" y="0" type="curve" smooth="yes"/>
      <point x="241" y="0"/>
      <point x="280" y="16"/>
      <point x="280" y="48" type="curve" smooth="yes"/>
      <point x="280" y="683" type="line" smooth="yes"/>
      <point x="280" y="718"/>
      <point x="259" y="736"/>
      <point x="230" y="736" type="curve" smooth="yes"/>
      <point x="211" y="736"/>
      <point x="189" y="728"/>
      <point x="166" y="712" type="curve" smooth="yes"/>
      <point x="19" y="605" type="line" smooth="yes"/>
      <point x="6" y="596"/>
      <point x="0" y="579"/>
      <point x="0" y="562" type="curve" smooth="yes"/>
      <point x="0" y="530"/>
      <point x="20" y="495"/>
      <point x="55" y="495" type="curve" smooth="yes"/>
      <point x="63" y="495"/>
      <point x="69" y="497"/>
      <point x="77" y="501" type="curve" smooth="yes"/>
      <point x="124" y="526" type="line"/>
      <point x="124" y="48" type="line" smooth="yes"/>
      <point x="124" y="16"/>
      <point x="163" y="0"/>
    </contour>
  </outline>
</glyph>
<glyph name="two" format="2">
  <advance width="517"/>
  <unicode hex="0032"/>
  <outline>
    <contour>
      <point x="91" y="0" type="curve" smooth="yes"/>
      <point x="447" y="0" type="line" smooth="yes"/>
      <point x="472" y="0"/>
      <point x="494" y="33"/>
      <point x="494" y="69" type="curve" smooth="yes"/>
      <point x="494" y="105"/>
      <point x="472" y="136"/>
      <point x="447" y="136" type="curve" smooth="yes"/>
      <point x="185" y="136" type="line"/>
      <point x="185" y="145" type="line" smooth="yes"/>
      <point x="185" y="236"/>
      <point x="494" y="312"/>
      <point x="494" y="529" type="curve" smooth="yes"/>
      <point x="494" y="663"/>
      <point x="377" y="736"/>
      <point x="261" y="736" type="curve" smooth="yes"/>
      <point x="147" y="736"/>
      <point x="35" y="666"/>
      <point x="35" y="544" type="curve" smooth="yes"/>
      <point x="35" y="481"/>
      <point x="65" y="463"/>
      <point x="105" y="463" type="curve" smooth="yes"/>
      <point x="156" y="463"/>
      <point x="187" y="491"/>
      <point x="187" y="520" type="curve" smooth="yes"/>
      <point x="187" y="575"/>
      <point x="222" y="595"/>
      <point x="262" y="595" type="curve" smooth="yes"/>
      <point x="318" y="595"/>
      <point x="338" y="556"/>
      <point x="338" y="524" type="curve" smooth="yes"/>
      <point x="338" y="397"/>
      <point x="23" y="302"/>
      <point x="23" y="145" type="curve" smooth="yes"/>
      <point x="23" y="48" type="line" smooth="yes"/>
      <point x="23" y="19"/>
      <point x="63" y="0"/>
    </contour>
  </outline>
</glyph>
<glyph name="three" format="2">
  <advance width="534"/>
  <unicode hex="0033"/>
  <outline>
    <contour>
      <point x="254" y="-6" type="curve" smooth="yes"/>
      <point x="394" y="-6"/>
      <point x="507" y="56"/>
      <point x="507" y="220" type="curve" smooth="yes"/>
      <point x="507" y="239" type="line" smooth="yes"/>
      <point x="507" y="320"/>
      <point x="464" y="364"/>
      <point x="405" y="386" type="curve"/>
      <point x="455" y="410"/>
      <point x="482" y="483"/>
      <point x="482" y="556" type="curve" smooth="yes"/>
      <point x="482" y="691"/>
      <point x="386" y="737"/>
      <point x="259" y="737" type="curve" smooth="yes"/>
      <point x="87" y="737"/>
      <point x="31" y="636"/>
      <point x="31" y="558" type="curve" smooth="yes"/>
      <point x="31" y="510"/>
      <point x="40" y="495"/>
      <point x="112" y="495" type="curve" smooth="yes"/>
      <point x="170" y="495"/>
      <point x="185" y="518"/>
      <point x="185" y="552" type="curve" smooth="yes"/>
      <point x="185" y="591"/>
      <point x="210" y="603"/>
      <point x="259" y="603" type="curve" smooth="yes"/>
      <point x="300" y="603"/>
      <point x="333" y="589"/>
      <point x="333" y="531" type="curve" smooth="yes"/>
      <point x="333" y="441"/>
      <point x="293" y="442"/>
      <point x="255" y="442" type="curve" smooth="yes"/>
      <point x="221" y="442"/>
      <point x="210" y="412"/>
      <point x="210" y="382" type="curve" smooth="yes"/>
      <point x="210" y="352"/>
      <point x="221" y="322"/>
      <point x="255" y="322" type="curve" smooth="yes"/>
      <point x="310" y="322"/>
      <point x="351" y="309"/>
      <point x="351" y="239" type="curve" smooth="yes"/>
      <point x="351" y="220" type="line" smooth="yes"/>
      <point x="351" y="155"/>
      <point x="327" y="130"/>
      <point x="259" y="130" type="curve" smooth="yes"/>
      <point x="214" y="130"/>
      <point x="170" y="141"/>
      <point x="170" y="188" type="curve" smooth="yes"/>
      <point x="170" y="226"/>
      <point x="154" y="240"/>
      <point x="90" y="240" type="curve" smooth="yes"/>
      <point x="35" y="240"/>
      <point x="16" y="228"/>
      <point x="16" y="183" type="curve" smooth="yes"/>
      <point x="16" y="99"/>
      <point x="82" y="-6"/>
    </contour>
  </outline>
</glyph>
<glyph name="four" format="2">
  <advance width="525"/>
  <unicode hex="0034"/>
  <outline>
    <contour>
      <point x="370" y="0" type="curve" smooth="yes"/>
      <point x="407" y="0"/>
      <point x="443" y="16"/>
      <point x="443" y="48" type="curve" smooth="yes"/>
      <point x="443" y="154" type="line"/>
      <point x="480" y="154" type="line" smooth="yes"/>
      <point x="504" y="154"/>
      <point x="528" y="187"/>
      <point x="528" y="224" type="curve" smooth="yes"/>
      <point x="528" y="254"/>
      <point x="512" y="289"/>
      <point x="480" y="289" type="curve" smooth="yes"/>
      <point x="443" y="289" type="line"/>
      <point x="443" y="368" type="line" smooth="yes"/>
      <point x="443" y="401"/>
      <point x="407" y="415"/>
      <point x="370" y="415" type="curve" smooth="yes"/>
      <point x="334" y="415"/>
      <point x="297" y="401"/>
      <point x="297" y="368" type="curve" smooth="yes"/>
      <point x="297" y="289" type="line"/>
      <point x="183" y="289" type="line"/>
      <point x="363" y="649" type="line" smooth="yes"/>
      <point x="370" y="663"/>
      <point x="373" y="674"/>
      <point x="373" y="683" type="curve" smooth="yes"/>
      <point x="373" y="714"/>
      <point x="339" y="736"/>
      <point x="306" y="736" type="curve" smooth="yes"/>
      <point x="282" y="736"/>
      <point x="253" y="725"/>
      <point x="238" y="696" type="curve" smooth="yes"/>
      <point x="3" y="238" type="line" smooth="yes"/>
      <point x="-3" y="227"/>
      <point x="-5" y="216"/>
      <point x="-5" y="206" type="curve" smooth="yes"/>
      <point x="-5" y="173"/>
      <point x="18" y="154"/>
      <point x="47" y="154" type="curve" smooth="yes"/>
      <point x="297" y="154" type="line"/>
      <point x="297" y="48" type="line" smooth="yes"/>
      <point x="297" y="16"/>
      <point x="334" y="0"/>
    </contour>
  </outline>
</glyph>
<glyph name="five" format="2">
  <advance width="521"/>
  <unicode hex="0035"/>
  <outline>
    <contour>
      <point x="260" y="-6" type="curve" smooth="yes"/>
      <point x="394" y="-6"/>
      <point x="503" y="57"/>
      <point x="503" y="224" type="curve" smooth="yes"/>
      <point x="503" y="243" type="line" smooth="yes"/>
      <point x="503" y="403"/>
      <point x="396" y="461"/>
      <point x="258" y="461" type="curve" smooth="yes"/>
      <point x="193" y="461" type="line"/>
      <point x="203" y="594" type="line"/>
      <point x="422" y="594" type="line" smooth="yes"/>
      <point x="452" y="594"/>
      <point x="467" y="628"/>
      <point x="467" y="662" type="curve" smooth="yes"/>
      <point x="467" y="696"/>
      <point x="452" y="730"/>
      <point x="422" y="730" type="curve" smooth="yes"/>
      <point x="103" y="730" type="line" smooth="yes"/>
      <point x="86" y="730"/>
      <point x="78" y="712"/>
      <point x="75" y="682" type="curve" smooth="yes"/>
      <point x="48" y="431" type="line" smooth="yes"/>
      <point x="47" y="420"/>
      <point x="46" y="412"/>
      <point x="46" y="402" type="curve" smooth="yes"/>
      <point x="46" y="364"/>
      <point x="60" y="341"/>
      <point x="106" y="341" type="curve" smooth="yes"/>
      <point x="258" y="341" type="line" smooth="yes"/>
      <point x="313" y="341"/>
      <point x="347" y="309"/>
      <point x="347" y="243" type="curve" smooth="yes"/>
      <point x="347" y="224" type="line" smooth="yes"/>
      <point x="347" y="159"/>
      <point x="313" y="130"/>
      <point x="256" y="130" type="curve" smooth="yes"/>
      <point x="207" y="130"/>
      <point x="169" y="151"/>
      <point x="169" y="191" type="curve" smooth="yes"/>
      <point x="169" y="223"/>
      <point x="159" y="249"/>
      <point x="91" y="249" type="curve" smooth="yes"/>
      <point x="42" y="249"/>
      <point x="13" y="234"/>
      <point x="13" y="180" type="curve" smooth="yes"/>
      <point x="13" y="86"/>
      <point x="99" y="-6"/>
    </contour>
  </outline>
</glyph>
<glyph name="six" format="2">
  <advance width="562"/>
  <unicode hex="0036"/>
  <outline>
    <contour>
      <point x="285" y="-6" type="curve" smooth="yes"/>
      <point x="423" y="-6"/>
      <point x="530" y="58"/>
      <point x="530" y="230" type="curve" smooth="yes"/>
      <point x="530" y="239" type="line" smooth="yes"/>
      <point x="530" y="399"/>
      <point x="434" y="449"/>
      <point x="320" y="449" type="curve" smooth="yes"/>
      <point x="272" y="449"/>
      <point x="227" y="440"/>
      <point x="195" y="405" type="curve"/>
      <point x="195" y="495" type="line" smooth="yes"/>
      <point x="195" y="568"/>
      <point x="230" y="601"/>
      <point x="289" y="601" type="curve" smooth="yes"/>
      <point x="336" y="601"/>
      <point x="376" y="579"/>
      <point x="376" y="537" type="curve" smooth="yes"/>
      <point x="376" y="491"/>
      <point x="414" y="480"/>
      <point x="457" y="480" type="curve" smooth="yes"/>
      <point x="507" y="480"/>
      <point x="530" y="495"/>
      <point x="530" y="543" type="curve" smooth="yes"/>
      <point x="530" y="629"/>
      <point x="463" y="737"/>
      <point x="294" y="737" type="curve" smooth="yes"/>
      <point x="150" y="737"/>
      <point x="39" y="671"/>
      <point x="39" y="495" type="curve" smooth="yes"/>
      <point x="39" y="230" type="line" smooth="yes"/>
      <point x="39" y="58"/>
      <point x="147" y="-6"/>
    </contour>
    <contour>
      <point x="285" y="120" type="curve" smooth="yes"/>
      <point x="229" y="120"/>
      <point x="195" y="150"/>
      <point x="195" y="219" type="curve" smooth="yes"/>
      <point x="195" y="237" type="line" smooth="yes"/>
      <point x="195" y="303"/>
      <point x="230" y="329"/>
      <point x="284" y="329" type="curve" smooth="yes"/>
      <point x="341" y="329"/>
      <point x="374" y="301"/>
      <point x="374" y="228" type="curve" smooth="yes"/>
      <point x="374" y="219" type="line" smooth="yes"/>
      <point x="374" y="150"/>
      <point x="341" y="120"/>
    </contour>
  </outline>
</glyph>
<glyph name="seven" format="2">
  <advance width="512"/>
  <unicode hex="0037"/>
  <outline>
    <contour>
      <point x="193" y="-6" type="curve" smooth="yes"/>
      <point x="214" y="-6"/>
      <point x="229" y="0"/>
      <point x="237" y="15" type="curve" smooth="yes"/>
      <point x="471" y="462" type="line" smooth="yes"/>
      <point x="487" y="492"/>
      <point x="503" y="531"/>
      <point x="503" y="557" type="curve" smooth="yes"/>
      <point x="503" y="682" type="line" smooth="yes"/>
      <point x="503" y="706"/>
      <point x="465" y="730"/>
      <point x="435" y="730" type="curve" smooth="yes"/>
      <point x="80" y="730" type="line" smooth="yes"/>
      <point x="46" y="730"/>
      <point x="12" y="706"/>
      <point x="12" y="682" type="curve" smooth="yes"/>
      <point x="12" y="527" type="line" smooth="yes"/>
      <point x="12" y="500"/>
      <point x="47" y="479"/>
      <point x="89" y="479" type="curve" smooth="yes"/>
      <point x="130" y="479"/>
      <point x="168" y="500"/>
      <point x="168" y="527" type="curve" smooth="yes"/>
      <point x="168" y="594" type="line"/>
      <point x="347" y="594" type="line"/>
      <point x="347" y="524" type="line"/>
      <point x="101" y="99" type="line" smooth="yes"/>
      <point x="96" y="90"/>
      <point x="94" y="82"/>
      <point x="94" y="73" type="curve" smooth="yes"/>
      <point x="94" y="28"/>
      <point x="144" y="-6"/>
    </contour>
  </outline>
</glyph>
<glyph name="eight" format="2">
  <advance width="545"/>
  <unicode hex="0038"/>
  <outline>
    <contour>
      <point x="273" y="-6" type="curve" smooth="yes"/>
      <point x="411" y="-6"/>
      <point x="518" y="51"/>
      <point x="518" y="200" type="curve" smooth="yes"/>
      <point x="518" y="212" type="line" smooth="yes"/>
      <point x="518" y="315"/>
      <point x="469" y="375"/>
      <point x="395" y="400" type="curve"/>
      <point x="454" y="421"/>
      <point x="494" y="472"/>
      <point x="494" y="558" type="curve" smooth="yes"/>
      <point x="494" y="678"/>
      <point x="402" y="736"/>
      <point x="273" y="736" type="curve" smooth="yes"/>
      <point x="144" y="736"/>
      <point x="52" y="678"/>
      <point x="52" y="558" type="curve" smooth="yes"/>
      <point x="52" y="472"/>
      <point x="92" y="421"/>
      <point x="151" y="400" type="curve"/>
      <point x="77" y="375"/>
      <point x="27" y="315"/>
      <point x="27" y="212" type="curve" smooth="yes"/>
      <point x="27" y="200" type="line" smooth="yes"/>
      <point x="27" y="51"/>
      <point x="135" y="-6"/>
    </contour>
    <contour>
      <point x="273" y="119" type="curve" smooth="yes"/>
      <point x="218" y="119"/>
      <point x="183" y="150"/>
      <point x="183" y="219" type="curve" smooth="yes"/>
      <point x="183" y="241" type="line" smooth="yes"/>
      <point x="183" y="306"/>
      <point x="217" y="336"/>
      <point x="273" y="336" type="curve" smooth="yes"/>
      <point x="329" y="336"/>
      <point x="362" y="306"/>
      <point x="362" y="241" type="curve" smooth="yes"/>
      <point x="362" y="219" type="line" smooth="yes"/>
      <point x="362" y="152"/>
      <point x="330" y="119"/>
    </contour>
    <contour>
      <point x="273" y="466" type="curve" smooth="yes"/>
      <point x="228" y="466"/>
      <point x="202" y="486"/>
      <point x="202" y="538" type="curve" smooth="yes"/>
      <point x="202" y="589"/>
      <point x="228" y="611"/>
      <point x="273" y="611" type="curve" smooth="yes"/>
      <point x="318" y="611"/>
      <point x="344" y="589"/>
      <point x="344" y="538" type="curve" smooth="yes"/>
      <point x="344" y="486"/>
      <point x="318" y="466"/>
    </contour>
  </outline>
</glyph>
<glyph name="nine" format="2">
  <advance width="563"/>
  <unicode hex="0039"/>
  <outline>
    <contour>
      <point x="269" y="-6" type="curve" smooth="yes"/>
      <point x="413" y="-6"/>
      <point x="524" y="59"/>
      <point x="524" y="235" type="curve" smooth="yes"/>
      <point x="524" y="500" type="line" smooth="yes"/>
      <point x="524" y="672"/>
      <point x="416" y="736"/>
      <point x="278" y="736" type="curve" smooth="yes"/>
      <point x="140" y="736"/>
      <point x="33" y="672"/>
      <point x="33" y="500" type="curve" smooth="yes"/>
      <point x="33" y="491" type="line" smooth="yes"/>
      <point x="33" y="331"/>
      <point x="129" y="281"/>
      <point x="243" y="281" type="curve" smooth="yes"/>
      <point x="291" y="281"/>
      <point x="336" y="290"/>
      <point x="368" y="325" type="curve"/>
      <point x="368" y="235" type="line" smooth="yes"/>
      <point x="368" y="163"/>
      <point x="333" y="130"/>
      <point x="274" y="130" type="curve" smooth="yes"/>
      <point x="227" y="130"/>
      <point x="187" y="152"/>
      <point x="187" y="193" type="curve" smooth="yes"/>
      <point x="187" y="239"/>
      <point x="149" y="250"/>
      <point x="106" y="250" type="curve" smooth="yes"/>
      <point x="56" y="250"/>
      <point x="33" y="235"/>
      <point x="33" y="187" type="curve" smooth="yes"/>
      <point x="33" y="102"/>
      <point x="100" y="-6"/>
    </contour>
    <contour>
      <point x="279" y="401" type="curve" smooth="yes"/>
      <point x="222" y="401"/>
      <point x="189" y="429"/>
      <point x="189" y="502" type="curve" smooth="yes"/>
      <point x="189" y="511" type="line" smooth="yes"/>
      <point x="189" y="580"/>
      <point x="222" y="610"/>
      <point x="278" y="610" type="curve" smooth="yes"/>
      <point x="334" y="610"/>
      <point x="368" y="580"/>
      <point x="368" y="511" type="curve" smooth="yes"/>
      <point x="368" y="493" type="line" smooth="yes"/>
      <point x="368" y="427"/>
      <point x="333" y="401"/>
    </contour>
  </outline>
</glyph>
<glyph name="colon" format="2">
  <advance width="225"/>
  <unicode hex="003A"/>
  <outline>
    <contour>
      <point x="113" y="352" type="curve" smooth="yes"/>
      <point x="154" y="352"/>
      <point x="189" y="388"/>
      <point x="189" y="429" type="curve" smooth="yes"/>
      <point x="189" y="471"/>
      <point x="154" y="506"/>
      <point x="113" y="506" type="curve" smooth="yes"/>
      <point x="69" y="506"/>
      <point x="36" y="471"/>
      <point x="36" y="429" type="curve" smooth="yes"/>
      <point x="36" y="388"/>
      <point x="69" y="352"/>
    </contour>
    <contour>
      <point x="113" y="-6" type="curve" smooth="yes"/>
      <point x="154" y="-6"/>
      <point x="189" y="30"/>
      <point x="189" y="71" type="curve" smooth="yes"/>
      <point x="189" y="113"/>
      <point x="154" y="148"/>
      <point x="113" y="148" type="curve" smooth="yes"/>
      <point x="69" y="148"/>
      <point x="36" y="113"/>
      <point x="36" y="71" type="curve" smooth="yes"/>
      <point x="36" y="30"/>
      <point x="69" y="-6"/>
    </contour>
  </outline>
</glyph>
<glyph name="semicolon" format="2">
  <advance width="225"/>
  <unicode hex="003B"/>
  <outline>
    <contour>
      <point x="116" y="352" type="curve" smooth="yes"/>
      <point x="157" y="352"/>
      <point x="192" y="388"/>
      <point x="192" y="429" type="curve" smooth="yes"/>
      <point x="192" y="471"/>
      <point x="157" y="506"/>
      <point x="116" y="506" type="curve" smooth="yes"/>
      <point x="72" y="506"/>
      <point x="39" y="471"/>
      <point x="39" y="429" type="curve" smooth="yes"/>
      <point x="39" y="388"/>
      <point x="72" y="352"/>
    </contour>
    <contour>
      <point x="81" y="-144" type="curve" smooth="yes"/>
      <point x="153" y="-64"/>
      <point x="187" y="4"/>
      <point x="187" y="63" type="curve" smooth="yes"/>
      <point x="187" y="127"/>
      <point x="150" y="147"/>
      <point x="112" y="147" type="curve" smooth="yes"/>
      <point x="48" y="147"/>
      <point x="34" y="105"/>
      <point x="34" y="70" type="curve" smooth="yes"/>
      <point x="34" y="37"/>
      <point x="69" y="26"/>
      <point x="69" y="-14" type="curve" smooth="yes"/>
      <point x="69" y="-63"/>
      <point x="17" y="-88"/>
      <point x="17" y="-121" type="curve" smooth="yes"/>
      <point x="17" y="-141"/>
      <point x="33" y="-158"/>
      <point x="52" y="-158" type="curve" smooth="yes"/>
      <point x="62" y="-158"/>
      <point x="72" y="-154"/>
    </contour>
  </outline>
</glyph>
<glyph name="less" format="2">
  <advance width="427"/>
  <unicode hex="003C"/>
  <outline>
    <contour>
      <point x="323" y="51" type="curve" smooth="yes"/>
      <point x="353" y="51"/>
      <point x="391" y="83"/>
      <point x="391" y="124" type="curve" smooth="yes"/>
      <point x="391" y="141"/>
      <point x="384" y="156"/>
      <point x="373" y="163" type="curve" smooth="yes"/>
      <point x="197" y="277" type="line"/>
      <point x="373" y="391" type="line" smooth="yes"/>
      <point x="384" y="398"/>
      <point x="391" y="413"/>
      <point x="391" y="430" type="curve" smooth="yes"/>
      <point x="391" y="471"/>
      <point x="353" y="503"/>
      <point x="323" y="503" type="curve" smooth="yes"/>
      <point x="316" y="503"/>
      <point x="309" y="502"/>
      <point x="304" y="498" type="curve"/>
      <point x="50" y="333" type="line" smooth="yes"/>
      <point x="27" y="318"/>
      <point x="19" y="294"/>
      <point x="19" y="277" type="curve" smooth="yes"/>
      <point x="19" y="260"/>
      <point x="27" y="236"/>
      <point x="50" y="221" type="curve" smooth="yes"/>
      <point x="304" y="56" type="line"/>
      <point x="309" y="52"/>
      <point x="316" y="51"/>
    </contour>
  </outline>
</glyph>
<glyph name="equal" format="2">
  <advance width="498"/>
  <unicode hex="003D"/>
  <outline>
    <contour>
      <point x="94" y="363" type="curve" smooth="yes"/>
      <point x="404" y="363" type="line" smooth="yes"/>
      <point x="428" y="363"/>
      <point x="452" y="388"/>
      <point x="452" y="426" type="curve" smooth="yes"/>
      <point x="452" y="462"/>
      <point x="428" y="490"/>
      <point x="404" y="490" type="curve" smooth="yes"/>
      <point x="94" y="490" type="line" smooth="yes"/>
      <point x="66" y="490"/>
      <point x="47" y="462"/>
      <point x="47" y="426" type="curve" smooth="yes"/>
      <point x="47" y="388"/>
      <point x="66" y="363"/>
    </contour>
    <contour>
      <point x="94" y="130" type="curve" smooth="yes"/>
      <point x="404" y="130" type="line" smooth="yes"/>
      <point x="428" y="130"/>
      <point x="452" y="155"/>
      <point x="452" y="193" type="curve" smooth="yes"/>
      <point x="452" y="229"/>
      <point x="428" y="257"/>
      <point x="404" y="257" type="curve" smooth="yes"/>
      <point x="94" y="257" type="line" smooth="yes"/>
      <point x="66" y="257"/>
      <point x="47" y="229"/>
      <point x="47" y="193" type="curve" smooth="yes"/>
      <point x="47" y="155"/>
      <point x="66" y="130"/>
    </contour>
  </outline>
</glyph>
<glyph name="greater" format="2">
  <advance width="427"/>
  <unicode hex="003E"/>
  <outline>
    <contour>
      <point x="104" y="51" type="curve" smooth="yes"/>
      <point x="111" y="51"/>
      <point x="118" y="52"/>
      <point x="123" y="56" type="curve"/>
      <point x="377" y="221" type="line" smooth="yes"/>
      <point x="400" y="236"/>
      <point x="408" y="260"/>
      <point x="408" y="277" type="curve" smooth="yes"/>
      <point x="408" y="294"/>
      <point x="400" y="318"/>
      <point x="377" y="333" type="curve" smooth="yes"/>
      <point x="123" y="498" type="line"/>
      <point x="118" y="502"/>
      <point x="111" y="503"/>
      <point x="104" y="503" type="curve" smooth="yes"/>
      <point x="74" y="503"/>
      <point x="36" y="471"/>
      <point x="36" y="430" type="curve" smooth="yes"/>
      <point x="36" y="413"/>
      <point x="43" y="398"/>
      <point x="54" y="391" type="curve" smooth="yes"/>
      <point x="230" y="277" type="line"/>
      <point x="54" y="163" type="line" smooth="yes"/>
      <point x="43" y="156"/>
      <point x="36" y="141"/>
      <point x="36" y="124" type="curve" smooth="yes"/>
      <point x="36" y="83"/>
      <point x="74" y="51"/>
    </contour>
  </outline>
</glyph>
<glyph name="question" format="2">
  <advance width="453"/>
  <unicode hex="003F"/>
  <outline>
    <contour>
      <point x="203" y="240" type="curve" smooth="yes"/>
      <point x="252" y="240"/>
      <point x="262" y="262"/>
      <point x="262" y="281" type="curve" smooth="yes"/>
      <point x="262" y="333"/>
      <point x="263" y="363"/>
      <point x="318" y="406" type="curve" smooth="yes"/>
      <point x="345" y="427"/>
      <point x="430" y="495"/>
      <point x="430" y="589" type="curve" smooth="yes"/>
      <point x="430" y="683"/>
      <point x="345" y="754"/>
      <point x="217" y="754" type="curve" smooth="yes"/>
      <point x="82" y="754"/>
      <point x="20" y="674"/>
      <point x="20" y="620" type="curve" smooth="yes"/>
      <point x="20" y="581"/>
      <point x="53" y="563"/>
      <point x="80" y="563" type="curve" smooth="yes"/>
      <point x="134" y="563"/>
      <point x="112" y="640"/>
      <point x="214" y="640" type="curve" smooth="yes"/>
      <point x="264" y="640"/>
      <point x="304" y="618"/>
      <point x="304" y="572" type="curve" smooth="yes"/>
      <point x="304" y="518"/>
      <point x="248" y="487"/>
      <point x="215" y="459" type="curve" smooth="yes"/>
      <point x="186" y="434"/>
      <point x="148" y="393"/>
      <point x="148" y="307" type="curve" smooth="yes"/>
      <point x="148" y="255"/>
      <point x="162" y="240"/>
    </contour>
    <contour>
      <point x="204" y="-6" type="curve" smooth="yes"/>
      <point x="247" y="-6"/>
      <point x="281" y="30"/>
      <point x="281" y="71" type="curve" smooth="yes"/>
      <point x="281" y="113"/>
      <point x="246" y="148"/>
      <point x="204" y="148" type="curve" smooth="yes"/>
      <point x="162" y="148"/>
      <point x="128" y="113"/>
      <point x="128" y="71" type="curve" smooth="yes"/>
      <point x="128" y="30"/>
      <point x="161" y="-6"/>
    </contour>
  </outline>
</glyph>
<glyph name="at" format="2">
  <advance width="753"/>
  <unicode hex="0040"/>
  <outline>
    <contour>
      <point x="341" y="-143" type="curve" smooth="yes"/>
      <point x="399" y="-143"/>
      <point x="525" y="-128"/>
      <point x="525" y="-79" type="curve" smooth="yes"/>
      <point x="525" y="-64"/>
      <point x="513" y="-35"/>
      <point x="488" y="-35" type="curve" smooth="yes"/>
      <point x="465" y="-35"/>
      <point x="437" y="-59"/>
      <point x="359" y="-59" type="curve" smooth="yes"/>
      <point x="182" y="-59"/>
      <point x="132" y="65"/>
      <point x="132" y="207" type="curve" smooth="yes"/>
      <point x="132" y="359"/>
      <point x="189" y="491"/>
      <point x="389" y="491" type="curve" smooth="yes"/>
      <point x="560" y="491"/>
      <point x="634" y="393"/>
      <point x="634" y="215" type="curve" smooth="yes"/>
      <point x="634" y="173"/>
      <point x="630" y="78"/>
      <point x="581" y="78" type="curve" smooth="yes"/>
      <point x="565" y="78"/>
      <point x="558" y="88"/>
      <point x="552" y="125" type="curve"/>
      <point x="552" y="296" type="line" smooth="yes"/>
      <point x="552" y="387"/>
      <point x="468" y="432"/>
      <point x="383" y="432" type="curve" smooth="yes"/>
      <point x="310" y="432"/>
      <point x="234" y="399"/>
      <point x="234" y="357" type="curve" smooth="yes"/>
      <point x="234" y="339"/>
      <point x="249" y="301"/>
      <point x="269" y="301" type="curve" smooth="yes"/>
      <point x="287" y="301"/>
      <point x="309" y="329"/>
      <point x="368" y="329" type="curve" smooth="yes"/>
      <point x="419" y="329"/>
      <point x="442" y="308"/>
      <point x="442" y="265" type="curve" smooth="yes"/>
      <point x="442" y="252" type="line"/>
      <point x="415" y="252" type="line" smooth="yes"/>
      <point x="301" y="252"/>
      <point x="212" y="220"/>
      <point x="212" y="125" type="curve" smooth="yes"/>
      <point x="212" y="44"/>
      <point x="276" y="7"/>
      <point x="340" y="7" type="curve" smooth="yes"/>
      <point x="393" y="7"/>
      <point x="438" y="32"/>
      <point x="473" y="67" type="curve"/>
      <point x="480" y="31"/>
      <point x="517" y="4"/>
      <point x="571" y="4" type="curve" smooth="yes"/>
      <point x="679" y="4"/>
      <point x="730" y="110"/>
      <point x="730" y="240" type="curve" smooth="yes"/>
      <point x="730" y="444"/>
      <point x="603" y="575"/>
      <point x="388" y="575" type="curve" smooth="yes"/>
      <point x="150" y="575"/>
      <point x="35" y="414"/>
      <point x="35" y="206" type="curve" smooth="yes"/>
      <point x="35" y="-29"/>
      <point x="182" y="-143"/>
    </contour>
    <contour>
      <point x="369" y="86" type="curve" smooth="yes"/>
      <point x="347" y="86"/>
      <point x="334" y="101"/>
      <point x="334" y="127" type="curve" smooth="yes"/>
      <point x="334" y="168"/>
      <point x="367" y="190"/>
      <point x="430" y="190" type="curve" smooth="yes"/>
      <point x="448" y="190" type="line"/>
      <point x="448" y="168" type="line" smooth="yes"/>
      <point x="448" y="126"/>
      <point x="405" y="86"/>
    </contour>
  </outline>
</glyph>
<glyph name="A" format="2">
  <advance width="602"/>
  <unicode hex="0041"/>
  <anchor x="301" y="0" name="bottom"/>
  <anchor x="598" y="0" name="ogonek"/>
  <anchor x="301" y="730" name="top"/>
  <outline>
    <contour>
      <point x="82" y="0" type="curve" smooth="yes"/>
      <point x="115" y="0"/>
      <point x="148" y="4"/>
      <point x="156" y="32" type="curve" smooth="yes"/>
      <point x="300" y="541" type="line"/>
      <point x="444" y="32" type="line" smooth="yes"/>
      <point x="452" y="4"/>
      <point x="486" y="0"/>
      <point x="520" y="0" type="curve" smooth="yes"/>
      <point x="577" y="0"/>
      <point x="598" y="11"/>
      <point x="598" y="41" type="curve" smooth="yes"/>
      <point x="598" y="56"/>
      <point x="593" y="76"/>
      <point x="585" y="102" type="curve" smooth="yes"/>
      <point x="402" y="684" type="line" smooth="yes"/>
      <point x="391" y="719"/>
      <point x="346" y="736"/>
      <point x="300" y="736" type="curve" smooth="yes"/>
      <point x="254" y="736"/>
      <point x="209" y="719"/>
      <point x="198" y="684" type="curve" smooth="yes"/>
      <point x="19" y="102" type="line" smooth="yes"/>
      <point x="11" y="76"/>
      <point x="6" y="56"/>
      <point x="6" y="41" type="curve" smooth="yes"/>
      <point x="6" y="12"/>
      <point x="24" y="0"/>
    </contour>
    <contour>
      <point x="175" y="154" type="line"/>
      <point x="426" y="154" type="line"/>
      <point x="393" y="274" type="line"/>
      <point x="207" y="274" type="line"/>
    </contour>
  </outline>
</glyph>
<glyph name="B" format="2">
  <advance width="566"/>
  <unicode hex="0042"/>
  <anchor x="283" y="0" name="bottom"/>
  <anchor x="283" y="730" name="top"/>
  <outline>
    <contour>
      <point x="122" y="0" type="curve" smooth="yes"/>
      <point x="341" y="0" type="line" smooth="yes"/>
      <point x="452" y="0"/>
      <point x="539" y="74"/>
      <point x="539" y="205" type="curve" smooth="yes"/>
      <point x="539" y="226" type="line" smooth="yes"/>
      <point x="539" y="324"/>
      <point x="502" y="360"/>
      <point x="447" y="382" type="curve"/>
      <point x="494" y="407"/>
      <point x="521" y="466"/>
      <point x="521" y="545" type="curve" smooth="yes"/>
      <point x="521" y="694"/>
      <point x="425" y="730"/>
      <point x="325" y="730" type="curve" smooth="yes"/>
      <point x="122" y="730" type="line" smooth="yes"/>
      <point x="88" y="730"/>
      <point x="54" y="714"/>
      <point x="54" y="682" type="curve" smooth="yes"/>
      <point x="54" y="47" type="line" smooth="yes"/>
      <point x="54" y="22"/>
      <point x="80" y="0"/>
    </contour>
    <contour>
      <point x="209" y="132" type="line"/>
      <point x="209" y="322" type="line"/>
      <point x="306" y="322" type="line" smooth="yes"/>
      <point x="354" y="322"/>
      <point x="383" y="298"/>
      <point x="383" y="230" type="curve" smooth="yes"/>
      <point x="383" y="214" type="line" smooth="yes"/>
      <point x="383" y="157"/>
      <point x="354" y="132"/>
      <point x="306" y="132" type="curve" smooth="yes"/>
    </contour>
    <contour>
      <point x="209" y="440" type="line"/>
      <point x="209" y="598" type="line"/>
      <point x="312" y="598" type="line" smooth="yes"/>
      <point x="348" y="598"/>
      <point x="365" y="562"/>
      <point x="365" y="523" type="curve" smooth="yes"/>
      <point x="365" y="483"/>
      <point x="347" y="440"/>
      <point x="312" y="440" type="curve" smooth="yes"/>
    </contour>
  </outline>
</glyph>
<glyph name="C" format="2">
  <advance width="562"/>
  <unicode hex="0043"/>
  <anchor x="281" y="0" name="bottom"/>
  <anchor x="281" y="730" name="top"/>
  <outline>
    <contour>
      <point x="286" y="-6" type="curve" smooth="yes"/>
      <point x="429" y="-6"/>
      <point x="537" y="70"/>
      <point x="537" y="203" type="curve" smooth="yes"/>
      <point x="537" y="263"/>
      <point x="512" y="277"/>
      <point x="458" y="277" type="curve" smooth="yes"/>
      <point x="418" y="277"/>
      <point x="384" y="267"/>
      <point x="381" y="230" type="curve" smooth="yes"/>
      <point x="378" y="191"/>
      <point x="373" y="130"/>
      <point x="293" y="130" type="curve" smooth="yes"/>
      <point x="235" y="130"/>
      <point x="202" y="162"/>
      <point x="202" y="230" type="curve" smooth="yes"/>
      <point x="202" y="500" type="line" smooth="yes"/>
      <point x="202" y="568"/>
      <point x="235" y="600"/>
      <point x="292" y="600" type="curve" smooth="yes"/>
      <point x="377" y="600"/>
      <point x="380" y="536"/>
      <point x="381" y="510" type="curve" smooth="yes"/>
      <point x="382" y="474"/>
      <point x="417" y="463"/>
      <point x="459" y="463" type="curve" smooth="yes"/>
      <point x="512" y="463"/>
      <point x="537" y="477"/>
      <point x="537" y="537" type="curve" smooth="yes"/>
      <point x="537" y="664"/>
      <point x="429" y="736"/>
      <point x="286" y="736" type="curve" smooth="yes"/>
      <point x="155" y="736"/>
      <point x="46" y="672"/>
      <point x="46" y="500" type="curve" smooth="yes"/>
      <point x="46" y="230" type="line" smooth="yes"/>
      <point x="46" y="58"/>
      <point x="155" y="-6"/>
    </contour>
  </outline>
</glyph>
<glyph name="D" format="2">
  <advance width="597"/>
  <unicode hex="0044"/>
  <anchor x="295" y="0" name="bottom"/>
  <anchor x="295" y="365" name="center"/>
  <anchor x="295" y="730" name="top"/>
  <outline>
    <contour>
      <point x="122" y="0" type="curve" smooth="yes"/>
      <point x="286" y="0" type="line" smooth="yes"/>
      <point x="435" y="0"/>
      <point x="552" y="69"/>
      <point x="552" y="256" type="curve" smooth="yes"/>
      <point x="552" y="454" type="line" smooth="yes"/>
      <point x="552" y="655"/>
      <point x="435" y="730"/>
      <point x="286" y="730" type="curve" smooth="yes"/>
      <point x="122" y="730" type="line" smooth="yes"/>
      <point x="81" y="730"/>
      <point x="54" y="708"/>
      <point x="54" y="683" type="curve" smooth="yes"/>
      <point x="54" y="47" type="line" smooth="yes"/>
      <point x="54" y="22"/>
      <point x="81" y="0"/>
    </contour>
    <contour>
      <point x="210" y="136" type="line"/>
      <point x="210" y="594" type="line"/>
      <point x="286" y="594" type="line" smooth="yes"/>
      <point x="354" y="594"/>
      <point x="396" y="549"/>
      <point x="396" y="454" type="curve" smooth="yes"/>
      <point x="396" y="256" type="line" smooth="yes"/>
      <point x="396" y="174"/>
      <point x="354" y="136"/>
      <point x="286" y="136" type="curve" smooth="yes"/>
    </contour>
  </outline>
</glyph>
<glyph name="E" format="2">
  <advance width="509"/>
  <unicode hex="0045"/>
  <anchor x="281" y="0" name="bottom"/>
  <anchor x="495" y="0" name="ogonek"/>
  <anchor x="267" y="730" name="top"/>
  <anchor x="20" y="730" name="topleft"/>
  <outline>
    <contour>
      <point x="122" y="0" type="curve" smooth="yes"/>
      <point x="449" y="0" type="line" smooth="yes"/>
      <point x="481" y="0"/>
      <point x="495" y="35"/>
      <point x="495" y="67" type="curve" smooth="yes"/>
      <point x="495" y="104"/>
      <point x="478" y="136"/>
      <point x="449" y="136" type="curve" smooth="yes"/>
      <point x="210" y="136" type="line"/>
      <point x="210" y="306" type="line"/>
      <point x="371" y="306" type="line" smooth="yes"/>
      <point x="404" y="306"/>
      <point x="417" y="338"/>
      <point x="417" y="365" type="curve" smooth="yes"/>
      <point x="417" y="397"/>
      <point x="401" y="426"/>
      <point x="371" y="426" type="curve" smooth="yes"/>
      <point x="210" y="426" type="line"/>
      <point x="210" y="594" type="line"/>
      <point x="449" y="594" type="line" smooth="yes"/>
      <point x="478" y="594"/>
      <point x="495" y="626"/>
      <point x="495" y="663" type="curve" smooth="yes"/>
      <point x="495" y="695"/>
      <point x="481" y="730"/>
      <point x="449" y="730" type="curve" smooth="yes"/>
      <point x="122" y="730" type="line" smooth="yes"/>
      <point x="88" y="730"/>
      <point x="54" y="714"/>
      <point x="54" y="682" type="curve" smooth="yes"/>
      <point x="54" y="48" type="line" smooth="yes"/>
      <point x="54" y="16"/>
      <point x="88" y="0"/>
    </contour>
  </outline>
</glyph>
<glyph name="F" format="2">
  <advance width="485"/>
  <unicode hex="0046"/>
  <anchor x="243" y="0" name="bottom"/>
  <anchor x="243" y="730" name="top"/>
  <outline>
    <contour>
      <point x="132" y="0" type="curve" smooth="yes"/>
      <point x="171" y="0"/>
      <point x="210" y="16"/>
      <point x="210" y="48" type="curve" smooth="yes"/>
      <point x="210" y="306" type="line"/>
      <point x="350" y="306" type="line" smooth="yes"/>
      <point x="382" y="306"/>
      <point x="396" y="338"/>
      <point x="396" y="365" type="curve" smooth="yes"/>
      <point x="396" y="397"/>
      <point x="379" y="426"/>
      <point x="350" y="426" type="curve" smooth="yes"/>
      <point x="210" y="426" type="line"/>
      <point x="210" y="594" type="line"/>
      <point x="440" y="594" type="line" smooth="yes"/>
      <point x="469" y="594"/>
      <point x="486" y="626"/>
      <point x="486" y="663" type="curve" smooth="yes"/>
      <point x="486" y="695"/>
      <point x="472" y="730"/>
      <point x="440" y="730" type="curve" smooth="yes"/>
      <point x="122" y="730" type="line" smooth="yes"/>
      <point x="88" y="730"/>
      <point x="54" y="714"/>
      <point x="54" y="682" type="curve" smooth="yes"/>
      <point x="54" y="48" type="line" smooth="yes"/>
      <point x="54" y="16"/>
      <point x="93" y="0"/>
    </contour>
  </outline>
</glyph>
<glyph name="G" format="2">
  <advance width="587"/>
  <unicode hex="0047"/>
  <anchor x="294" y="0" name="bottom"/>
  <anchor x="294" y="730" name="top"/>
  <outline>
    <contour>
      <point x="298" y="-6" type="curve" smooth="yes"/>
      <point x="440" y="-6"/>
      <point x="551" y="58"/>
      <point x="551" y="230" type="curve" smooth="yes"/>
      <point x="551" y="335" type="line" smooth="yes"/>
      <point x="551" y="361"/>
      <point x="534" y="384"/>
      <point x="504" y="384" type="curve" smooth="yes"/>
      <point x="329" y="384" type="line" smooth="yes"/>
      <point x="298" y="384"/>
      <point x="281" y="353"/>
      <point x="281" y="324" type="curve" smooth="yes"/>
      <point x="281" y="293"/>
      <point x="298" y="264"/>
      <point x="329" y="264" type="curve" smooth="yes"/>
      <point x="395" y="264" type="line"/>
      <point x="395" y="230" type="line" smooth="yes"/>
      <point x="395" y="162"/>
      <point x="358" y="130"/>
      <point x="298" y="130" type="curve" smooth="yes"/>
      <point x="238" y="130"/>
      <point x="202" y="162"/>
      <point x="202" y="230" type="curve" smooth="yes"/>
      <point x="202" y="500" type="line" smooth="yes"/>
      <point x="202" y="568"/>
      <point x="238" y="600"/>
      <point x="300" y="600" type="curve" smooth="yes"/>
      <point x="388" y="600"/>
      <point x="394" y="546"/>
      <point x="395" y="510" type="curve" smooth="yes"/>
      <point x="396" y="474"/>
      <point x="431" y="463"/>
      <point x="473" y="463" type="curve" smooth="yes"/>
      <point x="526" y="463"/>
      <point x="551" y="477"/>
      <point x="551" y="537" type="curve" smooth="yes"/>
      <point x="551" y="664"/>
      <point x="441" y="736"/>
      <point x="294" y="736" type="curve" smooth="yes"/>
      <point x="158" y="736"/>
      <point x="46" y="672"/>
      <point x="46" y="500" type="curve" smooth="yes"/>
      <point x="46" y="230" type="line" smooth="yes"/>
      <point x="46" y="58"/>
      <point x="156" y="-6"/>
    </contour>
  </outline>
</glyph>
<glyph name="H" format="2">
  <advance width="631"/>
  <unicode hex="0048"/>
  <anchor x="316" y="0" name="bottom"/>
  <anchor x="316" y="365" name="center"/>
  <anchor x="316" y="730" name="top"/>
  <anchor x="20" y="730" name="topleft"/>
  <outline>
    <contour>
      <point x="132" y="0" type="curve" smooth="yes"/>
      <point x="171" y="0"/>
      <point x="210" y="16"/>
      <point x="210" y="48" type="curve" smooth="yes"/>
      <point x="210" y="319" type="line"/>
      <point x="421" y="319" type="line"/>
      <point x="421" y="48" type="line" smooth="yes"/>
      <point x="421" y="16"/>
      <point x="460" y="0"/>
      <point x="499" y="0" type="curve" smooth="yes"/>
      <point x="538" y="0"/>
      <point x="577" y="16"/>
      <point x="577" y="48" type="curve" smooth="yes"/>
      <point x="577" y="683" type="line" smooth="yes"/>
      <point x="577" y="716"/>
      <point x="538" y="730"/>
      <point x="499" y="730" type="curve" smooth="yes"/>
      <point x="460" y="730"/>
      <point x="421" y="716"/>
      <point x="421" y="683" type="curve" smooth="yes"/>
      <point x="421" y="439" type="line"/>
      <point x="210" y="439" type="line"/>
      <point x="210" y="683" type="line" smooth="yes"/>
      <point x="210" y="716"/>
      <point x="171" y="730"/>
      <point x="132" y="730" type="curve" smooth="yes"/>
      <point x="93" y="730"/>
      <point x="54" y="716"/>
      <point x="54" y="683" type="curve" smooth="yes"/>
      <point x="54" y="48" type="line" smooth="yes"/>
      <point x="54" y="16"/>
      <point x="93" y="0"/>
    </contour>
  </outline>
</glyph>
<glyph name="J" format="2">
  <advance width="528"/>
  <unicode hex="004A"/>
  <anchor x="264" y="0" name="bottom"/>
  <anchor x="264" y="730" name="top"/>
  <outline>
    <contour>
      <point x="247" y="-6" type="curve" smooth="yes"/>
      <point x="372" y="-6"/>
      <point x="477" y="58"/>
      <point x="477" y="230" type="curve" smooth="yes"/>
      <point x="477" y="682" type="line" smooth="yes"/>
      <point x="477" y="714"/>
      <point x="443" y="730"/>
      <point x="409" y="730" type="curve" smooth="yes"/>
      <point x="243" y="730" type="line" smooth="yes"/>
      <point x="205" y="730"/>
      <point x="189" y="698"/>
      <point x="189" y="663" type="curve" smooth="yes"/>
      <point x="189" y="623"/>
      <point x="209" y="594"/>
      <point x="243" y="594" type="curve" smooth="yes"/>
      <point x="321" y="594" type="line"/>
      <point x="321" y="230" type="line" smooth="yes"/>
      <point x="321" y="162"/>
      <point x="292" y="130"/>
      <point x="240" y="130" type="curve" smooth="yes"/>
      <point x="165" y="130"/>
      <point x="165" y="191"/>
      <point x="162" y="230" type="curve" smooth="yes"/>
      <point x="159" y="267"/>
      <point x="125" y="277"/>
      <point x="85" y="277" type="curve" smooth="yes"/>
      <point x="31" y="277"/>
      <point x="6" y="263"/>
      <point x="6" y="203" type="curve" smooth="yes"/>
      <point x="6" y="70"/>
      <point x="111" y="-6"/>
    </contour>
  </outline>
</glyph>
<glyph name="K" format="2">
  <advance width="568"/>
  <unicode hex="004B"/>
  <guideline x="126" y="486" angle="0"/>
  <guideline x="126" y="243" angle="0"/>
  <anchor x="284" y="0" name="bottom"/>
  <anchor x="284" y="730" name="top"/>
  <outline>
    <contour>
      <point x="205" y="220" type="line"/>
      <point x="515" y="634" type="line" smooth="yes"/>
      <point x="529" y="653"/>
      <point x="536" y="667"/>
      <point x="536" y="682" type="curve" smooth="yes"/>
      <point x="536" y="711"/>
      <point x="505" y="730"/>
      <point x="463" y="730" type="curve" smooth="yes"/>
      <point x="430" y="730"/>
      <point x="394" y="716"/>
      <point x="376" y="691" type="curve" smooth="yes"/>
      <point x="112" y="320" type="line"/>
    </contour>
    <contour>
      <point x="132" y="0" type="curve" smooth="yes"/>
      <point x="171" y="0"/>
      <point x="210" y="16"/>
      <point x="210" y="48" type="curve" smooth="yes"/>
      <point x="210" y="683" type="line" smooth="yes"/>
      <point x="210" y="716"/>
      <point x="171" y="730"/>
      <point x="132" y="730" type="curve" smooth="yes"/>
      <point x="93" y="730"/>
      <point x="54" y="716"/>
      <point x="54" y="683" type="curve" smooth="yes"/>
      <point x="54" y="48" type="line" smooth="yes"/>
      <point x="54" y="16"/>
      <point x="93" y="0"/>
    </contour>
    <contour>
      <point x="500" y="0" type="curve" smooth="yes"/>
      <point x="539" y="0"/>
      <point x="574" y="18"/>
      <point x="574" y="55" type="curve" smooth="yes"/>
      <point x="574" y="69"/>
      <point x="566" y="83"/>
      <point x="556" y="98" type="curve" smooth="yes"/>
      <point x="326" y="429" type="line"/>
      <point x="196" y="366" type="line"/>
      <point x="411" y="38" type="line" smooth="yes"/>
      <point x="429" y="11"/>
      <point x="467" y="0"/>
    </contour>
  </outline>
</glyph>
<glyph name="L" format="2">
  <advance width="462"/>
  <unicode hex="004C"/>
  <anchor x="231" y="0" name="bottom"/>
  <anchor x="336" y="392" name="center"/>
  <anchor x="231" y="730" name="top"/>
  <anchor x="442" y="730" name="topright"/>
  <outline>
    <contour>
      <point x="122" y="0" type="curve" smooth="yes"/>
      <point x="409" y="0" type="line" smooth="yes"/>
      <point x="438" y="0"/>
      <point x="453" y="34"/>
      <point x="453" y="68" type="curve" smooth="yes"/>
      <point x="453" y="102"/>
      <point x="438" y="136"/>
      <point x="409" y="136" type="curve" smooth="yes"/>
      <point x="210" y="136" type="line"/>
      <point x="210" y="683" type="line" smooth="yes"/>
      <point x="210" y="716"/>
      <point x="171" y="730"/>
      <point x="132" y="730" type="curve" smooth="yes"/>
      <point x="93" y="730"/>
      <point x="54" y="716"/>
      <point x="54" y="683" type="curve" smooth="yes"/>
      <point x="54" y="48" type="line" smooth="yes"/>
      <point x="54" y="16"/>
      <point x="88" y="0"/>
    </contour>
  </outline>
</glyph>
<glyph name="M" format="2">
  <advance width="722"/>
  <unicode hex="004D"/>
  <anchor x="361" y="0" name="bottom"/>
  <anchor x="361" y="730" name="top"/>
  <outline>
    <contour>
      <point x="132" y="0" type="curve" smooth="yes"/>
      <point x="171" y="0"/>
      <point x="210" y="16"/>
      <point x="210" y="48" type="curve" smooth="yes"/>
      <point x="210" y="432" type="line"/>
      <point x="310" y="258" type="line" smooth="yes"/>
      <point x="325" y="231"/>
      <point x="341" y="222"/>
      <point x="359" y="222" type="curve" smooth="yes"/>
      <point x="378" y="222"/>
      <point x="394" y="230"/>
      <point x="411" y="258" type="curve" smooth="yes"/>
      <point x="512" y="422" type="line"/>
      <point x="512" y="48" type="line" smooth="yes"/>
      <point x="512" y="16"/>
      <point x="551" y="0"/>
      <point x="590" y="0" type="curve" smooth="yes"/>
      <point x="629" y="0"/>
      <point x="668" y="16"/>
      <point x="668" y="48" type="curve" smooth="yes"/>
      <point x="668" y="652" type="line" smooth="yes"/>
      <point x="668" y="709"/>
      <point x="630" y="730"/>
      <point x="590" y="730" type="curve" smooth="yes"/>
      <point x="537" y="730"/>
      <point x="513" y="725"/>
      <point x="473" y="653" type="curve" smooth="yes"/>
      <point x="361" y="452" type="line"/>
      <point x="250" y="653" type="line" smooth="yes"/>
      <point x="210" y="725"/>
      <point x="185" y="730"/>
      <point x="132" y="730" type="curve" smooth="yes"/>
      <point x="93" y="730"/>
      <point x="54" y="709"/>
      <point x="54" y="652" type="curve" smooth="yes"/>
      <point x="54" y="48" type="line" smooth="yes"/>
      <point x="54" y="16"/>
      <point x="93" y="0"/>
    </contour>
  </outline>
</glyph>
<glyph name="N" format="2">
  <advance width="633"/>
  <unicode hex="004E"/>
  <anchor x="317" y="0" name="bottom"/>
  <anchor x="317" y="730" name="top"/>
  <outline>
    <contour>
      <point x="132" y="0" type="curve" smooth="yes"/>
      <point x="171" y="0"/>
      <point x="210" y="16"/>
      <point x="210" y="48" type="curve" smooth="yes"/>
      <point x="210" y="367" type="line"/>
      <point x="424" y="50" type="line" smooth="yes"/>
      <point x="447" y="16"/>
      <point x="482" y="0"/>
      <point x="514" y="0" type="curve" smooth="yes"/>
      <point x="552" y="0"/>
      <point x="579" y="24"/>
      <point x="579" y="57" type="curve" smooth="yes"/>
      <point x="579" y="683" type="line" smooth="yes"/>
      <point x="579" y="716"/>
      <point x="540" y="730"/>
      <point x="501" y="730" type="curve" smooth="yes"/>
      <point x="462" y="730"/>
      <point x="423" y="716"/>
      <point x="423" y="683" type="curve" smooth="yes"/>
      <point x="423" y="328" type="line"/>
      <point x="225" y="653" type="line" smooth="yes"/>
      <point x="184" y="721"/>
      <point x="161" y="730"/>
      <point x="123" y="730" type="curve" smooth="yes"/>
      <point x="82" y="730"/>
      <point x="54" y="718"/>
      <point x="54" y="674" type="curve" smooth="yes"/>
      <point x="54" y="48" type="line" smooth="yes"/>
      <point x="54" y="16"/>
      <point x="93" y="0"/>
    </contour>
  </outline>
</glyph>
<glyph name="O" format="2">
  <advance width="597"/>
  <unicode hex="004F"/>
  <anchor x="298" y="0" name="bottom"/>
  <anchor x="298" y="365" name="center"/>
  <anchor x="375" y="0" name="ogonek"/>
  <anchor x="298" y="730" name="top"/>
  <anchor x="20" y="730" name="topleft"/>
  <anchor x="577" y="730" name="topright"/>
  <outline>
    <contour>
      <point x="298" y="-6" type="curve" smooth="yes"/>
      <point x="440" y="-6"/>
      <point x="551" y="58"/>
      <point x="551" y="230" type="curve" smooth="yes"/>
      <point x="551" y="500" type="line" smooth="yes"/>
      <point x="551" y="672"/>
      <point x="440" y="736"/>
      <point x="298" y="736" type="curve" smooth="yes"/>
      <point x="156" y="736"/>
      <point x="46" y="672"/>
      <point x="46" y="500" type="curve" smooth="yes"/>
      <point x="46" y="230" type="line" smooth="yes"/>
      <point x="46" y="58"/>
      <point x="156" y="-6"/>
    </contour>
    <contour>
      <point x="298" y="130" type="curve" smooth="yes"/>
      <point x="238" y="130"/>
      <point x="202" y="161"/>
      <point x="202" y="230" type="curve" smooth="yes"/>
      <point x="202" y="500" type="line" smooth="yes"/>
      <point x="202" y="569"/>
      <point x="238" y="600"/>
      <point x="298" y="600" type="curve" smooth="yes"/>
      <point x="358" y="600"/>
      <point x="395" y="569"/>
      <point x="395" y="500" type="curve" smooth="yes"/>
      <point x="395" y="230" type="line" smooth="yes"/>
      <point x="395" y="161"/>
      <point x="358" y="130"/>
    </contour>
  </outline>
</glyph>
<glyph name="P" format="2">
  <advance width="559"/>
  <unicode hex="0050"/>
  <anchor x="280" y="0" name="bottom"/>
  <anchor x="280" y="730" name="top"/>
  <outline>
    <contour>
      <point x="132" y="0" type="curve" smooth="yes"/>
      <point x="171" y="0"/>
      <point x="210" y="16"/>
      <point x="210" y="48" type="curve" smooth="yes"/>
      <point x="210" y="263" type="line"/>
      <point x="304" y="263" type="line" smooth="yes"/>
      <point x="439" y="263"/>
      <point x="545" y="327"/>
      <point x="545" y="495" type="curve" smooth="yes"/>
      <point x="545" y="500" type="line" smooth="yes"/>
      <point x="545" y="668"/>
      <point x="443" y="730"/>
      <point x="314" y="730" type="curve" smooth="yes"/>
      <point x="112" y="730" type="line" smooth="yes"/>
      <point x="77" y="730"/>
      <point x="54" y="708"/>
      <point x="54" y="683" type="curve" smooth="yes"/>
      <point x="54" y="48" type="line" smooth="yes"/>
      <point x="54" y="16"/>
      <point x="93" y="0"/>
    </contour>
    <contour>
      <point x="210" y="383" type="line"/>
      <point x="210" y="594" type="line"/>
      <point x="304" y="594" type="line" smooth="yes"/>
      <point x="357" y="594"/>
      <point x="389" y="562"/>
      <point x="389" y="494" type="curve" smooth="yes"/>
      <point x="389" y="483" type="line" smooth="yes"/>
      <point x="389" y="415"/>
      <point x="357" y="383"/>
      <point x="304" y="383" type="curve" smooth="yes"/>
    </contour>
  </outline>
</glyph>
<glyph name="Q" format="2">
  <advance width="597"/>
  <unicode hex="0051"/>
  <anchor x="299" y="0" name="bottom"/>
  <anchor x="299" y="730" name="top"/>
  <outline>
    <contour>
      <point x="298" y="-109" type="curve" smooth="yes"/>
      <point x="325" y="-109"/>
      <point x="351" y="-93"/>
      <point x="351" y="-61" type="curve" smooth="yes"/>
      <point x="351" y="184" type="line" smooth="yes"/>
      <point x="351" y="217"/>
      <point x="325" y="231"/>
      <point x="298" y="231" type="curve" smooth="yes"/>
      <point x="272" y="231"/>
      <point x="245" y="217"/>
      <point x="245" y="184" type="curve" smooth="yes"/>
      <point x="245" y="-61" type="line" smooth="yes"/>
      <point x="245" y="-93"/>
      <point x="272" y="-109"/>
    </contour>
    <component base="O"/>
  </outline>
</glyph>
<glyph name="R" format="2">
  <advance width="574"/>
  <unicode hex="0052"/>
  <anchor x="287" y="0" name="bottom"/>
  <anchor x="287" y="730" name="top"/>
  <outline>
    <contour>
      <point x="132" y="0" type="curve" smooth="yes"/>
      <point x="171" y="0"/>
      <point x="210" y="16"/>
      <point x="210" y="48" type="curve" smooth="yes"/>
      <point x="210" y="289" type="line"/>
      <point x="328" y="289" type="line" smooth="yes"/>
      <point x="447" y="289"/>
      <point x="545" y="366"/>
      <point x="545" y="519" type="curve" smooth="yes"/>
      <point x="545" y="678"/>
      <point x="439" y="730"/>
      <point x="304" y="730" type="curve" smooth="yes"/>
      <point x="102" y="730" type="line" smooth="yes"/>
      <point x="73" y="730"/>
      <point x="54" y="708"/>
      <point x="54" y="683" type="curve" smooth="yes"/>
      <point x="54" y="48" type="line" smooth="yes"/>
      <point x="54" y="16"/>
      <point x="93" y="0"/>
    </contour>
    <contour>
      <point x="487" y="0" type="curve" smooth="yes"/>
      <point x="530" y="0"/>
      <point x="561" y="19"/>
      <point x="561" y="48" type="curve" smooth="yes"/>
      <point x="561" y="63"/>
      <point x="553" y="78"/>
      <point x="540" y="96" type="curve" smooth="yes"/>
      <point x="367" y="347" type="line"/>
      <point x="229" y="305" type="line"/>
      <point x="399" y="39" type="line" smooth="yes"/>
      <point x="416" y="12"/>
      <point x="453" y="0"/>
    </contour>
    <contour>
      <point x="210" y="408" type="line"/>
      <point x="210" y="594" type="line"/>
      <point x="304" y="594" type="line" smooth="yes"/>
      <point x="357" y="594"/>
      <point x="389" y="571"/>
      <point x="389" y="501" type="curve" smooth="yes"/>
      <point x="389" y="431"/>
      <point x="357" y="408"/>
      <point x="304" y="408" type="curve" smooth="yes"/>
    </contour>
  </outline>
</glyph>
<glyph name="S" format="2">
  <advance width="493"/>
  <unicode hex="0053"/>
  <anchor x="247" y="0" name="bottom"/>
  <anchor x="247" y="730" name="top"/>
  <outline>
    <contour>
      <point x="243" y="-6" type="curve" smooth="yes"/>
      <point x="383" y="-6"/>
      <point x="470" y="81"/>
      <point x="470" y="216" type="curve" smooth="yes"/>
      <point x="470" y="459"/>
      <point x="190" y="432"/>
      <point x="190" y="542" type="curve" smooth="yes"/>
      <point x="190" y="570"/>
      <point x="209" y="603"/>
      <point x="271" y="603" type="curve" smooth="yes"/>
      <point x="338" y="603"/>
      <point x="367" y="564"/>
      <point x="399" y="564" type="curve" smooth="yes"/>
      <point x="434" y="564"/>
      <point x="455" y="608"/>
      <point x="455" y="640" type="curve" smooth="yes"/>
      <point x="455" y="720"/>
      <point x="320" y="737"/>
      <point x="262" y="737" type="curve" smooth="yes"/>
      <point x="156" y="737"/>
      <point x="34" y="679"/>
      <point x="34" y="530" type="curve" smooth="yes"/>
      <point x="34" y="304"/>
      <point x="314" y="345"/>
      <point x="314" y="202" type="curve" smooth="yes"/>
      <point x="314" y="148"/>
      <point x="273" y="128"/>
      <point x="234" y="128" type="curve" smooth="yes"/>
      <point x="162" y="128"/>
      <point x="117" y="193"/>
      <point x="76" y="193" type="curve" smooth="yes"/>
      <point x="40" y="193"/>
      <point x="19" y="145"/>
      <point x="19" y="117" type="curve" smooth="yes"/>
      <point x="19" y="51"/>
      <point x="130" y="-6"/>
    </contour>
  </outline>
</glyph>
<glyph name="T" format="2">
  <advance width="542"/>
  <unicode hex="0054"/>
  <anchor x="271" y="0" name="bottom"/>
  <anchor x="271" y="365" name="center"/>
  <anchor x="271" y="730" name="top"/>
  <outline>
    <contour>
      <point x="271" y="0" type="curve" smooth="yes"/>
      <point x="310" y="0"/>
      <point x="349" y="16"/>
      <point x="349" y="48" type="curve" smooth="yes"/>
      <point x="349" y="590" type="line"/>
      <point x="487" y="590" type="line" smooth="yes"/>
      <point x="517" y="590"/>
      <point x="534" y="623"/>
      <point x="534" y="661" type="curve" smooth="yes"/>
      <point x="534" y="694"/>
      <point x="520" y="730"/>
      <point x="487" y="730" type="curve" smooth="yes"/>
      <point x="55" y="730" type="line" smooth="yes"/>
      <point x="22" y="730"/>
      <point x="8" y="694"/>
      <point x="8" y="661" type="curve" smooth="yes"/>
      <point x="8" y="623"/>
      <point x="25" y="590"/>
      <point x="55" y="590" type="curve" smooth="yes"/>
      <point x="193" y="590" type="line"/>
      <point x="193" y="48" type="line" smooth="yes"/>
      <point x="193" y="16"/>
      <point x="232" y="0"/>
    </contour>
  </outline>
</glyph>
<glyph name="U" format="2">
  <advance width="620"/>
  <unicode hex="0055"/>
  <anchor x="310" y="0" name="bottom"/>
  <anchor x="388" y="0" name="ogonek"/>
  <anchor x="310" y="730" name="top"/>
  <anchor x="600" y="730" name="topright"/>
  <outline>
    <contour>
      <point x="310" y="-6" type="curve" smooth="yes"/>
      <point x="455" y="-6"/>
      <point x="569" y="58"/>
      <point x="569" y="230" type="curve" smooth="yes"/>
      <point x="569" y="683" type="line" smooth="yes"/>
      <point x="569" y="716"/>
      <point x="529" y="730"/>
      <point x="491" y="730" type="curve" smooth="yes"/>
      <point x="451" y="730"/>
      <point x="413" y="716"/>
      <point x="413" y="683" type="curve" smooth="yes"/>
      <point x="413" y="230" type="line" smooth="yes"/>
      <point x="413" y="162"/>
      <point x="374" y="130"/>
      <point x="310" y="130" type="curve" smooth="yes"/>
      <point x="246" y="130"/>
      <point x="207" y="162"/>
      <point x="207" y="230" type="curve" smooth="yes"/>
      <point x="207" y="683" type="line" smooth="yes"/>
      <point x="207" y="716"/>
      <point x="167" y="730"/>
      <point x="129" y="730" type="curve" smooth="yes"/>
      <point x="89" y="730"/>
      <point x="51" y="716"/>
      <point x="51" y="683" type="curve" smooth="yes"/>
      <point x="51" y="230" type="line" smooth="yes"/>
      <point x="51" y="58"/>
      <point x="164" y="-6"/>
    </contour>
  </outline>
</glyph>
<glyph name="V" format="2">
  <advance width="591"/>
  <unicode hex="0056"/>
  <anchor x="296" y="0" name="bottom"/>
  <anchor x="296" y="730" name="top"/>
  <outline>
    <contour>
      <point x="296" y="-6" type="curve" smooth="yes"/>
      <point x="342" y="-6"/>
      <point x="388" y="11"/>
      <point x="398" y="46" type="curve" smooth="yes"/>
      <point x="572" y="628" type="line" smooth="yes"/>
      <point x="580" y="654"/>
      <point x="585" y="674"/>
      <point x="585" y="689" type="curve" smooth="yes"/>
      <point x="585" y="718"/>
      <point x="567" y="730"/>
      <point x="509" y="730" type="curve" smooth="yes"/>
      <point x="476" y="730"/>
      <point x="443" y="726"/>
      <point x="435" y="698" type="curve" smooth="yes"/>
      <point x="296" y="189" type="line"/>
      <point x="157" y="698" type="line" smooth="yes"/>
      <point x="149" y="726"/>
      <point x="115" y="730"/>
      <point x="81" y="730" type="curve" smooth="yes"/>
      <point x="24" y="730"/>
      <point x="3" y="719"/>
      <point x="3" y="689" type="curve" smooth="yes"/>
      <point x="3" y="674"/>
      <point x="8" y="654"/>
      <point x="16" y="628" type="curve" smooth="yes"/>
      <point x="194" y="46" type="line"/>
      <point x="205" y="11"/>
      <point x="250" y="-6"/>
    </contour>
  </outline>
</glyph>
<glyph name="W" format="2">
  <advance width="884"/>
  <unicode hex="0057"/>
  <anchor x="442" y="0" name="bottom"/>
  <anchor x="442" y="730" name="top"/>
  <outline>
    <contour>
      <point x="248" y="-6" type="curve" smooth="yes"/>
      <point x="295" y="-6"/>
      <point x="342" y="11"/>
      <point x="352" y="47" type="curve" smooth="yes"/>
      <point x="442" y="379" type="line"/>
      <point x="531" y="47" type="line" smooth="yes"/>
      <point x="541" y="11"/>
      <point x="589" y="-6"/>
      <point x="636" y="-6" type="curve" smooth="yes"/>
      <point x="683" y="-6"/>
      <point x="732" y="12"/>
      <point x="739" y="48" type="curve"/>
      <point x="869" y="631" type="line" smooth="yes"/>
      <point x="875" y="656"/>
      <point x="880" y="676"/>
      <point x="880" y="691" type="curve" smooth="yes"/>
      <point x="880" y="724"/>
      <point x="852" y="731"/>
      <point x="796" y="731" type="curve" smooth="yes"/>
      <point x="759" y="731"/>
      <point x="731" y="728"/>
      <point x="724" y="693" type="curve" smooth="yes"/>
      <point x="633" y="228" type="line"/>
      <point x="517" y="656" type="line" smooth="yes"/>
      <point x="509" y="684"/>
      <point x="477" y="698"/>
      <point x="441" y="698" type="curve" smooth="yes"/>
      <point x="407" y="698"/>
      <point x="372" y="683"/>
      <point x="365" y="656" type="curve" smooth="yes"/>
      <point x="251" y="227" type="line"/>
      <point x="156" y="698" type="line" smooth="yes"/>
      <point x="150" y="726"/>
      <point x="116" y="730"/>
      <point x="81" y="730" type="curve" smooth="yes"/>
      <point x="26" y="730"/>
      <point x="3" y="719"/>
      <point x="3" y="689" type="curve" smooth="yes"/>
      <point x="3" y="676"/>
      <point x="6" y="655"/>
      <point x="12" y="630" type="curve" smooth="yes"/>
      <point x="144" y="47" type="line" smooth="yes"/>
      <point x="152" y="11"/>
      <point x="201" y="-6"/>
    </contour>
  </outline>
</glyph>
<glyph name="X" format="2">
  <advance width="574"/>
  <unicode hex="0058"/>
  <anchor x="287" y="0" name="bottom"/>
  <anchor x="287" y="730" name="top"/>
  <outline>
    <contour>
      <point x="79" y="0" type="curve" smooth="yes"/>
      <point x="109" y="0"/>
      <point x="150" y="5"/>
      <point x="165" y="32" type="curve" smooth="yes"/>
      <point x="289" y="259" type="line"/>
      <point x="414" y="32" type="line" smooth="yes"/>
      <point x="428" y="6"/>
      <point x="455" y="0"/>
      <point x="490" y="0" type="curve" smooth="yes"/>
      <point x="545" y="0"/>
      <point x="571" y="15"/>
      <point x="571" y="46" type="curve" smooth="yes"/>
      <point x="571" y="59"/>
      <point x="567" y="78"/>
      <point x="553" y="101" type="curve" smooth="yes"/>
      <point x="393" y="366" type="line"/>
      <point x="548" y="629" type="line" smooth="yes"/>
      <point x="561" y="652"/>
      <point x="569" y="672"/>
      <point x="569" y="687" type="curve" smooth="yes"/>
      <point x="569" y="711"/>
      <point x="551" y="730"/>
      <point x="494" y="730" type="curve" smooth="yes"/>
      <point x="464" y="730"/>
      <point x="422" y="725"/>
      <point x="408" y="698" type="curve" smooth="yes"/>
      <point x="289" y="478" type="line"/>
      <point x="172" y="698" type="line" smooth="yes"/>
      <point x="158" y="724"/>
      <point x="131" y="730"/>
      <point x="96" y="730" type="curve" smooth="yes"/>
      <point x="38" y="730"/>
      <point x="13" y="715"/>
      <point x="13" y="683" type="curve" smooth="yes"/>
      <point x="13" y="672"/>
      <point x="16" y="652"/>
      <point x="30" y="629" type="curve" smooth="yes"/>
      <point x="186" y="366" type="line"/>
      <point x="24" y="101" type="line" smooth="yes"/>
      <point x="10" y="78"/>
      <point x="3" y="58"/>
      <point x="3" y="44" type="curve" smooth="yes"/>
      <point x="3" y="21"/>
      <point x="19" y="0"/>
    </contour>
  </outline>
</glyph>
<glyph name="Y" format="2">
  <advance width="590"/>
  <unicode hex="0059"/>
  <anchor x="295" y="0" name="bottom"/>
  <anchor x="295" y="730" name="top"/>
  <anchor x="20" y="730" name="topleft"/>
  <outline>
    <contour>
      <point x="295" y="0" type="curve" smooth="yes"/>
      <point x="334" y="0"/>
      <point x="373" y="16"/>
      <point x="373" y="48" type="curve" smooth="yes"/>
      <point x="373" y="294" type="line" smooth="yes"/>
      <point x="373" y="300"/>
      <point x="375" y="305"/>
      <point x="377" y="308" type="curve" smooth="yes"/>
      <point x="560" y="623" type="line" smooth="yes"/>
      <point x="576" y="651"/>
      <point x="590" y="675"/>
      <point x="590" y="692" type="curve" smooth="yes"/>
      <point x="590" y="716"/>
      <point x="549" y="730"/>
      <point x="509" y="730" type="curve" smooth="yes"/>
      <point x="478" y="730"/>
      <point x="448" y="722"/>
      <point x="438" y="703" type="curve" smooth="yes"/>
      <point x="295" y="440" type="line"/>
      <point x="153" y="702" type="line" smooth="yes"/>
      <point x="143" y="721"/>
      <point x="113" y="730"/>
      <point x="83" y="730" type="curve" smooth="yes"/>
      <point x="43" y="730"/>
      <point x="3" y="714"/>
      <point x="3" y="686" type="curve" smooth="yes"/>
      <point x="3" y="670"/>
      <point x="11" y="649"/>
      <point x="27" y="623" type="curve" smooth="yes"/>
      <point x="213" y="308" type="line" smooth="yes"/>
      <point x="215" y="305"/>
      <point x="217" y="300"/>
      <point x="217" y="294" type="curve" smooth="yes"/>
      <point x="217" y="48" type="line" smooth="yes"/>
      <point x="217" y="16"/>
      <point x="256" y="0"/>
    </contour>
  </outline>
</glyph>
<glyph name="Z" format="2">
  <advance width="536"/>
  <unicode hex="005A"/>
  <anchor x="268" y="0" name="bottom"/>
  <anchor x="268" y="730" name="top"/>
  <outline>
    <contour>
      <point x="74" y="0" type="curve" smooth="yes"/>
      <point x="480" y="0" type="line" smooth="yes"/>
      <point x="510" y="0"/>
      <point x="527" y="36"/>
      <point x="527" y="68" type="curve" smooth="yes"/>
      <point x="527" y="100"/>
      <point x="510" y="136"/>
      <point x="480" y="136" type="curve" smooth="yes"/>
      <point x="206" y="136" type="line"/>
      <point x="469" y="594" type="line" smooth="yes"/>
      <point x="485" y="621"/>
      <point x="503" y="654"/>
      <point x="503" y="679" type="curve" smooth="yes"/>
      <point x="503" y="708"/>
      <point x="479" y="730"/>
      <point x="429" y="730" type="curve" smooth="yes"/>
      <point x="76" y="730" type="line" smooth="yes"/>
      <point x="43" y="730"/>
      <point x="29" y="695"/>
      <point x="29" y="662" type="curve" smooth="yes"/>
      <point x="29" y="626"/>
      <point x="46" y="594"/>
      <point x="76" y="594" type="curve" smooth="yes"/>
      <point x="310" y="594" type="line"/>
      <point x="42" y="125" type="line" smooth="yes"/>
      <point x="26" y="97"/>
      <point x="14" y="74"/>
      <point x="14" y="49" type="curve" smooth="yes"/>
      <point x="14" y="7"/>
      <point x="46" y="0"/>
    </contour>
  </outline>
</glyph>
<glyph name="bracketleft" format="2">
  <advance width="355"/>
  <unicode hex="005B"/>
  <outline>
    <contour>
      <point x="118" y="-80" type="curve" smooth="yes"/>
      <point x="294" y="-80" type="line" smooth="yes"/>
      <point x="327" y="-80"/>
      <point x="341" y="-45"/>
      <point x="341" y="-13" type="curve" smooth="yes"/>
      <point x="341" y="24"/>
      <point x="324" y="56"/>
      <point x="294" y="56" type="curve" smooth="yes"/>
      <point x="206" y="56" type="line"/>
      <point x="206" y="632" type="line"/>
      <point x="294" y="632" type="line" smooth="yes"/>
      <point x="324" y="632"/>
      <point x="341" y="664"/>
      <point x="341" y="701" type="curve" smooth="yes"/>
      <point x="341" y="733"/>
      <point x="327" y="768"/>
      <point x="294" y="768" type="curve" smooth="yes"/>
      <point x="118" y="768" type="line" smooth="yes"/>
      <point x="84" y="768"/>
      <point x="50" y="752"/>
      <point x="50" y="720" type="curve" smooth="yes"/>
      <point x="50" y="-32" type="line" smooth="yes"/>
      <point x="50" y="-64"/>
      <point x="84" y="-80"/>
    </contour>
  </outline>
</glyph>
<glyph name="backslash" format="2">
  <advance width="382"/>
  <unicode hex="005C"/>
  <outline>
    <contour>
      <point x="307" y="-1" type="curve" smooth="yes"/>
      <point x="337" y="-1"/>
      <point x="363" y="26"/>
      <point x="363" y="53" type="curve" smooth="yes"/>
      <point x="363" y="58"/>
      <point x="363" y="62"/>
      <point x="361" y="67" type="curve" smooth="yes"/>
      <point x="121" y="725" type="line" smooth="yes"/>
      <point x="113" y="746"/>
      <point x="95" y="755"/>
      <point x="76" y="755" type="curve" smooth="yes"/>
      <point x="44" y="755"/>
      <point x="18" y="730"/>
      <point x="18" y="704" type="curve" smooth="yes"/>
      <point x="18" y="699"/>
      <point x="19" y="694"/>
      <point x="21" y="689" type="curve" smooth="yes"/>
      <point x="261" y="31" type="line" smooth="yes"/>
      <point x="268" y="12"/>
      <point x="286" y="-1"/>
    </contour>
  </outline>
</glyph>
<glyph name="bracketright" format="2">
  <advance width="355"/>
  <unicode hex="005D"/>
  <outline>
    <contour>
      <point x="61" y="-80" type="curve" smooth="yes"/>
      <point x="237" y="-80" type="line" smooth="yes"/>
      <point x="271" y="-80"/>
      <point x="305" y="-64"/>
      <point x="305" y="-32" type="curve" smooth="yes"/>
      <point x="305" y="720" type="line" smooth="yes"/>
      <point x="305" y="752"/>
      <point x="271" y="768"/>
      <point x="237" y="768" type="curve" smooth="yes"/>
      <point x="61" y="768" type="line" smooth="yes"/>
      <point x="28" y="768"/>
      <point x="14" y="733"/>
      <point x="14" y="701" type="curve" smooth="yes"/>
      <point x="14" y="664"/>
      <point x="31" y="632"/>
      <point x="61" y="632" type="curve" smooth="yes"/>
      <point x="149" y="632" type="line"/>
      <point x="149" y="56" type="line"/>
      <point x="61" y="56" type="line" smooth="yes"/>
      <point x="31" y="56"/>
      <point x="14" y="24"/>
      <point x="14" y="-13" type="curve" smooth="yes"/>
      <point x="14" y="-45"/>
      <point x="28" y="-80"/>
    </contour>
  </outline>
</glyph>
<glyph name="asciicircum" format="2">
  <advance width="292"/>
  <unicode hex="005E"/>
  <outline>
    <contour>
      <point x="31" y="569" type="curve" smooth="yes"/>
      <point x="34" y="569"/>
      <point x="38" y="570"/>
      <point x="42" y="572" type="curve" smooth="yes"/>
      <point x="146" y="628" type="line"/>
      <point x="250" y="572" type="line" smooth="yes"/>
      <point x="254" y="570"/>
      <point x="258" y="569"/>
      <point x="261" y="569" type="curve" smooth="yes"/>
      <point x="279" y="569"/>
      <point x="292" y="592"/>
      <point x="292" y="615" type="curve" smooth="yes"/>
      <point x="292" y="632"/>
      <point x="285" y="649"/>
      <point x="267" y="659" type="curve" smooth="yes"/>
      <point x="163" y="715" type="line" smooth="yes"/>
      <point x="157" y="718"/>
      <point x="152" y="720"/>
      <point x="146" y="720" type="curve" smooth="yes"/>
      <point x="140" y="720"/>
      <point x="135" y="718"/>
      <point x="129" y="715" type="curve" smooth="yes"/>
      <point x="25" y="659" type="line" smooth="yes"/>
      <point x="7" y="649"/>
      <point x="0" y="632"/>
      <point x="0" y="615" type="curve" smooth="yes"/>
      <point x="0" y="592"/>
      <point x="13" y="569"/>
    </contour>
  </outline>
</glyph>
<glyph name="underscore" format="2">
  <advance width="306"/>
  <unicode hex="005F"/>
  <outline>
    <contour>
      <point x="2" y="-127" type="curve" smooth="yes"/>
      <point x="303" y="-127" type="line" smooth="yes"/>
      <point x="327" y="-127"/>
      <point x="351" y="-102"/>
      <point x="351" y="-64" type="curve" smooth="yes"/>
      <point x="351" y="-28"/>
      <point x="327" y="0"/>
      <point x="303" y="0" type="curve" smooth="yes"/>
      <point x="2" y="0" type="line" smooth="yes"/>
      <point x="-26" y="0"/>
      <point x="-45" y="-28"/>
      <point x="-45" y="-64" type="curve" smooth="yes"/>
      <point x="-45" y="-102"/>
      <point x="-26" y="-127"/>
    </contour>
  </outline>
</glyph>
<glyph name="a" format="2">
  <advance width="484"/>
  <unicode hex="0061"/>
  <anchor x="242" y="0" name="bottom"/>
  <anchor x="443" y="0" name="ogonek"/>
  <anchor x="238" y="500" name="top"/>
  <outline>
    <contour>
      <point x="150" y="-6" type="curve" smooth="yes"/>
      <point x="214" y="-6"/>
      <point x="260" y="20"/>
      <point x="298" y="55" type="curve"/>
      <point x="298" y="43" type="line" smooth="yes"/>
      <point x="298" y="19"/>
      <point x="327" y="0"/>
      <point x="369" y="0" type="curve" smooth="yes"/>
      <point x="410" y="0"/>
      <point x="443" y="21"/>
      <point x="443" y="48" type="curve" smooth="yes"/>
      <point x="443" y="318" type="line" smooth="yes"/>
      <point x="443" y="415"/>
      <point x="378" y="506"/>
      <point x="229" y="506" type="curve" smooth="yes"/>
      <point x="138" y="506"/>
      <point x="43" y="473"/>
      <point x="43" y="411" type="curve" smooth="yes"/>
      <point x="43" y="383"/>
      <point x="64" y="346"/>
      <point x="92" y="346" type="curve" smooth="yes"/>
      <point x="120" y="346"/>
      <point x="151" y="381"/>
      <point x="213" y="381" type="curve" smooth="yes"/>
      <point x="272" y="381"/>
      <point x="288" y="350"/>
      <point x="288" y="307" type="curve" smooth="yes"/>
      <point x="288" y="290" type="line"/>
      <point x="252" y="290" type="line" smooth="yes"/>
      <point x="114" y="290"/>
      <point x="18" y="254"/>
      <point x="18" y="130" type="curve" smooth="yes"/>
      <point x="18" y="35"/>
      <point x="75" y="-6"/>
    </contour>
    <contour>
      <point x="198" y="101" type="curve" smooth="yes"/>
      <point x="165" y="101"/>
      <point x="151" y="119"/>
      <point x="151" y="145" type="curve" smooth="yes"/>
      <point x="151" y="197"/>
      <point x="209" y="204"/>
      <point x="276" y="204" type="curve" smooth="yes"/>
      <point x="288" y="204" type="line"/>
      <point x="288" y="163" type="line" smooth="yes"/>
      <point x="288" y="136"/>
      <point x="244" y="101"/>
    </contour>
  </outline>
</glyph>
<glyph name="b" format="2">
  <advance width="530"/>
  <unicode hex="0062"/>
  <anchor x="265" y="0" name="bottom"/>
  <anchor x="265" y="500" name="top"/>
  <outline>
    <contour>
      <point x="313" y="-5" type="curve" smooth="yes"/>
      <point x="422" y="-5"/>
      <point x="502" y="96"/>
      <point x="502" y="207" type="curve" smooth="yes"/>
      <point x="502" y="296" type="line" smooth="yes"/>
      <point x="502" y="411"/>
      <point x="422" y="506"/>
      <point x="313" y="506" type="curve" smooth="yes"/>
      <point x="268" y="506"/>
      <point x="230" y="484"/>
      <point x="202" y="449" type="curve"/>
      <point x="202" y="701" type="line" smooth="yes"/>
      <point x="202" y="729"/>
      <point x="167" y="748"/>
      <point x="124" y="748" type="curve" smooth="yes"/>
      <point x="79" y="748"/>
      <point x="47" y="729"/>
      <point x="47" y="701" type="curve" smooth="yes"/>
      <point x="47" y="48" type="line" smooth="yes"/>
      <point x="47" y="24"/>
      <point x="76" y="0"/>
      <point x="117" y="0" type="curve" smooth="yes"/>
      <point x="156" y="0"/>
      <point x="188" y="24"/>
      <point x="188" y="48" type="curve" smooth="yes"/>
      <point x="188" y="73" type="line"/>
      <point x="218" y="26"/>
      <point x="261" y="-5"/>
    </contour>
    <contour>
      <point x="274" y="130" type="curve" smooth="yes"/>
      <point x="234" y="130"/>
      <point x="202" y="167"/>
      <point x="202" y="207" type="curve" smooth="yes"/>
      <point x="202" y="296" type="line" smooth="yes"/>
      <point x="202" y="334"/>
      <point x="234" y="371"/>
      <point x="274" y="371" type="curve" smooth="yes"/>
      <point x="314" y="371"/>
      <point x="347" y="334"/>
      <point x="347" y="296" type="curve" smooth="yes"/>
      <point x="347" y="207" type="line" smooth="yes"/>
      <point x="347" y="167"/>
      <point x="314" y="130"/>
    </contour>
  </outline>
</glyph>
<glyph name="c" format="2">
  <advance width="442"/>
  <unicode hex="0063"/>
  <anchor x="254" y="0" name="bottom"/>
  <anchor x="254" y="500" name="top"/>
  <outline>
    <contour>
      <point x="255" y="-6" type="curve" smooth="yes"/>
      <point x="352" y="-6"/>
      <point x="428" y="37"/>
      <point x="428" y="82" type="curve" smooth="yes"/>
      <point x="428" y="112"/>
      <point x="404" y="156"/>
      <point x="362" y="156" type="curve" smooth="yes"/>
      <point x="335" y="156"/>
      <point x="321" y="129"/>
      <point x="267" y="129" type="curve" smooth="yes"/>
      <point x="206" y="129"/>
      <point x="183" y="157"/>
      <point x="183" y="206" type="curve" smooth="yes"/>
      <point x="183" y="294" type="line" smooth="yes"/>
      <point x="183" y="343"/>
      <point x="206" y="371"/>
      <point x="266" y="371" type="curve" smooth="yes"/>
      <point x="320" y="371"/>
      <point x="338" y="347"/>
      <point x="362" y="347" type="curve" smooth="yes"/>
      <point x="398" y="347"/>
      <point x="422" y="394"/>
      <point x="422" y="423" type="curve" smooth="yes"/>
      <point x="422" y="467"/>
      <point x="351" y="506"/>
      <point x="253" y="506" type="curve" smooth="yes"/>
      <point x="106" y="506"/>
      <point x="28" y="413"/>
      <point x="28" y="294" type="curve" smooth="yes"/>
      <point x="28" y="206" type="line" smooth="yes"/>
      <point x="28" y="85"/>
      <point x="106" y="-6"/>
    </contour>
  </outline>
</glyph>
<glyph name="d" format="2">
  <advance width="529"/>
  <unicode hex="0064"/>
  <anchor x="265" y="0" name="bottom"/>
  <anchor x="265" y="250" name="center"/>
  <anchor x="265" y="500" name="top"/>
  <anchor x="509" y="500" name="topright"/>
  <outline>
    <contour>
      <point x="217" y="-6" type="curve" smooth="yes"/>
      <point x="269" y="-6"/>
      <point x="312" y="25"/>
      <point x="342" y="72" type="curve"/>
      <point x="342" y="46" type="line" smooth="yes"/>
      <point x="342" y="22"/>
      <point x="374" y="0"/>
      <point x="413" y="0" type="curve" smooth="yes"/>
      <point x="454" y="0"/>
      <point x="483" y="24"/>
      <point x="483" y="48" type="curve" smooth="yes"/>
      <point x="483" y="701" type="line" smooth="yes"/>
      <point x="483" y="729"/>
      <point x="451" y="748"/>
      <point x="406" y="748" type="curve" smooth="yes"/>
      <point x="363" y="748"/>
      <point x="328" y="729"/>
      <point x="328" y="701" type="curve" smooth="yes"/>
      <point x="328" y="449" type="line"/>
      <point x="300" y="484"/>
      <point x="262" y="506"/>
      <point x="217" y="506" type="curve" smooth="yes"/>
      <point x="108" y="506"/>
      <point x="28" y="411"/>
      <point x="28" y="296" type="curve" smooth="yes"/>
      <point x="28" y="206" type="line" smooth="yes"/>
      <point x="28" y="95"/>
      <point x="108" y="-6"/>
    </contour>
    <contour>
      <point x="256" y="129" type="curve" smooth="yes"/>
      <point x="216" y="129"/>
      <point x="183" y="166"/>
      <point x="183" y="206" type="curve" smooth="yes"/>
      <point x="183" y="296" type="line" smooth="yes"/>
      <point x="183" y="334"/>
      <point x="216" y="371"/>
      <point x="256" y="371" type="curve" smooth="yes"/>
      <point x="296" y="371"/>
      <point x="328" y="334"/>
      <point x="328" y="296" type="curve" smooth="yes"/>
      <point x="328" y="206" type="line" smooth="yes"/>
      <point x="328" y="166"/>
      <point x="296" y="129"/>
    </contour>
  </outline>
</glyph>
<glyph name="e" format="2">
  <advance width="496"/>
  <unicode hex="0065"/>
  <anchor x="268" y="0" name="bottom"/>
  <anchor x="446" y="10" name="ogonek"/>
  <anchor x="257" y="500" name="top"/>
  <outline>
    <contour>
      <point x="272" y="-6" type="curve" smooth="yes"/>
      <point x="382" y="-6"/>
      <point x="466" y="45"/>
      <point x="466" y="84" type="curve" smooth="yes"/>
      <point x="466" y="102"/>
      <point x="449" y="154"/>
      <point x="409" y="154" type="curve" smooth="yes"/>
      <point x="375" y="154"/>
      <point x="339" y="115"/>
      <point x="276" y="115" type="curve" smooth="yes"/>
      <point x="218" y="115"/>
      <point x="182" y="147"/>
      <point x="182" y="197" type="curve" smooth="yes"/>
      <point x="182" y="205" type="line"/>
      <point x="375" y="205" type="line" smooth="yes"/>
      <point x="424" y="205"/>
      <point x="472" y="211"/>
      <point x="472" y="300" type="curve" smooth="yes"/>
      <point x="472" y="429"/>
      <point x="372" y="506"/>
      <point x="258" y="506" type="curve" smooth="yes"/>
      <point x="129" y="506"/>
      <point x="27" y="408"/>
      <point x="27" y="292" type="curve" smooth="yes"/>
      <point x="27" y="213" type="line" smooth="yes"/>
      <point x="27" y="81"/>
      <point x="128" y="-6"/>
    </contour>
    <contour>
      <point x="182" y="298" type="line"/>
      <point x="182" y="321" type="line" smooth="yes"/>
      <point x="182" y="367"/>
      <point x="217" y="389"/>
      <point x="253" y="389" type="curve" smooth="yes"/>
      <point x="291" y="389"/>
      <point x="327" y="365"/>
      <point x="327" y="322" type="curve" smooth="yes"/>
      <point x="327" y="303"/>
      <point x="320" y="298"/>
      <point x="306" y="298" type="curve" smooth="yes"/>
    </contour>
  </outline>
</glyph>
<glyph name="g" format="2">
  <advance width="533"/>
  <unicode hex="0067"/>
  <anchor x="267" y="0" name="bottom"/>
  <anchor x="267" y="500" name="top"/>
  <outline>
    <contour>
      <point x="231" y="-224" type="curve" smooth="yes"/>
      <point x="410" y="-224"/>
      <point x="483" y="-114"/>
      <point x="483" y="11" type="curve" smooth="yes"/>
      <point x="483" y="452" type="line" smooth="yes"/>
      <point x="483" y="476"/>
      <point x="454" y="500"/>
      <point x="414" y="500" type="curve" smooth="yes"/>
      <point x="374" y="500"/>
      <point x="342" y="476"/>
      <point x="342" y="452" type="curve" smooth="yes"/>
      <point x="342" y="430" type="line"/>
      <point x="311" y="478"/>
      <point x="270" y="506"/>
      <point x="214" y="506" type="curve" smooth="yes"/>
      <point x="110" y="506"/>
      <point x="28" y="411"/>
      <point x="28" y="296" type="curve" smooth="yes"/>
      <point x="28" y="226" type="line" smooth="yes"/>
      <point x="28" y="116"/>
      <point x="109" y="14"/>
      <point x="214" y="14" type="curve" smooth="yes"/>
      <point x="261" y="14"/>
      <point x="297" y="34"/>
      <point x="328" y="73" type="curve"/>
      <point x="328" y="15" type="line" smooth="yes"/>
      <point x="328" y="-17"/>
      <point x="319" y="-92"/>
      <point x="226" y="-92" type="curve" smooth="yes"/>
      <point x="166" y="-92"/>
      <point x="127" y="-61"/>
      <point x="103" y="-61" type="curve" smooth="yes"/>
      <point x="79" y="-61"/>
      <point x="50" y="-92"/>
      <point x="50" y="-130" type="curve" smooth="yes"/>
      <point x="50" y="-201"/>
      <point x="149" y="-224"/>
    </contour>
    <contour>
      <point x="256" y="149" type="curve" smooth="yes"/>
      <point x="216" y="149"/>
      <point x="183" y="186"/>
      <point x="183" y="226" type="curve" smooth="yes"/>
      <point x="183" y="296" type="line" smooth="yes"/>
      <point x="183" y="334"/>
      <point x="216" y="371"/>
      <point x="256" y="371" type="curve" smooth="yes"/>
      <point x="296" y="371"/>
      <point x="328" y="334"/>
      <point x="328" y="296" type="curve" smooth="yes"/>
      <point x="328" y="226" type="line" smooth="yes"/>
      <point x="328" y="186"/>
      <point x="296" y="149"/>
    </contour>
  </outline>
</glyph>
<glyph name="h" format="2">
  <advance width="535"/>
  <unicode hex="0068"/>
  <anchor x="268" y="0" name="bottom"/>
  <anchor x="268" y="250" name="center"/>
  <anchor x="268" y="500" name="top"/>
  <outline>
    <contour>
      <point x="122" y="0" type="curve" smooth="yes"/>
      <point x="165" y="0"/>
      <point x="200" y="24"/>
      <point x="200" y="48" type="curve" smooth="yes"/>
      <point x="200" y="296" type="line" smooth="yes"/>
      <point x="200" y="343"/>
      <point x="237" y="371"/>
      <point x="276" y="371" type="curve" smooth="yes"/>
      <point x="309" y="371"/>
      <point x="339" y="350"/>
      <point x="339" y="316" type="curve" smooth="yes"/>
      <point x="339" y="48" type="line" smooth="yes"/>
      <point x="339" y="16"/>
      <point x="380" y="0"/>
      <point x="418" y="0" type="curve" smooth="yes"/>
      <point x="455" y="0"/>
      <point x="494" y="16"/>
      <point x="494" y="48" type="curve" smooth="yes"/>
      <point x="494" y="330" type="line" smooth="yes"/>
      <point x="494" y="426"/>
      <point x="430" y="506"/>
      <point x="338" y="506" type="curve" smooth="yes"/>
      <point x="286" y="506"/>
      <point x="232" y="476"/>
      <point x="200" y="431" type="curve"/>
      <point x="200" y="701" type="line" smooth="yes"/>
      <point x="200" y="729"/>
      <point x="168" y="748"/>
      <point x="124" y="748" type="curve" smooth="yes"/>
      <point x="80" y="748"/>
      <point x="45" y="729"/>
      <point x="45" y="701" type="curve" smooth="yes"/>
      <point x="45" y="48" type="line" smooth="yes"/>
      <point x="45" y="24"/>
      <point x="78" y="0"/>
    </contour>
  </outline>
</glyph>
<glyph name="i" format="2">
  <advance width="244"/>
  <unicode hex="0069"/>
  <guideline x="45" y="254" angle="90"/>
  <guideline x="200" y="254" angle="90"/>
  <anchor x="122" y="0" name="bottom"/>
  <outline>
    <contour>
      <point x="122" y="0" type="curve" smooth="yes"/>
      <point x="165" y="0"/>
      <point x="200" y="24"/>
      <point x="200" y="48" type="curve" smooth="yes"/>
      <point x="200" y="459" type="line" smooth="yes"/>
      <point x="200" y="487"/>
      <point x="165" y="506"/>
      <point x="122" y="506" type="curve" smooth="yes"/>
      <point x="77" y="506"/>
      <point x="45" y="487"/>
      <point x="45" y="459" type="curve" smooth="yes"/>
      <point x="45" y="48" type="line" smooth="yes"/>
      <point x="45" y="24"/>
      <point x="77" y="0"/>
    </contour>
    <contour>
      <point x="122" y="580" type="curve" smooth="yes"/>
      <point x="170" y="580"/>
      <point x="205" y="614"/>
      <point x="205" y="648" type="curve" smooth="yes"/>
      <point x="205" y="663" type="line" smooth="yes"/>
      <point x="205" y="698"/>
      <point x="170" y="730"/>
      <point x="122" y="730" type="curve" smooth="yes"/>
      <point x="73" y="730"/>
      <point x="40" y="697"/>
      <point x="40" y="663" type="curve" smooth="yes"/>
      <point x="40" y="648" type="line" smooth="yes"/>
      <point x="40" y="613"/>
      <point x="74" y="580"/>
    </contour>
  </outline>
</glyph>
<glyph name="j" format="2">
  <advance width="245"/>
  <unicode hex="006A"/>
  <guideline x="121" y="433" angle="90"/>
  <outline>
    <contour>
      <point x="41" y="-217" type="curve" smooth="yes"/>
      <point x="143" y="-217"/>
      <point x="200" y="-139"/>
      <point x="200" y="-28" type="curve" smooth="yes"/>
      <point x="200" y="453" type="line" smooth="yes"/>
      <point x="200" y="481"/>
      <point x="165" y="500"/>
      <point x="121" y="500" type="curve" smooth="yes"/>
      <point x="77" y="500"/>
      <point x="45" y="481"/>
      <point x="45" y="453" type="curve" smooth="yes"/>
      <point x="45" y="-28" type="line" smooth="yes"/>
      <point x="45" y="-62"/>
      <point x="42" y="-87"/>
      <point x="18" y="-87" type="curve" smooth="yes"/>
      <point x="-14" y="-87"/>
      <point x="-40" y="-113"/>
      <point x="-40" y="-154" type="curve" smooth="yes"/>
      <point x="-40" y="-185"/>
      <point x="-25" y="-217"/>
    </contour>
    <contour>
      <point x="121" y="580" type="curve" smooth="yes"/>
      <point x="169" y="580"/>
      <point x="204" y="614"/>
      <point x="204" y="648" type="curve" smooth="yes"/>
      <point x="204" y="663" type="line" smooth="yes"/>
      <point x="204" y="698"/>
      <point x="169" y="730"/>
      <point x="121" y="730" type="curve" smooth="yes"/>
      <point x="72" y="730"/>
      <point x="39" y="697"/>
      <point x="39" y="663" type="curve" smooth="yes"/>
      <point x="39" y="648" type="line" smooth="yes"/>
      <point x="39" y="613"/>
      <point x="73" y="580"/>
    </contour>
  </outline>
</glyph>
<glyph name="k" format="2">
  <advance width="509"/>
  <unicode hex="006B"/>
  <guideline x="142" y="314" angle="0"/>
  <guideline x="142" y="159" angle="0"/>
  <anchor x="255" y="0" name="bottom"/>
  <anchor x="255" y="500" name="top"/>
  <outline>
    <contour>
      <point x="122" y="0" type="curve" smooth="yes"/>
      <point x="166" y="0"/>
      <point x="201" y="24"/>
      <point x="201" y="48" type="curve" smooth="yes"/>
      <point x="201" y="701" type="line" smooth="yes"/>
      <point x="201" y="729"/>
      <point x="166" y="748"/>
      <point x="122" y="748" type="curve" smooth="yes"/>
      <point x="78" y="748"/>
      <point x="46" y="729"/>
      <point x="46" y="701" type="curve" smooth="yes"/>
      <point x="46" y="48" type="line" smooth="yes"/>
      <point x="46" y="24"/>
      <point x="78" y="0"/>
    </contour>
    <contour>
      <point x="116" y="106" type="line"/>
      <point x="466" y="417" type="line" smooth="yes"/>
      <point x="480" y="429"/>
      <point x="486" y="447"/>
      <point x="486" y="460" type="curve" smooth="yes"/>
      <point x="486" y="485"/>
      <point x="464" y="506"/>
      <point x="418" y="506" type="curve" smooth="yes"/>
      <point x="372" y="506"/>
      <point x="348" y="486"/>
      <point x="329" y="468" type="curve" smooth="yes"/>
      <point x="117" y="274" type="line"/>
    </contour>
    <contour>
      <point x="434" y="-6" type="curve" smooth="yes"/>
      <point x="480" y="-6"/>
      <point x="501" y="17"/>
      <point x="501" y="42" type="curve" smooth="yes"/>
      <point x="501" y="54"/>
      <point x="496" y="67"/>
      <point x="485" y="81" type="curve" smooth="yes"/>
      <point x="299" y="316" type="line"/>
      <point x="207" y="222" type="line"/>
      <point x="348" y="33" type="line" smooth="yes"/>
      <point x="365" y="10"/>
      <point x="396" y="-6"/>
    </contour>
  </outline>
</glyph>
<glyph name="l" format="2">
  <advance width="263"/>
  <unicode hex="006C"/>
  <anchor x="132" y="0" name="bottom"/>
  <anchor x="132" y="250" name="center"/>
  <anchor x="132" y="730" name="top"/>
  <anchor x="243" y="500" name="topright"/>
  <outline>
    <contour>
      <point x="131" y="0" type="curve" smooth="yes"/>
      <point x="174" y="0"/>
      <point x="209" y="24"/>
      <point x="209" y="48" type="curve" smooth="yes"/>
      <point x="209" y="701" type="line" smooth="yes"/>
      <point x="209" y="729"/>
      <point x="174" y="748"/>
      <point x="131" y="748" type="curve" smooth="yes"/>
      <point x="86" y="748"/>
      <point x="54" y="729"/>
      <point x="54" y="701" type="curve" smooth="yes"/>
      <point x="54" y="48" type="line" smooth="yes"/>
      <point x="54" y="24"/>
      <point x="86" y="0"/>
    </contour>
  </outline>
</glyph>
<glyph name="m" format="2">
  <advance width="812"/>
  <unicode hex="006D"/>
  <anchor x="406" y="0" name="bottom"/>
  <anchor x="406" y="500" name="top"/>
  <outline>
    <contour>
      <point x="122" y="0" type="curve" smooth="yes"/>
      <point x="165" y="0"/>
      <point x="200" y="24"/>
      <point x="200" y="48" type="curve" smooth="yes"/>
      <point x="200" y="305" type="line" smooth="yes"/>
      <point x="200" y="346"/>
      <point x="235" y="371"/>
      <point x="272" y="371" type="curve" smooth="yes"/>
      <point x="303" y="371"/>
      <point x="331" y="348"/>
      <point x="331" y="311" type="curve" smooth="yes"/>
      <point x="331" y="48" type="line" smooth="yes"/>
      <point x="331" y="16"/>
      <point x="372" y="0"/>
      <point x="410" y="0" type="curve" smooth="yes"/>
      <point x="447" y="0"/>
      <point x="486" y="16"/>
      <point x="486" y="48" type="curve" smooth="yes"/>
      <point x="486" y="305" type="line" smooth="yes"/>
      <point x="486" y="346"/>
      <point x="521" y="371"/>
      <point x="558" y="371" type="curve" smooth="yes"/>
      <point x="589" y="371"/>
      <point x="617" y="348"/>
      <point x="617" y="311" type="curve" smooth="yes"/>
      <point x="617" y="48" type="line" smooth="yes"/>
      <point x="617" y="16"/>
      <point x="658" y="0"/>
      <point x="696" y="0" type="curve" smooth="yes"/>
      <point x="733" y="0"/>
      <point x="772" y="16"/>
      <point x="772" y="48" type="curve" smooth="yes"/>
      <point x="772" y="323" type="line" smooth="yes"/>
      <point x="772" y="421"/>
      <point x="705" y="506"/>
      <point x="614" y="506" type="curve" smooth="yes"/>
      <point x="551" y="506"/>
      <point x="504" y="482"/>
      <point x="456" y="431" type="curve"/>
      <point x="431" y="475"/>
      <point x="385" y="506"/>
      <point x="328" y="506" type="curve" smooth="yes"/>
      <point x="276" y="506"/>
      <point x="222" y="476"/>
      <point x="190" y="430" type="curve"/>
      <point x="190" y="453" type="line" smooth="yes"/>
      <point x="190" y="481"/>
      <point x="160" y="500"/>
      <point x="119" y="500" type="curve" smooth="yes"/>
      <point x="78" y="500"/>
      <point x="45" y="481"/>
      <point x="45" y="453" type="curve" smooth="yes"/>
      <point x="45" y="48" type="line" smooth="yes"/>
      <point x="45" y="24"/>
      <point x="78" y="0"/>
    </contour>
  </outline>
</glyph>
<glyph name="n" format="2">
  <advance width="534"/>
  <unicode hex="006E"/>
  <anchor x="267" y="0" name="bottom"/>
  <anchor x="267" y="500" name="top"/>
  <outline>
    <contour>
      <point x="122" y="0" type="curve" smooth="yes"/>
      <point x="165" y="0"/>
      <point x="200" y="24"/>
      <point x="200" y="48" type="curve" smooth="yes"/>
      <point x="200" y="305" type="line" smooth="yes"/>
      <point x="200" y="346"/>
      <point x="237" y="371"/>
      <point x="276" y="371" type="curve" smooth="yes"/>
      <point x="309" y="371"/>
      <point x="339" y="348"/>
      <point x="339" y="311" type="curve" smooth="yes"/>
      <point x="339" y="48" type="line" smooth="yes"/>
      <point x="339" y="16"/>
      <point x="380" y="0"/>
      <point x="418" y="0" type="curve" smooth="yes"/>
      <point x="455" y="0"/>
      <point x="494" y="16"/>
      <point x="494" y="48" type="curve" smooth="yes"/>
      <point x="494" y="323" type="line" smooth="yes"/>
      <point x="494" y="421"/>
      <point x="425" y="506"/>
      <point x="332" y="506" type="curve" smooth="yes"/>
      <point x="278" y="506"/>
      <point x="223" y="476"/>
      <point x="190" y="430" type="curve"/>
      <point x="190" y="453" type="line" smooth="yes"/>
      <point x="190" y="481"/>
      <point x="160" y="500"/>
      <point x="119" y="500" type="curve" smooth="yes"/>
      <point x="78" y="500"/>
      <point x="45" y="481"/>
      <point x="45" y="453" type="curve" smooth="yes"/>
      <point x="45" y="48" type="line" smooth="yes"/>
      <point x="45" y="24"/>
      <point x="78" y="0"/>
    </contour>
  </outline>
</glyph>
<glyph name="o" format="2">
  <advance width="509"/>
  <unicode hex="006F"/>
  <anchor x="254" y="0" name="bottom"/>
  <anchor x="255" y="250" name="center"/>
  <anchor x="308" y="0" name="ogonek"/>
  <anchor x="254" y="500" name="top"/>
  <anchor x="489" y="500" name="topright"/>
  <outline>
    <contour>
      <point x="254" y="-6" type="curve" smooth="yes"/>
      <point x="386" y="-6"/>
      <point x="482" y="95"/>
      <point x="482" y="206" type="curve" smooth="yes"/>
      <point x="482" y="296" type="line" smooth="yes"/>
      <point x="482" y="411"/>
      <point x="386" y="506"/>
      <point x="254" y="506" type="curve" smooth="yes"/>
      <point x="119" y="506"/>
      <point x="27" y="408"/>
      <point x="27" y="296" type="curve" smooth="yes"/>
      <point x="27" y="206" type="line" smooth="yes"/>
      <point x="27" y="94"/>
      <point x="122" y="-6"/>
    </contour>
    <contour>
      <point x="254" y="129" type="curve" smooth="yes"/>
      <point x="214" y="129"/>
      <point x="182" y="166"/>
      <point x="182" y="206" type="curve" smooth="yes"/>
      <point x="182" y="296" type="line" smooth="yes"/>
      <point x="182" y="334"/>
      <point x="214" y="371"/>
      <point x="254" y="371" type="curve" smooth="yes"/>
      <point x="294" y="371"/>
      <point x="327" y="334"/>
      <point x="327" y="296" type="curve" smooth="yes"/>
      <point x="327" y="206" type="line" smooth="yes"/>
      <point x="327" y="166"/>
      <point x="294" y="129"/>
    </contour>
  </outline>
</glyph>
<glyph name="p" format="2">
  <advance width="530"/>
  <unicode hex="0070"/>
  <anchor x="265" y="0" name="bottom"/>
  <anchor x="265" y="500" name="top"/>
  <outline>
    <contour>
      <point x="123" y="-218" type="curve" smooth="yes"/>
      <point x="166" y="-218"/>
      <point x="201" y="-199"/>
      <point x="201" y="-171" type="curve" smooth="yes"/>
      <point x="201" y="53" type="line"/>
      <point x="230" y="16"/>
      <point x="268" y="-6"/>
      <point x="312" y="-6" type="curve" smooth="yes"/>
      <point x="421" y="-6"/>
      <point x="501" y="95"/>
      <point x="501" y="206" type="curve" smooth="yes"/>
      <point x="501" y="296" type="line" smooth="yes"/>
      <point x="501" y="411"/>
      <point x="421" y="506"/>
      <point x="312" y="506" type="curve" smooth="yes"/>
      <point x="260" y="506"/>
      <point x="216" y="476"/>
      <point x="187" y="430" type="curve"/>
      <point x="187" y="452" type="line" smooth="yes"/>
      <point x="187" y="478"/>
      <point x="155" y="500"/>
      <point x="116" y="500" type="curve" smooth="yes"/>
      <point x="75" y="500"/>
      <point x="46" y="476"/>
      <point x="46" y="452" type="curve" smooth="yes"/>
      <point x="46" y="-171" type="line" smooth="yes"/>
      <point x="46" y="-199"/>
      <point x="78" y="-218"/>
    </contour>
    <contour>
      <point x="273" y="129" type="curve" smooth="yes"/>
      <point x="233" y="129"/>
      <point x="201" y="166"/>
      <point x="201" y="206" type="curve" smooth="yes"/>
      <point x="201" y="296" type="line" smooth="yes"/>
      <point x="201" y="334"/>
      <point x="233" y="371"/>
      <point x="273" y="371" type="curve" smooth="yes"/>
      <point x="313" y="371"/>
      <point x="346" y="334"/>
      <point x="346" y="296" type="curve" smooth="yes"/>
      <point x="346" y="206" type="line" smooth="yes"/>
      <point x="346" y="166"/>
      <point x="313" y="129"/>
    </contour>
  </outline>
</glyph>
<glyph name="q" format="2">
  <advance width="529"/>
  <unicode hex="0071"/>
  <anchor x="265" y="0" name="bottom"/>
  <anchor x="265" y="500" name="top"/>
  <outline>
    <contour>
      <point x="406" y="-217" type="curve" smooth="yes"/>
      <point x="451" y="-217"/>
      <point x="483" y="-198"/>
      <point x="483" y="-170" type="curve" smooth="yes"/>
      <point x="483" y="452" type="line" smooth="yes"/>
      <point x="483" y="476"/>
      <point x="454" y="500"/>
      <point x="413" y="500" type="curve" smooth="yes"/>
      <point x="374" y="500"/>
      <point x="342" y="476"/>
      <point x="342" y="452" type="curve" smooth="yes"/>
      <point x="342" y="430" type="line"/>
      <point x="313" y="476"/>
      <point x="269" y="506"/>
      <point x="217" y="506" type="curve" smooth="yes"/>
      <point x="108" y="506"/>
      <point x="28" y="411"/>
      <point x="28" y="296" type="curve" smooth="yes"/>
      <point x="28" y="206" type="line" smooth="yes"/>
      <point x="28" y="95"/>
      <point x="108" y="-6"/>
      <point x="217" y="-6" type="curve" smooth="yes"/>
      <point x="261" y="-6"/>
      <point x="299" y="16"/>
      <point x="328" y="53" type="curve"/>
      <point x="328" y="-170" type="line" smooth="yes"/>
      <point x="328" y="-198"/>
      <point x="363" y="-217"/>
    </contour>
    <contour>
      <point x="256" y="129" type="curve" smooth="yes"/>
      <point x="216" y="129"/>
      <point x="183" y="166"/>
      <point x="183" y="206" type="curve" smooth="yes"/>
      <point x="183" y="296" type="line" smooth="yes"/>
      <point x="183" y="334"/>
      <point x="216" y="371"/>
      <point x="256" y="371" type="curve" smooth="yes"/>
      <point x="296" y="371"/>
      <point x="328" y="334"/>
      <point x="328" y="296" type="curve" smooth="yes"/>
      <point x="328" y="206" type="line" smooth="yes"/>
      <point x="328" y="166"/>
      <point x="296" y="129"/>
    </contour>
  </outline>
</glyph>
<glyph name="r" format="2">
  <advance width="394"/>
  <unicode hex="0072"/>
  <anchor x="124" y="0" name="bottom"/>
  <anchor x="197" y="500" name="top"/>
  <outline>
    <contour>
      <point x="121" y="0" type="curve" smooth="yes"/>
      <point x="165" y="0"/>
      <point x="200" y="24"/>
      <point x="200" y="48" type="curve" smooth="yes"/>
      <point x="200" y="247" type="line" smooth="yes"/>
      <point x="200" y="331"/>
      <point x="245" y="371"/>
      <point x="300" y="371" type="curve" smooth="yes"/>
      <point x="338" y="371" type="line" smooth="yes"/>
      <point x="365" y="371"/>
      <point x="389" y="402"/>
      <point x="389" y="439" type="curve" smooth="yes"/>
      <point x="389" y="475"/>
      <point x="365" y="506"/>
      <point x="338" y="506" type="curve" smooth="yes"/>
      <point x="309" y="506" type="line" smooth="yes"/>
      <point x="258" y="506"/>
      <point x="210" y="460"/>
      <point x="190" y="416" type="curve"/>
      <point x="190" y="453" type="line" smooth="yes"/>
      <point x="190" y="481"/>
      <point x="160" y="500"/>
      <point x="119" y="500" type="curve" smooth="yes"/>
      <point x="78" y="500"/>
      <point x="45" y="481"/>
      <point x="45" y="453" type="curve" smooth="yes"/>
      <point x="45" y="48" type="line" smooth="yes"/>
      <point x="45" y="24"/>
      <point x="77" y="0"/>
    </contour>
  </outline>
</glyph>
<glyph name="s" format="2">
  <advance width="430"/>
  <unicode hex="0073"/>
  <anchor x="215" y="0" name="bottom"/>
  <anchor x="215" y="500" name="top"/>
  <outline>
    <contour>
      <point x="212" y="-6" type="curve" smooth="yes"/>
      <point x="337" y="-6"/>
      <point x="405" y="56"/>
      <point x="405" y="153" type="curve" smooth="yes"/>
      <point x="405" y="336"/>
      <point x="170" y="292"/>
      <point x="170" y="353" type="curve" smooth="yes"/>
      <point x="170" y="370"/>
      <point x="186" y="389"/>
      <point x="226" y="389" type="curve" smooth="yes"/>
      <point x="279" y="389"/>
      <point x="309" y="358"/>
      <point x="335" y="358" type="curve" smooth="yes"/>
      <point x="371" y="358"/>
      <point x="392" y="411"/>
      <point x="392" y="432" type="curve" smooth="yes"/>
      <point x="392" y="475"/>
      <point x="309" y="506"/>
      <point x="224" y="506" type="curve" smooth="yes"/>
      <point x="81" y="506"/>
      <point x="35" y="423"/>
      <point x="35" y="346" type="curve" smooth="yes"/>
      <point x="35" y="171"/>
      <point x="269" y="222"/>
      <point x="269" y="147" type="curve" smooth="yes"/>
      <point x="269" y="131"/>
      <point x="260" y="110"/>
      <point x="208" y="110" type="curve" smooth="yes"/>
      <point x="128" y="110"/>
      <point x="105" y="157"/>
      <point x="73" y="157" type="curve" smooth="yes"/>
      <point x="41" y="157"/>
      <point x="21" y="113"/>
      <point x="21" y="88" type="curve" smooth="yes"/>
      <point x="21" y="38"/>
      <point x="106" y="-6"/>
    </contour>
  </outline>
</glyph>
<glyph name="t" format="2">
  <advance width="380"/>
  <unicode hex="0074"/>
  <anchor x="226" y="0" name="bottom"/>
  <anchor x="160" y="250" name="center"/>
  <anchor x="160" y="500" name="top"/>
  <anchor x="360" y="500" name="topright"/>
  <outline>
    <contour>
      <point x="235" y="0" type="curve" smooth="yes"/>
      <point x="300" y="0" type="line" smooth="yes"/>
      <point x="339" y="0"/>
      <point x="366" y="25"/>
      <point x="366" y="70" type="curve" smooth="yes"/>
      <point x="366" y="105"/>
      <point x="349" y="130"/>
      <point x="312" y="130" type="curve" smooth="yes"/>
      <point x="288" y="130" type="line" smooth="yes"/>
      <point x="244" y="130"/>
      <point x="237" y="157"/>
      <point x="237" y="229" type="curve" smooth="yes"/>
      <point x="237" y="613" type="line" smooth="yes"/>
      <point x="237" y="648"/>
      <point x="197" y="668"/>
      <point x="160" y="668" type="curve" smooth="yes"/>
      <point x="122" y="668"/>
      <point x="82" y="648"/>
      <point x="82" y="613" type="curve" smooth="yes"/>
      <point x="82" y="219" type="line" smooth="yes"/>
      <point x="82" y="56"/>
      <point x="125" y="0"/>
    </contour>
    <contour>
      <point x="54" y="382" type="curve" smooth="yes"/>
      <point x="317" y="382" type="line" smooth="yes"/>
      <point x="349" y="382"/>
      <point x="365" y="411"/>
      <point x="365" y="441" type="curve" smooth="yes"/>
      <point x="365" y="470"/>
      <point x="349" y="500"/>
      <point x="317" y="500" type="curve" smooth="yes"/>
      <point x="54" y="500" type="line" smooth="yes"/>
      <point x="22" y="500"/>
      <point x="6" y="470"/>
      <point x="6" y="441" type="curve" smooth="yes"/>
      <point x="6" y="411"/>
      <point x="22" y="382"/>
    </contour>
  </outline>
</glyph>
<glyph name="u" format="2">
  <advance width="534"/>
  <unicode hex="0075"/>
  <anchor x="267" y="0" name="bottom"/>
  <anchor x="489" y="0" name="ogonek"/>
  <anchor x="264" y="500" name="top"/>
  <anchor x="514" y="500" name="topright"/>
  <outline>
    <contour>
      <point x="202" y="-6" type="curve" smooth="yes"/>
      <point x="256" y="-6"/>
      <point x="311" y="24"/>
      <point x="344" y="70" type="curve"/>
      <point x="344" y="47" type="line" smooth="yes"/>
      <point x="344" y="19"/>
      <point x="374" y="0"/>
      <point x="415" y="0" type="curve" smooth="yes"/>
      <point x="456" y="0"/>
      <point x="489" y="19"/>
      <point x="489" y="47" type="curve" smooth="yes"/>
      <point x="489" y="452" type="line" smooth="yes"/>
      <point x="489" y="476"/>
      <point x="456" y="500"/>
      <point x="412" y="500" type="curve" smooth="yes"/>
      <point x="369" y="500"/>
      <point x="334" y="476"/>
      <point x="334" y="452" type="curve" smooth="yes"/>
      <point x="334" y="195" type="line" smooth="yes"/>
      <point x="334" y="154"/>
      <point x="297" y="129"/>
      <point x="258" y="129" type="curve" smooth="yes"/>
      <point x="225" y="129"/>
      <point x="195" y="152"/>
      <point x="195" y="189" type="curve" smooth="yes"/>
      <point x="195" y="452" type="line" smooth="yes"/>
      <point x="195" y="484"/>
      <point x="154" y="500"/>
      <point x="116" y="500" type="curve" smooth="yes"/>
      <point x="79" y="500"/>
      <point x="40" y="484"/>
      <point x="40" y="452" type="curve" smooth="yes"/>
      <point x="40" y="177" type="line" smooth="yes"/>
      <point x="40" y="79"/>
      <point x="109" y="-6"/>
    </contour>
  </outline>
</glyph>
<glyph name="v" format="2">
  <advance width="503"/>
  <unicode hex="0076"/>
  <anchor x="252" y="0" name="bottom"/>
  <anchor x="252" y="500" name="top"/>
  <outline>
    <contour>
      <point x="252" y="-6" type="curve" smooth="yes"/>
      <point x="282" y="-6"/>
      <point x="314" y="2"/>
      <point x="324" y="26" type="curve" smooth="yes"/>
      <point x="490" y="423" type="line" smooth="yes"/>
      <point x="496" y="437"/>
      <point x="499" y="449"/>
      <point x="499" y="460" type="curve" smooth="yes"/>
      <point x="499" y="489"/>
      <point x="476" y="506"/>
      <point x="422" y="506" type="curve" smooth="yes"/>
      <point x="383" y="506"/>
      <point x="355" y="497"/>
      <point x="347" y="474" type="curve" smooth="yes"/>
      <point x="252" y="204" type="line"/>
      <point x="161" y="467" type="line" smooth="yes"/>
      <point x="152" y="493"/>
      <point x="119" y="506"/>
      <point x="84" y="506" type="curve" smooth="yes"/>
      <point x="49" y="506"/>
      <point x="8" y="493"/>
      <point x="8" y="460" type="curve" smooth="yes"/>
      <point x="8" y="452"/>
      <point x="10" y="440"/>
      <point x="16" y="426" type="curve" smooth="yes"/>
      <point x="180" y="26" type="line" smooth="yes"/>
      <point x="190" y="2"/>
      <point x="221" y="-6"/>
    </contour>
  </outline>
</glyph>
<glyph name="w" format="2">
  <advance width="702"/>
  <unicode hex="0077"/>
  <anchor x="351" y="0" name="bottom"/>
  <anchor x="351" y="500" name="top"/>
  <outline>
    <contour>
      <point x="210" y="-6" type="curve" smooth="yes"/>
      <point x="240" y="-6"/>
      <point x="271" y="4"/>
      <point x="279" y="25" type="curve" smooth="yes"/>
      <point x="351" y="215" type="line"/>
      <point x="424" y="24" type="line" smooth="yes"/>
      <point x="432" y="4"/>
      <point x="461" y="-6"/>
      <point x="491" y="-6" type="curve" smooth="yes"/>
      <point x="517" y="-6"/>
      <point x="544" y="1"/>
      <point x="552" y="25" type="curve" smooth="yes"/>
      <point x="686" y="423" type="line" smooth="yes"/>
      <point x="691" y="437"/>
      <point x="695" y="449"/>
      <point x="695" y="460" type="curve" smooth="yes"/>
      <point x="695" y="489"/>
      <point x="672" y="506"/>
      <point x="613" y="506" type="curve" smooth="yes"/>
      <point x="578" y="506"/>
      <point x="554" y="500"/>
      <point x="546" y="470" type="curve" smooth="yes"/>
      <point x="478" y="211" type="line"/>
      <point x="406" y="464" type="line" smooth="yes"/>
      <point x="398" y="491"/>
      <point x="373" y="494"/>
      <point x="351" y="494" type="curve" smooth="yes"/>
      <point x="328" y="494"/>
      <point x="304" y="491"/>
      <point x="296" y="464" type="curve" smooth="yes"/>
      <point x="224" y="211" type="line"/>
      <point x="158" y="469" type="line" smooth="yes"/>
      <point x="150" y="501"/>
      <point x="122" y="506"/>
      <point x="95" y="506" type="curve" smooth="yes"/>
      <point x="52" y="506"/>
      <point x="10" y="493"/>
      <point x="10" y="459" type="curve" smooth="yes"/>
      <point x="10" y="452"/>
      <point x="12" y="440"/>
      <point x="17" y="426" type="curve" smooth="yes"/>
      <point x="150" y="24" type="line" smooth="yes"/>
      <point x="158" y="1"/>
      <point x="185" y="-6"/>
    </contour>
  </outline>
</glyph>
<glyph name="x" format="2">
  <advance width="488"/>
  <unicode hex="0078"/>
  <anchor x="244" y="0" name="bottom"/>
  <anchor x="244" y="500" name="top"/>
  <outline>
    <contour>
      <point x="82" y="-6" type="curve" smooth="yes"/>
      <point x="116" y="-6"/>
      <point x="145" y="7"/>
      <point x="161" y="32" type="curve" smooth="yes"/>
      <point x="243" y="173" type="line"/>
      <point x="326" y="32" type="line" smooth="yes"/>
      <point x="342" y="7"/>
      <point x="372" y="-6"/>
      <point x="406" y="-6" type="curve" smooth="yes"/>
      <point x="440" y="-6"/>
      <point x="480" y="7"/>
      <point x="480" y="44" type="curve" smooth="yes"/>
      <point x="480" y="50"/>
      <point x="479" y="61"/>
      <point x="467" y="77" type="curve" smooth="yes"/>
      <point x="344" y="258" type="line"/>
      <point x="460" y="428" type="line" smooth="yes"/>
      <point x="468" y="439"/>
      <point x="469" y="449"/>
      <point x="469" y="455" type="curve" smooth="yes"/>
      <point x="469" y="493"/>
      <point x="429" y="506"/>
      <point x="396" y="506" type="curve" smooth="yes"/>
      <point x="359" y="506"/>
      <point x="330" y="490"/>
      <point x="316" y="468" type="curve" smooth="yes"/>
      <point x="246" y="341" type="line"/>
      <point x="172" y="468" type="line" smooth="yes"/>
      <point x="158" y="490"/>
      <point x="129" y="506"/>
      <point x="92" y="506" type="curve" smooth="yes"/>
      <point x="59" y="506"/>
      <point x="19" y="493"/>
      <point x="19" y="454" type="curve" smooth="yes"/>
      <point x="19" y="448"/>
      <point x="19" y="438"/>
      <point x="26" y="428" type="curve" smooth="yes"/>
      <point x="143" y="255" type="line"/>
      <point x="17" y="72" type="line" smooth="yes"/>
      <point x="9" y="61"/>
      <point x="8" y="45"/>
      <point x="8" y="40" type="curve" smooth="yes"/>
      <point x="8" y="7"/>
      <point x="47" y="-6"/>
    </contour>
  </outline>
</glyph>
<glyph name="y" format="2">
  <advance width="496"/>
  <unicode hex="0079"/>
  <anchor x="388" y="0" name="bottom"/>
  <anchor x="248" y="500" name="top"/>
  <outline>
    <contour>
      <point x="81" y="-217" type="curve" smooth="yes"/>
      <point x="119" y="-217"/>
      <point x="186" y="-211"/>
      <point x="234" y="-178" type="curve" smooth="yes"/>
      <point x="291" y="-139"/>
      <point x="312" y="-72"/>
      <point x="350" y="35" type="curve" smooth="yes"/>
      <point x="487" y="423" type="line" smooth="yes"/>
      <point x="492" y="437"/>
      <point x="495" y="449"/>
      <point x="495" y="460" type="curve" smooth="yes"/>
      <point x="495" y="489"/>
      <point x="473" y="506"/>
      <point x="419" y="506" type="curve" smooth="yes"/>
      <point x="379" y="506"/>
      <point x="350" y="497"/>
      <point x="343" y="474" type="curve" smooth="yes"/>
      <point x="262" y="183" type="line"/>
      <point x="151" y="473" type="line" smooth="yes"/>
      <point x="141" y="497"/>
      <point x="109" y="506"/>
      <point x="78" y="506" type="curve" smooth="yes"/>
      <point x="40" y="506"/>
      <point x="0" y="493"/>
      <point x="0" y="460" type="curve" smooth="yes"/>
      <point x="0" y="453"/>
      <point x="2" y="439"/>
      <point x="8" y="426" type="curve" smooth="yes"/>
      <point x="186" y="33" type="line"/>
      <point x="186" y="-30"/>
      <point x="171" y="-57"/>
      <point x="148" y="-70" type="curve" smooth="yes"/>
      <point x="128" y="-82"/>
      <point x="95" y="-83"/>
      <point x="54" y="-85" type="curve" smooth="yes"/>
      <point x="24" y="-86"/>
      <point x="-4" y="-99"/>
      <point x="-4" y="-150" type="curve" smooth="yes"/>
      <point x="-4" y="-205"/>
      <point x="28" y="-217"/>
    </contour>
  </outline>
</glyph>
<glyph name="z" format="2">
  <advance width="448"/>
  <unicode hex="007A"/>
  <anchor x="224" y="0" name="bottom"/>
  <anchor x="224" y="500" name="top"/>
  <outline>
    <contour>
      <point x="69" y="0" type="curve" smooth="yes"/>
      <point x="390" y="0" type="line" smooth="yes"/>
      <point x="417" y="0"/>
      <point x="434" y="29"/>
      <point x="434" y="62" type="curve" smooth="yes"/>
      <point x="434" y="97"/>
      <point x="414" y="125"/>
      <point x="390" y="125" type="curve" smooth="yes"/>
      <point x="213" y="125" type="line"/>
      <point x="391" y="382" type="line" smooth="yes"/>
      <point x="406" y="404"/>
      <point x="416" y="427"/>
      <point x="416" y="449" type="curve" smooth="yes"/>
      <point x="416" y="484"/>
      <point x="393" y="500"/>
      <point x="368" y="500" type="curve" smooth="yes"/>
      <point x="69" y="500" type="line" smooth="yes"/>
      <point x="42" y="500"/>
      <point x="25" y="471"/>
      <point x="25" y="438" type="curve" smooth="yes"/>
      <point x="25" y="403"/>
      <point x="45" y="375"/>
      <point x="69" y="375" type="curve" smooth="yes"/>
      <point x="222" y="375" type="line"/>
      <point x="45" y="118" type="line" smooth="yes"/>
      <point x="32" y="100"/>
      <point x="18" y="79"/>
      <point x="18" y="54" type="curve" smooth="yes"/>
      <point x="18" y="29"/>
      <point x="31" y="0"/>
    </contour>
  </outline>
</glyph>
<glyph name="braceleft" format="2">
  <advance width="380"/>
  <unicode hex="007B"/>
  <outline>
    <contour>
      <point x="279" y="-80" type="curve" smooth="yes"/>
      <point x="337" y="-80"/>
      <point x="368" y="-58"/>
      <point x="368" y="-13" type="curve" smooth="yes"/>
      <point x="368" y="12"/>
      <point x="358" y="52"/>
      <point x="321" y="52" type="curve" smooth="yes"/>
      <point x="286" y="52"/>
      <point x="218" y="64"/>
      <point x="218" y="115" type="curve" smooth="yes"/>
      <point x="218" y="138"/>
      <point x="233" y="262"/>
      <point x="233" y="289" type="curve" smooth="yes"/>
      <point x="233" y="321"/>
      <point x="211" y="351"/>
      <point x="197" y="355" type="curve"/>
      <point x="209" y="359"/>
      <point x="233" y="391"/>
      <point x="233" y="422" type="curve" smooth="yes"/>
      <point x="233" y="448"/>
      <point x="218" y="534"/>
      <point x="218" y="560" type="curve" smooth="yes"/>
      <point x="218" y="619"/>
      <point x="291" y="637"/>
      <point x="321" y="637" type="curve" smooth="yes"/>
      <point x="353" y="637"/>
      <point x="368" y="671"/>
      <point x="368" y="700" type="curve" smooth="yes"/>
      <point x="368" y="732"/>
      <point x="350" y="768"/>
      <point x="281" y="768" type="curve" smooth="yes"/>
      <point x="175" y="768"/>
      <point x="62" y="679"/>
      <point x="62" y="581" type="curve" smooth="yes"/>
      <point x="62" y="546"/>
      <point x="77" y="464"/>
      <point x="77" y="442" type="curve" smooth="yes"/>
      <point x="77" y="399"/>
      <point x="17" y="429"/>
      <point x="17" y="358" type="curve" smooth="yes"/>
      <point x="17" y="285"/>
      <point x="77" y="315"/>
      <point x="77" y="270" type="curve" smooth="yes"/>
      <point x="77" y="247"/>
      <point x="62" y="133"/>
      <point x="62" y="95" type="curve" smooth="yes"/>
      <point x="62" y="-7"/>
      <point x="174" y="-80"/>
    </contour>
  </outline>
</glyph>
<glyph name="bar" format="2">
  <advance width="255"/>
  <unicode hex="007C"/>
  <outline>
    <contour>
      <point x="127" y="-21" type="curve" smooth="yes"/>
      <point x="170" y="-21"/>
      <point x="205" y="3"/>
      <point x="205" y="27" type="curve" smooth="yes"/>
      <point x="205" y="721" type="line" smooth="yes"/>
      <point x="205" y="749"/>
      <point x="170" y="768"/>
      <point x="127" y="768" type="curve" smooth="yes"/>
      <point x="82" y="768"/>
      <point x="50" y="749"/>
      <point x="50" y="721" type="curve" smooth="yes"/>
      <point x="50" y="27" type="line" smooth="yes"/>
      <point x="50" y="3"/>
      <point x="82" y="-21"/>
    </contour>
  </outline>
</glyph>
<glyph name="braceright" format="2">
  <advance width="380"/>
  <unicode hex="007D"/>
  <outline>
    <contour>
      <point x="101" y="-80" type="curve" smooth="yes"/>
      <point x="206" y="-80"/>
      <point x="318" y="-7"/>
      <point x="318" y="95" type="curve" smooth="yes"/>
      <point x="318" y="133"/>
      <point x="303" y="247"/>
      <point x="303" y="270" type="curve" smooth="yes"/>
      <point x="303" y="315"/>
      <point x="363" y="285"/>
      <point x="363" y="358" type="curve" smooth="yes"/>
      <point x="363" y="429"/>
      <point x="303" y="399"/>
      <point x="303" y="442" type="curve" smooth="yes"/>
      <point x="303" y="464"/>
      <point x="318" y="546"/>
      <point x="318" y="581" type="curve" smooth="yes"/>
      <point x="318" y="679"/>
      <point x="205" y="768"/>
      <point x="99" y="768" type="curve" smooth="yes"/>
      <point x="30" y="768"/>
      <point x="12" y="732"/>
      <point x="12" y="700" type="curve" smooth="yes"/>
      <point x="12" y="671"/>
      <point x="27" y="637"/>
      <point x="59" y="637" type="curve" smooth="yes"/>
      <point x="89" y="637"/>
      <point x="162" y="619"/>
      <point x="162" y="560" type="curve" smooth="yes"/>
      <point x="162" y="534"/>
      <point x="147" y="448"/>
      <point x="147" y="422" type="curve" smooth="yes"/>
      <point x="147" y="391"/>
      <point x="171" y="359"/>
      <point x="183" y="355" type="curve"/>
      <point x="169" y="351"/>
      <point x="147" y="321"/>
      <point x="147" y="289" type="curve" smooth="yes"/>
      <point x="147" y="262"/>
      <point x="162" y="138"/>
      <point x="162" y="115" type="curve" smooth="yes"/>
      <point x="162" y="64"/>
      <point x="94" y="52"/>
      <point x="59" y="52" type="curve" smooth="yes"/>
      <point x="22" y="52"/>
      <point x="12" y="12"/>
      <point x="12" y="-13" type="curve" smooth="yes"/>
      <point x="12" y="-58"/>
      <point x="43" y="-80"/>
    </contour>
  </outline>
</glyph>
<glyph name="asciitilde" format="2">
  <advance width="411"/>
  <unicode hex="007E"/>
  <outline>
    <contour>
      <point x="298" y="192" type="curve" smooth="yes"/>
      <point x="317" y="192"/>
      <point x="383" y="194"/>
      <point x="383" y="265" type="curve" smooth="yes"/>
      <point x="383" y="275"/>
      <point x="376" y="314"/>
      <point x="345" y="314" type="curve" smooth="yes"/>
      <point x="322" y="314"/>
      <point x="301" y="293"/>
      <point x="259" y="293" type="curve" smooth="yes"/>
      <point x="204" y="293"/>
      <point x="174" y="320"/>
      <point x="113" y="320" type="curve" smooth="yes"/>
      <point x="94" y="320"/>
      <point x="28" y="318"/>
      <point x="28" y="247" type="curve" smooth="yes"/>
      <point x="28" y="237"/>
      <point x="35" y="198"/>
      <point x="66" y="198" type="curve" smooth="yes"/>
      <point x="89" y="198"/>
      <point x="110" y="219"/>
      <point x="152" y="219" type="curve" smooth="yes"/>
      <point x="200" y="219"/>
      <point x="227" y="192"/>
    </contour>
  </outline>
</glyph>
<glyph name="exclamdown" format="2">
  <advance width="229"/>
  <unicode hex="00A1"/>
  <outline>
    <contour>
      <point x="114" y="-224" type="curve" smooth="yes"/>
      <point x="155" y="-224"/>
      <point x="187" y="-202"/>
      <point x="187" y="-163" type="curve" smooth="yes"/>
      <point x="187" y="-44"/>
      <point x="173" y="127"/>
      <point x="173" y="246" type="curve" smooth="yes"/>
      <point x="173" y="277"/>
      <point x="146" y="290"/>
      <point x="114" y="290" type="curve" smooth="yes"/>
      <point x="90" y="290"/>
      <point x="56" y="277"/>
      <point x="56" y="246" type="curve" smooth="yes"/>
      <point x="56" y="127"/>
      <point x="42" y="-44"/>
      <point x="42" y="-163" type="curve" smooth="yes"/>
      <point x="42" y="-202"/>
      <point x="75" y="-224"/>
    </contour>
    <contour>
      <point x="113" y="382" type="curve" smooth="yes"/>
      <point x="157" y="382"/>
      <point x="190" y="417"/>
      <point x="190" y="459" type="curve" smooth="yes"/>
      <point x="190" y="500"/>
      <point x="157" y="536"/>
      <point x="113" y="536" type="curve" smooth="yes"/>
      <point x="72" y="536"/>
      <point x="37" y="500"/>
      <point x="37" y="459" type="curve" smooth="yes"/>
      <point x="37" y="417"/>
      <point x="72" y="382"/>
    </contour>
  </outline>
</glyph>
<glyph name="cent" format="2">
  <advance width="448"/>
  <unicode hex="00A2"/>
  <outline>
    <contour>
      <point x="260" y="39" type="curve" smooth="yes"/>
      <point x="283" y="39"/>
      <point x="304" y="60"/>
      <point x="304" y="81" type="curve" smooth="yes"/>
      <point x="304" y="154" type="line"/>
      <point x="373" y="167"/>
      <point x="423" y="202"/>
      <point x="423" y="238" type="curve" smooth="yes"/>
      <point x="423" y="268"/>
      <point x="399" y="308"/>
      <point x="357" y="308" type="curve" smooth="yes"/>
      <point x="339" y="308"/>
      <point x="326" y="293"/>
      <point x="304" y="283" type="curve"/>
      <point x="304" y="460" type="line"/>
      <point x="327" y="451"/>
      <point x="341" y="438"/>
      <point x="357" y="438" type="curve" smooth="yes"/>
      <point x="393" y="438"/>
      <point x="417" y="480"/>
      <point x="417" y="509" type="curve" smooth="yes"/>
      <point x="417" y="544"/>
      <point x="372" y="576"/>
      <point x="304" y="587" type="curve"/>
      <point x="304" y="655" type="line" smooth="yes"/>
      <point x="304" y="679"/>
      <point x="283" y="695"/>
      <point x="260" y="695" type="curve" smooth="yes"/>
      <point x="236" y="695"/>
      <point x="217" y="679"/>
      <point x="217" y="655" type="curve" smooth="yes"/>
      <point x="217" y="591" type="line"/>
      <point x="82" y="579"/>
      <point x="23" y="491"/>
      <point x="23" y="380" type="curve" smooth="yes"/>
      <point x="23" y="362" type="line" smooth="yes"/>
      <point x="23" y="250"/>
      <point x="81" y="163"/>
      <point x="217" y="151" type="curve"/>
      <point x="217" y="81" type="line" smooth="yes"/>
      <point x="217" y="60"/>
      <point x="236" y="39"/>
    </contour>
    <contour>
      <point x="217" y="280" type="line"/>
      <point x="175" y="291"/>
      <point x="158" y="319"/>
      <point x="158" y="362" type="curve" smooth="yes"/>
      <point x="158" y="380" type="line" smooth="yes"/>
      <point x="158" y="422"/>
      <point x="175" y="451"/>
      <point x="217" y="462" type="curve"/>
    </contour>
  </outline>
</glyph>
<glyph name="sterling" format="2">
  <advance width="565"/>
  <unicode hex="00A3"/>
  <outline>
    <contour>
      <point x="65" y="0" type="curve" smooth="yes"/>
      <point x="489" y="0" type="line" smooth="yes"/>
      <point x="519" y="0"/>
      <point x="534" y="34"/>
      <point x="534" y="68" type="curve" smooth="yes"/>
      <point x="534" y="102"/>
      <point x="519" y="136"/>
      <point x="489" y="136" type="curve" smooth="yes"/>
      <point x="269" y="136" type="line"/>
      <point x="302" y="366" type="line"/>
      <point x="425" y="366" type="line" smooth="yes"/>
      <point x="450" y="366"/>
      <point x="463" y="393"/>
      <point x="463" y="421" type="curve" smooth="yes"/>
      <point x="463" y="448"/>
      <point x="450" y="476"/>
      <point x="425" y="476" type="curve" smooth="yes"/>
      <point x="318" y="476" type="line"/>
      <point x="328" y="545" type="line" smooth="yes"/>
      <point x="335" y="596"/>
      <point x="366" y="633"/>
      <point x="437" y="633" type="curve" smooth="yes"/>
      <point x="484" y="633" type="line" smooth="yes"/>
      <point x="516" y="633"/>
      <point x="534" y="668"/>
      <point x="534" y="701" type="curve" smooth="yes"/>
      <point x="534" y="734"/>
      <point x="516" y="768"/>
      <point x="484" y="768" type="curve" smooth="yes"/>
      <point x="442" y="768" type="line" smooth="yes"/>
      <point x="312" y="768"/>
      <point x="192" y="677"/>
      <point x="173" y="545" type="curve" smooth="yes"/>
      <point x="163" y="476" type="line"/>
      <point x="100" y="476" type="line" smooth="yes"/>
      <point x="75" y="476"/>
      <point x="62" y="448"/>
      <point x="62" y="421" type="curve" smooth="yes"/>
      <point x="62" y="393"/>
      <point x="75" y="366"/>
      <point x="100" y="366" type="curve" smooth="yes"/>
      <point x="147" y="366" type="line"/>
      <point x="115" y="136" type="line"/>
      <point x="65" y="136" type="line" smooth="yes"/>
      <point x="35" y="136"/>
      <point x="20" y="102"/>
      <point x="20" y="68" type="curve" smooth="yes"/>
      <point x="20" y="34"/>
      <point x="35" y="0"/>
    </contour>
  </outline>
</glyph>
<glyph name="currency" format="2">
  <advance width="440"/>
  <unicode hex="00A4"/>
  <outline>
    <contour>
      <point x="220" y="290" type="curve" smooth="yes"/>
      <point x="260" y="290"/>
      <point x="298" y="305"/>
      <point x="329" y="331" type="curve"/>
      <point x="353" y="309" type="line"/>
      <point x="358" y="305"/>
      <point x="363" y="304"/>
      <point x="367" y="304" type="curve" smooth="yes"/>
      <point x="383" y="304"/>
      <point x="398" y="320"/>
      <point x="398" y="335" type="curve" smooth="yes"/>
      <point x="398" y="340"/>
      <point x="396" y="344"/>
      <point x="392" y="348" type="curve"/>
      <point x="366" y="372" type="line"/>
      <point x="386" y="401"/>
      <point x="398" y="436"/>
      <point x="398" y="473" type="curve" smooth="yes"/>
      <point x="398" y="509"/>
      <point x="386" y="544"/>
      <point x="366" y="572" type="curve"/>
      <point x="392" y="596" type="line"/>
      <point x="396" y="600"/>
      <point x="398" y="604"/>
      <point x="398" y="609" type="curve" smooth="yes"/>
      <point x="398" y="624"/>
      <point x="383" y="640"/>
      <point x="367" y="640" type="curve" smooth="yes"/>
      <point x="363" y="640"/>
      <point x="358" y="639"/>
      <point x="353" y="635" type="curve"/>
      <point x="329" y="613" type="line"/>
      <point x="298" y="637"/>
      <point x="260" y="652"/>
      <point x="220" y="652" type="curve" smooth="yes"/>
      <point x="179" y="652"/>
      <point x="141" y="637"/>
      <point x="111" y="613" type="curve"/>
      <point x="87" y="635" type="line"/>
      <point x="82" y="639"/>
      <point x="77" y="640"/>
      <point x="73" y="640" type="curve" smooth="yes"/>
      <point x="57" y="640"/>
      <point x="42" y="624"/>
      <point x="42" y="609" type="curve" smooth="yes"/>
      <point x="42" y="604"/>
      <point x="44" y="600"/>
      <point x="48" y="596" type="curve"/>
      <point x="74" y="572" type="line"/>
      <point x="54" y="543"/>
      <point x="43" y="508"/>
      <point x="43" y="472" type="curve" smooth="yes"/>
      <point x="43" y="436"/>
      <point x="54" y="401"/>
      <point x="74" y="372" type="curve"/>
      <point x="48" y="348" type="line"/>
      <point x="44" y="344"/>
      <point x="42" y="340"/>
      <point x="42" y="335" type="curve" smooth="yes"/>
      <point x="42" y="320"/>
      <point x="57" y="304"/>
      <point x="73" y="304" type="curve" smooth="yes"/>
      <point x="77" y="304"/>
      <point x="82" y="305"/>
      <point x="87" y="309" type="curve"/>
      <point x="111" y="330" type="line"/>
      <point x="142" y="305"/>
      <point x="180" y="290"/>
    </contour>
    <contour>
      <point x="220" y="371" type="curve" smooth="yes"/>
      <point x="166" y="371"/>
      <point x="123" y="420"/>
      <point x="123" y="472" type="curve" smooth="yes"/>
      <point x="123" y="523"/>
      <point x="166" y="571"/>
      <point x="220" y="571" type="curve" smooth="yes"/>
      <point x="275" y="571"/>
      <point x="318" y="522"/>
      <point x="318" y="471" type="curve" smooth="yes"/>
      <point x="318" y="420"/>
      <point x="274" y="371"/>
    </contour>
  </outline>
</glyph>
<glyph name="yen" format="2">
  <advance width="587"/>
  <unicode hex="00A5"/>
  <outline>
    <contour>
      <point x="294" y="0" type="curve" smooth="yes"/>
      <point x="333" y="0"/>
      <point x="372" y="16"/>
      <point x="372" y="48" type="curve" smooth="yes"/>
      <point x="372" y="143" type="line"/>
      <point x="455" y="143" type="line" smooth="yes"/>
      <point x="479" y="143"/>
      <point x="503" y="165"/>
      <point x="503" y="196" type="curve" smooth="yes"/>
      <point x="503" y="226"/>
      <point x="479" y="250"/>
      <point x="455" y="250" type="curve" smooth="yes"/>
      <point x="372" y="250" type="line"/>
      <point x="372" y="310" type="line"/>
      <point x="455" y="310" type="line" smooth="yes"/>
      <point x="479" y="310"/>
      <point x="503" y="332"/>
      <point x="503" y="363" type="curve" smooth="yes"/>
      <point x="503" y="393"/>
      <point x="479" y="417"/>
      <point x="455" y="417" type="curve" smooth="yes"/>
      <point x="406" y="417" type="line"/>
      <point x="562" y="656" type="line"/>
      <point x="565" y="661"/>
      <point x="567" y="669"/>
      <point x="567" y="675" type="curve" smooth="yes"/>
      <point x="567" y="703"/>
      <point x="513" y="738"/>
      <point x="473" y="738" type="curve" smooth="yes"/>
      <point x="451" y="738"/>
      <point x="442" y="722"/>
      <point x="431" y="702" type="curve" smooth="yes"/>
      <point x="294" y="451" type="line"/>
      <point x="156" y="702" type="line" smooth="yes"/>
      <point x="145" y="722"/>
      <point x="136" y="738"/>
      <point x="114" y="738" type="curve" smooth="yes"/>
      <point x="74" y="738"/>
      <point x="20" y="705"/>
      <point x="20" y="674" type="curve" smooth="yes"/>
      <point x="20" y="670"/>
      <point x="21" y="661"/>
      <point x="25" y="656" type="curve"/>
      <point x="181" y="417" type="line"/>
      <point x="135" y="417" type="line" smooth="yes"/>
      <point x="107" y="417"/>
      <point x="88" y="393"/>
      <point x="88" y="362" type="curve" smooth="yes"/>
      <point x="88" y="331"/>
      <point x="107" y="310"/>
      <point x="135" y="310" type="curve" smooth="yes"/>
      <point x="216" y="310" type="line"/>
      <point x="216" y="250" type="line"/>
      <point x="135" y="250" type="line" smooth="yes"/>
      <point x="107" y="250"/>
      <point x="88" y="226"/>
      <point x="88" y="195" type="curve" smooth="yes"/>
      <point x="88" y="164"/>
      <point x="107" y="143"/>
      <point x="135" y="143" type="curve" smooth="yes"/>
      <point x="216" y="143" type="line"/>
      <point x="216" y="48" type="line" smooth="yes"/>
      <point x="216" y="16"/>
      <point x="255" y="0"/>
    </contour>
  </outline>
</glyph>
<glyph name="section" format="2">
  <advance width="485"/>
  <unicode hex="00A7"/>
  <outline>
    <contour>
      <point x="237" y="-64" type="curve" smooth="yes"/>
      <point x="328" y="-64"/>
      <point x="451" y="-23"/>
      <point x="451" y="150" type="curve" smooth="yes"/>
      <point x="451" y="250" type="line" smooth="yes"/>
      <point x="451" y="491"/>
      <point x="180" y="454"/>
      <point x="180" y="557" type="curve" smooth="yes"/>
      <point x="180" y="583"/>
      <point x="198" y="612"/>
      <point x="247" y="612" type="curve" smooth="yes"/>
      <point x="297" y="612"/>
      <point x="309" y="581"/>
      <point x="309" y="555" type="curve" smooth="yes"/>
      <point x="309" y="531"/>
      <point x="323" y="508"/>
      <point x="374" y="508" type="curve" smooth="yes"/>
      <point x="409" y="508"/>
      <point x="431" y="519"/>
      <point x="431" y="567" type="curve" smooth="yes"/>
      <point x="431" y="646"/>
      <point x="370" y="736"/>
      <point x="242" y="736" type="curve" smooth="yes"/>
      <point x="155" y="736"/>
      <point x="38" y="695"/>
      <point x="38" y="522" type="curve" smooth="yes"/>
      <point x="38" y="422" type="line" smooth="yes"/>
      <point x="38" y="181"/>
      <point x="295" y="218"/>
      <point x="295" y="115" type="curve" smooth="yes"/>
      <point x="295" y="89"/>
      <point x="278" y="63"/>
      <point x="229" y="63" type="curve" smooth="yes"/>
      <point x="174" y="63"/>
      <point x="169" y="97"/>
      <point x="169" y="123" type="curve" smooth="yes"/>
      <point x="169" y="145"/>
      <point x="153" y="164"/>
      <point x="103" y="164" type="curve" smooth="yes"/>
      <point x="62" y="164"/>
      <point x="38" y="151"/>
      <point x="38" y="104" type="curve" smooth="yes"/>
      <point x="38" y="27"/>
      <point x="102" y="-64"/>
    </contour>
    <contour>
      <point x="326" y="253" type="line"/>
      <point x="277" y="292"/>
      <point x="165" y="297"/>
      <point x="165" y="389" type="curve" smooth="yes"/>
      <point x="165" y="407" type="line"/>
      <point x="214" y="368"/>
      <point x="326" y="363"/>
      <point x="326" y="271" type="curve" smooth="yes"/>
    </contour>
  </outline>
</glyph>
<glyph name="ordfeminine" format="2">
  <advance width="338"/>
  <unicode hex="00AA"/>
  <outline>
    <contour>
      <point x="107" y="401" type="curve" smooth="yes"/>
      <point x="150" y="401"/>
      <point x="183" y="422"/>
      <point x="212" y="456" type="curve"/>
      <point x="212" y="439" type="line" smooth="yes"/>
      <point x="212" y="422"/>
      <point x="231" y="408"/>
      <point x="256" y="408" type="curve" smooth="yes"/>
      <point x="285" y="408"/>
      <point x="305" y="422"/>
      <point x="305" y="439" type="curve" smooth="yes"/>
      <point x="305" y="602" type="line" smooth="yes"/>
      <point x="305" y="671"/>
      <point x="263" y="736"/>
      <point x="153" y="736" type="curve" smooth="yes"/>
      <point x="104" y="736"/>
      <point x="39" y="714"/>
      <point x="39" y="683" type="curve" smooth="yes"/>
      <point x="39" y="660"/>
      <point x="51" y="633"/>
      <point x="73" y="633" type="curve" smooth="yes"/>
      <point x="91" y="633"/>
      <point x="97" y="655"/>
      <point x="152" y="655" type="curve" smooth="yes"/>
      <point x="192" y="655"/>
      <point x="205" y="626"/>
      <point x="205" y="601" type="curve" smooth="yes"/>
      <point x="205" y="594" type="line"/>
      <point x="180" y="594" type="line" smooth="yes"/>
      <point x="86" y="594"/>
      <point x="21" y="571"/>
      <point x="21" y="492" type="curve" smooth="yes"/>
      <point x="21" y="431"/>
      <point x="61" y="401"/>
    </contour>
    <contour>
      <point x="151" y="475" type="curve" smooth="yes"/>
      <point x="134" y="475"/>
      <point x="122" y="484"/>
      <point x="122" y="506" type="curve" smooth="yes"/>
      <point x="122" y="535"/>
      <point x="152" y="544"/>
      <point x="187" y="544" type="curve" smooth="yes"/>
      <point x="205" y="544" type="line"/>
      <point x="205" y="538" type="line" smooth="yes"/>
      <point x="205" y="503"/>
      <point x="175" y="475"/>
    </contour>
  </outline>
</glyph>
<glyph name="logicalnot" format="2">
  <advance width="504"/>
  <unicode hex="00AC"/>
  <outline>
    <contour>
      <point x="384" y="63" type="curve" smooth="yes"/>
      <point x="427" y="63"/>
      <point x="462" y="87"/>
      <point x="462" y="111" type="curve" smooth="yes"/>
      <point x="462" y="240" type="line" smooth="yes"/>
      <point x="462" y="276"/>
      <point x="438" y="304"/>
      <point x="414" y="304" type="curve" smooth="yes"/>
      <point x="73" y="304" type="line" smooth="yes"/>
      <point x="45" y="304"/>
      <point x="26" y="276"/>
      <point x="26" y="240" type="curve" smooth="yes"/>
      <point x="26" y="202"/>
      <point x="45" y="177"/>
      <point x="73" y="177" type="curve" smooth="yes"/>
      <point x="307" y="177" type="line"/>
      <point x="307" y="111" type="line" smooth="yes"/>
      <point x="307" y="87"/>
      <point x="339" y="63"/>
    </contour>
  </outline>
</glyph>
<glyph name="registered" format="2">
  <advance width="680"/>
  <unicode hex="00AE"/>
  <outline>
    <contour>
      <point x="337" y="35" type="curve" smooth="yes"/>
      <point x="476" y="35"/>
      <point x="647" y="139"/>
      <point x="647" y="362" type="curve" smooth="yes"/>
      <point x="647" y="579"/>
      <point x="484" y="685"/>
      <point x="343" y="685" type="curve" smooth="yes"/>
      <point x="204" y="685"/>
      <point x="33" y="581"/>
      <point x="33" y="358" type="curve" smooth="yes"/>
      <point x="33" y="141"/>
      <point x="196" y="35"/>
    </contour>
    <contour>
      <point x="337" y="105" type="curve" smooth="yes"/>
      <point x="193" y="105"/>
      <point x="103" y="211"/>
      <point x="103" y="358" type="curve" smooth="yes"/>
      <point x="103" y="511"/>
      <point x="200" y="615"/>
      <point x="343" y="615" type="curve" smooth="yes"/>
      <point x="486" y="615"/>
      <point x="577" y="509"/>
      <point x="577" y="362" type="curve" smooth="yes"/>
      <point x="577" y="209"/>
      <point x="480" y="105"/>
    </contour>
    <contour>
      <point x="432" y="181" type="curve" smooth="yes"/>
      <point x="451" y="181"/>
      <point x="473" y="201"/>
      <point x="473" y="222" type="curve" smooth="yes"/>
      <point x="473" y="224"/>
      <point x="473" y="227"/>
      <point x="472" y="229" type="curve"/>
      <point x="413" y="337" type="line"/>
      <point x="449" y="351"/>
      <point x="476" y="385"/>
      <point x="476" y="439" type="curve" smooth="yes"/>
      <point x="476" y="520"/>
      <point x="419" y="547"/>
      <point x="354" y="547" type="curve" smooth="yes"/>
      <point x="253" y="547" type="line" smooth="yes"/>
      <point x="238" y="547"/>
      <point x="228" y="535"/>
      <point x="228" y="522" type="curve" smooth="yes"/>
      <point x="228" y="208" type="line" smooth="yes"/>
      <point x="228" y="191"/>
      <point x="248" y="182"/>
      <point x="268" y="182" type="curve" smooth="yes"/>
      <point x="288" y="182"/>
      <point x="304" y="192"/>
      <point x="304" y="208" type="curve" smooth="yes"/>
      <point x="304" y="324" type="line"/>
      <point x="346" y="324" type="line"/>
      <point x="409" y="198" type="line" smooth="yes"/>
      <point x="415" y="186"/>
      <point x="422" y="181"/>
    </contour>
    <contour>
      <point x="304" y="388" type="line"/>
      <point x="304" y="480" type="line"/>
      <point x="354" y="480" type="line" smooth="yes"/>
      <point x="384" y="480"/>
      <point x="401" y="468"/>
      <point x="401" y="431" type="curve" smooth="yes"/>
      <point x="401" y="401"/>
      <point x="384" y="388"/>
      <point x="354" y="388" type="curve" smooth="yes"/>
    </contour>
  </outline>
</glyph>
<glyph name="degree" format="2">
  <advance width="389"/>
  <unicode hex="00B0"/>
  <outline>
    <contour>
      <point x="194" y="406" type="curve" smooth="yes"/>
      <point x="289" y="406"/>
      <point x="372" y="492"/>
      <point x="372" y="589" type="curve" smooth="yes"/>
      <point x="372" y="686"/>
      <point x="289" y="768"/>
      <point x="194" y="768" type="curve" smooth="yes"/>
      <point x="97" y="768"/>
      <point x="17" y="684"/>
      <point x="17" y="588" type="curve" smooth="yes"/>
      <point x="17" y="492"/>
      <point x="99" y="406"/>
    </contour>
    <contour>
      <point x="194" y="487" type="curve" smooth="yes"/>
      <point x="140" y="487"/>
      <point x="97" y="536"/>
      <point x="97" y="588" type="curve" smooth="yes"/>
      <point x="97" y="639"/>
      <point x="140" y="687"/>
      <point x="194" y="687" type="curve" smooth="yes"/>
      <point x="249" y="687"/>
      <point x="292" y="638"/>
      <point x="292" y="587" type="curve" smooth="yes"/>
      <point x="292" y="536"/>
      <point x="248" y="487"/>
    </contour>
  </outline>
</glyph>
<glyph name="plusminus" format="2">
  <advance width="473"/>
  <unicode hex="00B1"/>
  <outline>
    <contour>
      <point x="237" y="178" type="curve" smooth="yes"/>
      <point x="275" y="178"/>
      <point x="300" y="197"/>
      <point x="300" y="225" type="curve" smooth="yes"/>
      <point x="300" y="312" type="line"/>
      <point x="396" y="312" type="line" smooth="yes"/>
      <point x="420" y="312"/>
      <point x="444" y="337"/>
      <point x="444" y="375" type="curve" smooth="yes"/>
      <point x="444" y="411"/>
      <point x="420" y="439"/>
      <point x="396" y="439" type="curve" smooth="yes"/>
      <point x="300" y="439" type="line"/>
      <point x="300" y="525" type="line" smooth="yes"/>
      <point x="300" y="549"/>
      <point x="275" y="573"/>
      <point x="237" y="573" type="curve" smooth="yes"/>
      <point x="201" y="573"/>
      <point x="173" y="549"/>
      <point x="173" y="525" type="curve" smooth="yes"/>
      <point x="173" y="439" type="line"/>
      <point x="76" y="439" type="line" smooth="yes"/>
      <point x="48" y="439"/>
      <point x="29" y="411"/>
      <point x="29" y="375" type="curve" smooth="yes"/>
      <point x="29" y="337"/>
      <point x="48" y="312"/>
      <point x="76" y="312" type="curve" smooth="yes"/>
      <point x="173" y="312" type="line"/>
      <point x="173" y="225" type="line" smooth="yes"/>
      <point x="173" y="197"/>
      <point x="201" y="178"/>
    </contour>
    <contour>
      <point x="76" y="22" type="curve" smooth="yes"/>
      <point x="396" y="22" type="line" smooth="yes"/>
      <point x="420" y="22"/>
      <point x="444" y="47"/>
      <point x="444" y="85" type="curve" smooth="yes"/>
      <point x="444" y="121"/>
      <point x="420" y="149"/>
      <point x="396" y="149" type="curve" smooth="yes"/>
      <point x="76" y="149" type="line" smooth="yes"/>
      <point x="48" y="149"/>
      <point x="29" y="121"/>
      <point x="29" y="85" type="curve" smooth="yes"/>
      <point x="29" y="47"/>
      <point x="48" y="22"/>
    </contour>
  </outline>
</glyph>
<glyph name="threesuperior" format="2">
  <advance width="336"/>
  <unicode hex="00B3"/>
  <outline>
    <contour>
      <point x="160" y="319" type="curve" smooth="yes"/>
      <point x="246" y="319"/>
      <point x="315" y="354"/>
      <point x="315" y="447" type="curve" smooth="yes"/>
      <point x="315" y="458" type="line" smooth="yes"/>
      <point x="315" y="502"/>
      <point x="290" y="526"/>
      <point x="254" y="538" type="curve"/>
      <point x="285" y="551"/>
      <point x="300" y="591"/>
      <point x="300" y="629" type="curve" smooth="yes"/>
      <point x="300" y="706"/>
      <point x="241" y="731"/>
      <point x="163" y="731" type="curve" smooth="yes"/>
      <point x="59" y="731"/>
      <point x="24" y="676"/>
      <point x="24" y="628" type="curve" smooth="yes"/>
      <point x="24" y="599"/>
      <point x="29" y="590"/>
      <point x="76" y="590" type="curve" smooth="yes"/>
      <point x="114" y="590"/>
      <point x="123" y="604"/>
      <point x="123" y="625" type="curve" smooth="yes"/>
      <point x="123" y="646"/>
      <point x="138" y="646"/>
      <point x="163" y="646" type="curve" smooth="yes"/>
      <point x="185" y="646"/>
      <point x="204" y="642"/>
      <point x="204" y="613" type="curve" smooth="yes"/>
      <point x="204" y="573"/>
      <point x="180" y="573"/>
      <point x="161" y="572" type="curve" smooth="yes"/>
      <point x="139" y="571"/>
      <point x="132" y="552"/>
      <point x="132" y="533" type="curve" smooth="yes"/>
      <point x="132" y="514"/>
      <point x="139" y="495"/>
      <point x="161" y="495" type="curve" smooth="yes"/>
      <point x="191" y="495"/>
      <point x="215" y="492"/>
      <point x="215" y="458" type="curve" smooth="yes"/>
      <point x="215" y="447" type="line" smooth="yes"/>
      <point x="215" y="417"/>
      <point x="203" y="406"/>
      <point x="164" y="406" type="curve" smooth="yes"/>
      <point x="142" y="406"/>
      <point x="114" y="406"/>
      <point x="114" y="431" type="curve" smooth="yes"/>
      <point x="114" y="455"/>
      <point x="104" y="463"/>
      <point x="63" y="463" type="curve" smooth="yes"/>
      <point x="27" y="463"/>
      <point x="15" y="456"/>
      <point x="15" y="428" type="curve" smooth="yes"/>
      <point x="15" y="380"/>
      <point x="55" y="319"/>
    </contour>
  </outline>
</glyph>
<glyph name="micro" format="2">
  <advance width="529"/>
  <unicode hex="00B5"/>
  <outline>
    <contour>
      <point x="127" y="-217" type="curve" smooth="yes"/>
      <point x="159" y="-217"/>
      <point x="186" y="-193"/>
      <point x="186" y="-169" type="curve" smooth="yes"/>
      <point x="186" y="19" type="line"/>
      <point x="214" y="1"/>
      <point x="246" y="-10"/>
      <point x="279" y="-10" type="curve" smooth="yes"/>
      <point x="403" y="-10"/>
      <point x="506" y="88"/>
      <point x="506" y="200" type="curve" smooth="yes"/>
      <point x="506" y="429" type="line" smooth="yes"/>
      <point x="506" y="454"/>
      <point x="474" y="476"/>
      <point x="429" y="476" type="curve" smooth="yes"/>
      <point x="387" y="476"/>
      <point x="351" y="454"/>
      <point x="351" y="429" type="curve" smooth="yes"/>
      <point x="351" y="200" type="line" smooth="yes"/>
      <point x="351" y="162"/>
      <point x="319" y="125"/>
      <point x="279" y="125" type="curve" smooth="yes"/>
      <point x="239" y="125"/>
      <point x="206" y="162"/>
      <point x="206" y="200" type="curve" smooth="yes"/>
      <point x="206" y="428" type="line" smooth="yes"/>
      <point x="206" y="452"/>
      <point x="170" y="476"/>
      <point x="129" y="476" type="curve" smooth="yes"/>
      <point x="86" y="476"/>
      <point x="51" y="452"/>
      <point x="51" y="428" type="curve" smooth="yes"/>
      <point x="51" y="-169" type="line" smooth="yes"/>
      <point x="51" y="-193"/>
      <point x="83" y="-217"/>
    </contour>
  </outline>
</glyph>
<glyph name="paragraph" format="2">
  <advance width="572"/>
  <unicode hex="00B6"/>
  <outline>
    <contour>
      <point x="284" y="0" type="curve" smooth="yes"/>
      <point x="308" y="0"/>
      <point x="332" y="16"/>
      <point x="332" y="48" type="curve" smooth="yes"/>
      <point x="332" y="664" type="line"/>
      <point x="417" y="664" type="line"/>
      <point x="417" y="47" type="line" smooth="yes"/>
      <point x="417" y="14"/>
      <point x="441" y="0"/>
      <point x="465" y="0" type="curve" smooth="yes"/>
      <point x="489" y="0"/>
      <point x="513" y="14"/>
      <point x="513" y="47" type="curve" smooth="yes"/>
      <point x="513" y="682" type="line" smooth="yes"/>
      <point x="513" y="714"/>
      <point x="489" y="730"/>
      <point x="465" y="730" type="curve" smooth="yes"/>
      <point x="218" y="730" type="line" smooth="yes"/>
      <point x="108" y="730"/>
      <point x="22" y="674"/>
      <point x="22" y="524" type="curve" smooth="yes"/>
      <point x="22" y="512" type="line" smooth="yes"/>
      <point x="22" y="362"/>
      <point x="108" y="305"/>
      <point x="218" y="305" type="curve" smooth="yes"/>
      <point x="236" y="305" type="line"/>
      <point x="236" y="48" type="line" smooth="yes"/>
      <point x="236" y="16"/>
      <point x="260" y="0"/>
    </contour>
  </outline>
</glyph>
<glyph name="onesuperior" format="2">
  <advance width="201"/>
  <unicode hex="00B9"/>
  <outline>
    <contour>
      <point x="115" y="322" type="curve" smooth="yes"/>
      <point x="140" y="322"/>
      <point x="165" y="332"/>
      <point x="165" y="352" type="curve" smooth="yes"/>
      <point x="165" y="702" type="line" smooth="yes"/>
      <point x="165" y="721"/>
      <point x="141" y="733"/>
      <point x="120" y="733" type="curve" smooth="yes"/>
      <point x="114" y="733"/>
      <point x="108" y="732"/>
      <point x="103" y="730" type="curve"/>
      <point x="19" y="690" type="line"/>
      <point x="6" y="683"/>
      <point x="1" y="671"/>
      <point x="1" y="657" type="curve" smooth="yes"/>
      <point x="1" y="638"/>
      <point x="14" y="618"/>
      <point x="32" y="618" type="curve" smooth="yes"/>
      <point x="36" y="618"/>
      <point x="42" y="619"/>
      <point x="48" y="621" type="curve"/>
      <point x="64" y="625" type="line"/>
      <point x="64" y="352" type="line" smooth="yes"/>
      <point x="64" y="332"/>
      <point x="89" y="322"/>
    </contour>
  </outline>
</glyph>
<glyph name="ordmasculine" format="2">
  <advance width="349"/>
  <unicode hex="00BA"/>
  <outline>
    <contour>
      <point x="174" y="401" type="curve" smooth="yes"/>
      <point x="256" y="401"/>
      <point x="327" y="469"/>
      <point x="327" y="544" type="curve" smooth="yes"/>
      <point x="327" y="594" type="line" smooth="yes"/>
      <point x="327" y="672"/>
      <point x="256" y="736"/>
      <point x="174" y="736" type="curve" smooth="yes"/>
      <point x="90" y="736"/>
      <point x="22" y="670"/>
      <point x="22" y="594" type="curve" smooth="yes"/>
      <point x="22" y="544" type="line" smooth="yes"/>
      <point x="22" y="469"/>
      <point x="92" y="401"/>
    </contour>
    <contour>
      <point x="174" y="489" type="curve" smooth="yes"/>
      <point x="145" y="489"/>
      <point x="122" y="515"/>
      <point x="122" y="544" type="curve" smooth="yes"/>
      <point x="122" y="594" type="line" smooth="yes"/>
      <point x="122" y="622"/>
      <point x="145" y="648"/>
      <point x="174" y="648" type="curve" smooth="yes"/>
      <point x="203" y="648"/>
      <point x="227" y="622"/>
      <point x="227" y="594" type="curve" smooth="yes"/>
      <point x="227" y="544" type="line" smooth="yes"/>
      <point x="227" y="515"/>
      <point x="203" y="489"/>
    </contour>
  </outline>
</glyph>
<glyph name="onequarter" format="2">
  <advance width="691"/>
  <unicode hex="00BC"/>
  <outline>
    <contour>
      <point x="137" y="-46" type="curve" smooth="yes"/>
      <point x="156" y="-46"/>
      <point x="175" y="-36"/>
      <point x="182" y="-21" type="curve" smooth="yes"/>
      <point x="534" y="700" type="line" smooth="yes"/>
      <point x="537" y="706"/>
      <point x="538" y="713"/>
      <point x="538" y="719" type="curve" smooth="yes"/>
      <point x="538" y="751"/>
      <point x="507" y="772"/>
      <point x="479" y="772" type="curve" smooth="yes"/>
      <point x="461" y="772"/>
      <point x="445" y="764"/>
      <point x="437" y="747" type="curve" smooth="yes"/>
      <point x="86" y="26" type="line" smooth="yes"/>
      <point x="83" y="20"/>
      <point x="81" y="13"/>
      <point x="81" y="7" type="curve" smooth="yes"/>
      <point x="81" y="-18"/>
      <point x="103" y="-46"/>
    </contour>
    <contour>
      <point x="567" y="0" type="curve" smooth="yes"/>
      <point x="593" y="0"/>
      <point x="618" y="10"/>
      <point x="618" y="30" type="curve" smooth="yes"/>
      <point x="618" y="84" type="line"/>
      <point x="643" y="84" type="line" smooth="yes"/>
      <point x="658" y="84"/>
      <point x="673" y="107"/>
      <point x="673" y="130" type="curve" smooth="yes"/>
      <point x="673" y="153"/>
      <point x="663" y="176"/>
      <point x="643" y="176" type="curve" smooth="yes"/>
      <point x="618" y="176" type="line"/>
      <point x="618" y="197" type="line" smooth="yes"/>
      <point x="618" y="218"/>
      <point x="593" y="227"/>
      <point x="567" y="227" type="curve" smooth="yes"/>
      <point x="542" y="227"/>
      <point x="517" y="218"/>
      <point x="517" y="197" type="curve" smooth="yes"/>
      <point x="517" y="176" type="line"/>
      <point x="474" y="176" type="line"/>
      <point x="576" y="360" type="line"/>
      <point x="578" y="364"/>
      <point x="579" y="368"/>
      <point x="579" y="372" type="curve" smooth="yes"/>
      <point x="579" y="395"/>
      <point x="546" y="409"/>
      <point x="529" y="409" type="curve" smooth="yes"/>
      <point x="513" y="409"/>
      <point x="497" y="402"/>
      <point x="487" y="384" type="curve" smooth="yes"/>
      <point x="350" y="136" type="line" smooth="yes"/>
      <point x="346" y="129"/>
      <point x="345" y="123"/>
      <point x="345" y="118" type="curve" smooth="yes"/>
      <point x="345" y="95"/>
      <point x="360" y="84"/>
      <point x="378" y="84" type="curve" smooth="yes"/>
      <point x="517" y="84" type="line"/>
      <point x="517" y="30" type="line" smooth="yes"/>
      <point x="517" y="10"/>
      <point x="542" y="0"/>
    </contour>
    <contour>
      <point x="137" y="322" type="curve" smooth="yes"/>
      <point x="162" y="322"/>
      <point x="187" y="332"/>
      <point x="187" y="352" type="curve" smooth="yes"/>
      <point x="187" y="702" type="line" smooth="yes"/>
      <point x="187" y="721"/>
      <point x="163" y="733"/>
      <point x="142" y="733" type="curve" smooth="yes"/>
      <point x="136" y="733"/>
      <point x="130" y="732"/>
      <point x="125" y="730" type="curve"/>
      <point x="41" y="690" type="line"/>
      <point x="28" y="683"/>
      <point x="23" y="671"/>
      <point x="23" y="657" type="curve" smooth="yes"/>
      <point x="23" y="638"/>
      <point x="36" y="618"/>
      <point x="54" y="618" type="curve" smooth="yes"/>
      <point x="58" y="618"/>
      <point x="64" y="619"/>
      <point x="70" y="621" type="curve"/>
      <point x="86" y="625" type="line"/>
      <point x="86" y="352" type="line" smooth="yes"/>
      <point x="86" y="332"/>
      <point x="111" y="322"/>
    </contour>
  </outline>
</glyph>
<glyph name="onehalf" format="2">
  <advance width="674"/>
  <unicode hex="00BD"/>
  <outline>
    <contour>
      <point x="119" y="-46" type="curve" smooth="yes"/>
      <point x="138" y="-46"/>
      <point x="157" y="-36"/>
      <point x="164" y="-21" type="curve" smooth="yes"/>
      <point x="516" y="700" type="line" smooth="yes"/>
      <point x="519" y="706"/>
      <point x="520" y="713"/>
      <point x="520" y="719" type="curve" smooth="yes"/>
      <point x="520" y="751"/>
      <point x="489" y="772"/>
      <point x="461" y="772" type="curve" smooth="yes"/>
      <point x="443" y="772"/>
      <point x="427" y="764"/>
      <point x="419" y="747" type="curve" smooth="yes"/>
      <point x="68" y="26" type="line" smooth="yes"/>
      <point x="65" y="20"/>
      <point x="63" y="13"/>
      <point x="63" y="7" type="curve" smooth="yes"/>
      <point x="63" y="-18"/>
      <point x="85" y="-46"/>
    </contour>
    <contour>
      <point x="135" y="322" type="curve" smooth="yes"/>
      <point x="160" y="322"/>
      <point x="185" y="332"/>
      <point x="185" y="352" type="curve" smooth="yes"/>
      <point x="185" y="702" type="line" smooth="yes"/>
      <point x="185" y="721"/>
      <point x="161" y="733"/>
      <point x="140" y="733" type="curve" smooth="yes"/>
      <point x="134" y="733"/>
      <point x="128" y="732"/>
      <point x="123" y="730" type="curve"/>
      <point x="39" y="690" type="line"/>
      <point x="26" y="683"/>
      <point x="21" y="671"/>
      <point x="21" y="657" type="curve" smooth="yes"/>
      <point x="21" y="638"/>
      <point x="34" y="618"/>
      <point x="52" y="618" type="curve" smooth="yes"/>
      <point x="56" y="618"/>
      <point x="62" y="619"/>
      <point x="68" y="621" type="curve"/>
      <point x="84" y="625" type="line"/>
      <point x="84" y="352" type="line" smooth="yes"/>
      <point x="84" y="332"/>
      <point x="109" y="322"/>
    </contour>
    <contour>
      <point x="404" y="0" type="curve" smooth="yes"/>
      <point x="617" y="0" type="line" smooth="yes"/>
      <point x="633" y="0"/>
      <point x="647" y="21"/>
      <point x="647" y="44" type="curve" smooth="yes"/>
      <point x="647" y="67"/>
      <point x="633" y="87"/>
      <point x="617" y="87" type="curve" smooth="yes"/>
      <point x="465" y="87" type="line"/>
      <point x="465" y="91" type="line" smooth="yes"/>
      <point x="465" y="133"/>
      <point x="648" y="174"/>
      <point x="648" y="291" type="curve" smooth="yes"/>
      <point x="648" y="370"/>
      <point x="575" y="409"/>
      <point x="505" y="409" type="curve" smooth="yes"/>
      <point x="436" y="409"/>
      <point x="367" y="370"/>
      <point x="367" y="298" type="curve" smooth="yes"/>
      <point x="367" y="258"/>
      <point x="386" y="247"/>
      <point x="412" y="247" type="curve" smooth="yes"/>
      <point x="445" y="247"/>
      <point x="465" y="265"/>
      <point x="465" y="283" type="curve" smooth="yes"/>
      <point x="465" y="310"/>
      <point x="484" y="319"/>
      <point x="506" y="319" type="curve" smooth="yes"/>
      <point x="537" y="319"/>
      <point x="547" y="301"/>
      <point x="547" y="288" type="curve" smooth="yes"/>
      <point x="547" y="224"/>
      <point x="360" y="171"/>
      <point x="360" y="85" type="curve" smooth="yes"/>
      <point x="360" y="30" type="line" smooth="yes"/>
      <point x="360" y="12"/>
      <point x="386" y="0"/>
    </contour>
  </outline>
</glyph>
<glyph name="threequarters" format="2">
  <advance width="826"/>
  <unicode hex="00BE"/>
  <outline>
    <contour>
      <point x="266" y="-46" type="curve" smooth="yes"/>
      <point x="285" y="-46"/>
      <point x="304" y="-36"/>
      <point x="311" y="-21" type="curve" smooth="yes"/>
      <point x="663" y="700" type="line" smooth="yes"/>
      <point x="666" y="706"/>
      <point x="667" y="713"/>
      <point x="667" y="719" type="curve" smooth="yes"/>
      <point x="667" y="751"/>
      <point x="636" y="772"/>
      <point x="608" y="772" type="curve" smooth="yes"/>
      <point x="590" y="772"/>
      <point x="574" y="764"/>
      <point x="566" y="747" type="curve" smooth="yes"/>
      <point x="215" y="26" type="line" smooth="yes"/>
      <point x="212" y="20"/>
      <point x="210" y="13"/>
      <point x="210" y="7" type="curve" smooth="yes"/>
      <point x="210" y="-18"/>
      <point x="232" y="-46"/>
    </contour>
    <contour>
      <point x="172" y="319" type="curve" smooth="yes"/>
      <point x="258" y="319"/>
      <point x="327" y="354"/>
      <point x="327" y="447" type="curve" smooth="yes"/>
      <point x="327" y="458" type="line" smooth="yes"/>
      <point x="327" y="502"/>
      <point x="302" y="526"/>
      <point x="266" y="538" type="curve"/>
      <point x="297" y="551"/>
      <point x="312" y="591"/>
      <point x="312" y="629" type="curve" smooth="yes"/>
      <point x="312" y="706"/>
      <point x="253" y="731"/>
      <point x="175" y="731" type="curve" smooth="yes"/>
      <point x="71" y="731"/>
      <point x="36" y="676"/>
      <point x="36" y="628" type="curve" smooth="yes"/>
      <point x="36" y="599"/>
      <point x="41" y="590"/>
      <point x="88" y="590" type="curve" smooth="yes"/>
      <point x="126" y="590"/>
      <point x="135" y="604"/>
      <point x="135" y="625" type="curve" smooth="yes"/>
      <point x="135" y="646"/>
      <point x="150" y="646"/>
      <point x="175" y="646" type="curve" smooth="yes"/>
      <point x="197" y="646"/>
      <point x="216" y="642"/>
      <point x="216" y="613" type="curve" smooth="yes"/>
      <point x="216" y="573"/>
      <point x="192" y="573"/>
      <point x="173" y="572" type="curve" smooth="yes"/>
      <point x="151" y="571"/>
      <point x="144" y="552"/>
      <point x="144" y="533" type="curve" smooth="yes"/>
      <point x="144" y="514"/>
      <point x="151" y="495"/>
      <point x="173" y="495" type="curve" smooth="yes"/>
      <point x="203" y="495"/>
      <point x="227" y="492"/>
      <point x="227" y="458" type="curve" smooth="yes"/>
      <point x="227" y="447" type="line" smooth="yes"/>
      <point x="227" y="417"/>
      <point x="215" y="406"/>
      <point x="176" y="406" type="curve" smooth="yes"/>
      <point x="154" y="406"/>
      <point x="126" y="406"/>
      <point x="126" y="431" type="curve" smooth="yes"/>
      <point x="126" y="455"/>
      <point x="116" y="463"/>
      <point x="75" y="463" type="curve" smooth="yes"/>
      <point x="39" y="463"/>
      <point x="27" y="456"/>
      <point x="27" y="428" type="curve" smooth="yes"/>
      <point x="27" y="380"/>
      <point x="67" y="319"/>
    </contour>
    <contour>
      <point x="702" y="0" type="curve" smooth="yes"/>
      <point x="728" y="0"/>
      <point x="753" y="10"/>
      <point x="753" y="30" type="curve" smooth="yes"/>
      <point x="753" y="84" type="line"/>
      <point x="778" y="84" type="line" smooth="yes"/>
      <point x="793" y="84"/>
      <point x="808" y="107"/>
      <point x="808" y="130" type="curve" smooth="yes"/>
      <point x="808" y="153"/>
      <point x="798" y="176"/>
      <point x="778" y="176" type="curve" smooth="yes"/>
      <point x="753" y="176" type="line"/>
      <point x="753" y="197" type="line" smooth="yes"/>
      <point x="753" y="218"/>
      <point x="728" y="227"/>
      <point x="702" y="227" type="curve" smooth="yes"/>
      <point x="677" y="227"/>
      <point x="652" y="218"/>
      <point x="652" y="197" type="curve" smooth="yes"/>
      <point x="652" y="176" type="line"/>
      <point x="609" y="176" type="line"/>
      <point x="711" y="360" type="line"/>
      <point x="713" y="364"/>
      <point x="714" y="368"/>
      <point x="714" y="372" type="curve" smooth="yes"/>
      <point x="714" y="395"/>
      <point x="681" y="409"/>
      <point x="664" y="409" type="curve" smooth="yes"/>
      <point x="648" y="409"/>
      <point x="632" y="402"/>
      <point x="622" y="384" type="curve" smooth="yes"/>
      <point x="485" y="136" type="line" smooth="yes"/>
      <point x="481" y="129"/>
      <point x="480" y="123"/>
      <point x="480" y="118" type="curve" smooth="yes"/>
      <point x="480" y="95"/>
      <point x="495" y="84"/>
      <point x="513" y="84" type="curve" smooth="yes"/>
      <point x="652" y="84" type="line"/>
      <point x="652" y="30" type="line" smooth="yes"/>
      <point x="652" y="10"/>
      <point x="677" y="0"/>
    </contour>
  </outline>
</glyph>
<glyph name="questiondown" format="2">
  <advance width="452"/>
  <unicode hex="00BF"/>
  <outline>
    <contour>
      <point x="235" y="-224" type="curve" smooth="yes"/>
      <point x="370" y="-224"/>
      <point x="432" y="-144"/>
      <point x="432" y="-90" type="curve" smooth="yes"/>
      <point x="432" y="-51"/>
      <point x="399" y="-33"/>
      <point x="372" y="-33" type="curve" smooth="yes"/>
      <point x="318" y="-33"/>
      <point x="340" y="-110"/>
      <point x="238" y="-110" type="curve" smooth="yes"/>
      <point x="188" y="-110"/>
      <point x="148" y="-88"/>
      <point x="148" y="-42" type="curve" smooth="yes"/>
      <point x="148" y="12"/>
      <point x="204" y="43"/>
      <point x="237" y="71" type="curve" smooth="yes"/>
      <point x="266" y="96"/>
      <point x="304" y="137"/>
      <point x="304" y="223" type="curve" smooth="yes"/>
      <point x="304" y="275"/>
      <point x="290" y="290"/>
      <point x="249" y="290" type="curve" smooth="yes"/>
      <point x="200" y="290"/>
      <point x="190" y="268"/>
      <point x="190" y="249" type="curve" smooth="yes"/>
      <point x="190" y="197"/>
      <point x="189" y="167"/>
      <point x="134" y="124" type="curve" smooth="yes"/>
      <point x="107" y="103"/>
      <point x="22" y="35"/>
      <point x="22" y="-59" type="curve" smooth="yes"/>
      <point x="22" y="-153"/>
      <point x="107" y="-224"/>
    </contour>
    <contour>
      <point x="248" y="382" type="curve" smooth="yes"/>
      <point x="290" y="382"/>
      <point x="324" y="417"/>
      <point x="324" y="459" type="curve" smooth="yes"/>
      <point x="324" y="500"/>
      <point x="291" y="536"/>
      <point x="248" y="536" type="curve" smooth="yes"/>
      <point x="205" y="536"/>
      <point x="171" y="500"/>
      <point x="171" y="459" type="curve" smooth="yes"/>
      <point x="171" y="417"/>
      <point x="206" y="382"/>
    </contour>
  </outline>
</glyph>
<glyph name="AE" format="2">
  <advance width="812"/>
  <unicode hex="00C6"/>
  <anchor x="476" y="0" name="bottom"/>
  <anchor x="476" y="730" name="top"/>
  <outline>
    <contour>
      <point x="6" y="41" type="curve" smooth="yes"/>
      <point x="6" y="13"/>
      <point x="23" y="0"/>
      <point x="80" y="0" type="curve" smooth="yes"/>
      <point x="116" y="0"/>
      <point x="146" y="5"/>
      <point x="157" y="32" type="curve" smooth="yes"/>
      <point x="364" y="541" type="line"/>
      <point x="377" y="541" type="line"/>
      <point x="377" y="48" type="line" smooth="yes"/>
      <point x="377" y="16"/>
      <point x="411" y="0"/>
      <point x="445" y="0" type="curve" smooth="yes"/>
      <point x="752" y="0" type="line" smooth="yes"/>
      <point x="784" y="0"/>
      <point x="798" y="35"/>
      <point x="798" y="68" type="curve" smooth="yes"/>
      <point x="798" y="104"/>
      <point x="781" y="136"/>
      <point x="752" y="136" type="curve" smooth="yes"/>
      <point x="533" y="136" type="line"/>
      <point x="533" y="306" type="line"/>
      <point x="674" y="306" type="line" smooth="yes"/>
      <point x="707" y="306"/>
      <point x="720" y="338"/>
      <point x="720" y="366" type="curve" smooth="yes"/>
      <point x="720" y="397"/>
      <point x="704" y="426"/>
      <point x="674" y="426" type="curve" smooth="yes"/>
      <point x="533" y="426" type="line"/>
      <point x="533" y="594" type="line"/>
      <point x="752" y="594" type="line" smooth="yes"/>
      <point x="781" y="594"/>
      <point x="798" y="626"/>
      <point x="798" y="662" type="curve" smooth="yes"/>
      <point x="798" y="695"/>
      <point x="784" y="730"/>
      <point x="752" y="730" type="curve" smooth="yes"/>
      <point x="351" y="730" type="line" smooth="yes"/>
      <point x="303" y="730"/>
      <point x="271" y="714"/>
      <point x="256" y="677" type="curve" smooth="yes"/>
      <point x="21" y="102" type="line" smooth="yes"/>
      <point x="11" y="77"/>
      <point x="6" y="56"/>
    </contour>
    <contour>
      <point x="176" y="154" type="line"/>
      <point x="427" y="154" type="line"/>
      <point x="394" y="274" type="line"/>
      <point x="208" y="274" type="line"/>
    </contour>
  </outline>
</glyph>
<glyph name="Eth" format="2">
  <advance width="597"/>
  <unicode hex="00D0"/>
  <outline>
    <contour>
      <point x="28" y="327" type="curve" smooth="yes"/>
      <point x="278" y="327" type="line" smooth="yes"/>
      <point x="303" y="327"/>
      <point x="316" y="353"/>
      <point x="316" y="382" type="curve" smooth="yes"/>
      <point x="316" y="409"/>
      <point x="303" y="437"/>
      <point x="278" y="437" type="curve" smooth="yes"/>
      <point x="28" y="437" type="line" smooth="yes"/>
      <point x="3" y="437"/>
      <point x="-10" y="409"/>
      <point x="-10" y="382" type="curve" smooth="yes"/>
      <point x="-10" y="354"/>
      <point x="3" y="327"/>
    </contour>
    <component base="D"/>
  </outline>
</glyph>
<glyph name="multiply" format="2">
  <advance width="410"/>
  <unicode hex="00D7"/>
  <outline>
    <contour>
      <point x="106" y="104" type="curve" smooth="yes"/>
      <point x="117" y="104"/>
      <point x="128" y="108"/>
      <point x="136" y="116" type="curve" smooth="yes"/>
      <point x="204" y="185" type="line"/>
      <point x="273" y="116" type="line" smooth="yes"/>
      <point x="281" y="108"/>
      <point x="291" y="104"/>
      <point x="302" y="104" type="curve" smooth="yes"/>
      <point x="337" y="104"/>
      <point x="375" y="142"/>
      <point x="375" y="176" type="curve" smooth="yes"/>
      <point x="375" y="187"/>
      <point x="371" y="198"/>
      <point x="363" y="206" type="curve"/>
      <point x="284" y="275" type="line"/>
      <point x="362" y="342" type="line"/>
      <point x="369" y="349"/>
      <point x="373" y="360"/>
      <point x="373" y="372" type="curve" smooth="yes"/>
      <point x="373" y="407"/>
      <point x="337" y="443"/>
      <point x="301" y="443" type="curve" smooth="yes"/>
      <point x="290" y="443"/>
      <point x="279" y="439"/>
      <point x="272" y="432" type="curve" smooth="yes"/>
      <point x="204" y="364" type="line"/>
      <point x="137" y="432" type="line"/>
      <point x="129" y="439"/>
      <point x="119" y="443"/>
      <point x="107" y="443" type="curve" smooth="yes"/>
      <point x="72" y="443"/>
      <point x="36" y="407"/>
      <point x="36" y="371" type="curve" smooth="yes"/>
      <point x="36" y="360"/>
      <point x="40" y="349"/>
      <point x="47" y="342" type="curve"/>
      <point x="125" y="275" type="line"/>
      <point x="46" y="206" type="line"/>
      <point x="38" y="198"/>
      <point x="34" y="188"/>
      <point x="34" y="177" type="curve" smooth="yes"/>
      <point x="34" y="143"/>
      <point x="74" y="104"/>
    </contour>
  </outline>
</glyph>
<glyph name="Thorn" format="2">
  <advance width="559"/>
  <unicode hex="00DE"/>
  <outline>
    <contour>
      <point x="54" y="48" type="line" smooth="yes"/>
      <point x="54" y="16"/>
      <point x="93" y="0"/>
      <point x="132" y="0" type="curve" smooth="yes"/>
      <point x="171" y="0"/>
      <point x="210" y="16"/>
      <point x="210" y="48" type="curve" smooth="yes"/>
      <point x="210" y="131" type="line"/>
      <point x="304" y="131" type="line" smooth="yes"/>
      <point x="439" y="131"/>
      <point x="545" y="195"/>
      <point x="545" y="363" type="curve" smooth="yes"/>
      <point x="545" y="369" type="line" smooth="yes"/>
      <point x="545" y="537"/>
      <point x="443" y="599"/>
      <point x="314" y="599" type="curve" smooth="yes"/>
      <point x="210" y="599" type="line"/>
      <point x="210" y="683" type="line" smooth="yes"/>
      <point x="210" y="716"/>
      <point x="171" y="730"/>
      <point x="132" y="730" type="curve" smooth="yes"/>
      <point x="93" y="730"/>
      <point x="54" y="716"/>
      <point x="54" y="683" type="curve" smooth="yes"/>
    </contour>
    <contour>
      <point x="210" y="259" type="line"/>
      <point x="210" y="471" type="line"/>
      <point x="304" y="471" type="line" smooth="yes"/>
      <point x="357" y="471"/>
      <point x="389" y="439"/>
      <point x="389" y="371" type="curve" smooth="yes"/>
      <point x="389" y="359" type="line" smooth="yes"/>
      <point x="389" y="291"/>
      <point x="357" y="259"/>
      <point x="304" y="259" type="curve" smooth="yes"/>
    </contour>
  </outline>
</glyph>
